<svg xmlns="http://www.w3.org/2000/svg" xmlns:xlink="http://www.w3.org/1999/xlink" width="304.81" height="549.66" viewBox="0 0 304.81 549.66"><defs><clipPath id="a"><circle cx="152.4" cy="152.4" r="152.4" fill="none"/></clipPath></defs><g style="isolation:isolate"><circle cx="152.4" cy="152.4" r="152.4" fill="#4cbeed"/><g clip-path="url(#a)"><path d="M121.88,249.39H71.18c-4.55,0-8.28-3.42-8.28-7.59L57,191c0-9.87,8.81-17.95,19.57-17.95h39.62c10.76,0,19.57,8.08,19.57,17.95l-5.57,50.76C130.15,246,126.43,249.39,121.88,249.39Z" fill="#4cbeed" stroke="#004785" stroke-miterlimit="10"/><path d="M103.57,214.68H89.11c-19.72,0-35.85-14.13-35.85-31.41V139.7c0-4.91,4.58-8.92,10.18-8.92,0,0,10.59-8,33.17-8s33,8,33,8c5.38,0,9.78,3.85,9.78,8.57v43.92C139.42,200.55,123.29,214.68,103.57,214.68Z" fill="#4cbeed" stroke="#004785" stroke-miterlimit="10"/><path d="M136.75,257.47c-7.12,18.08-13.13,19.42-16.91,19.42h-47c-3.78,0-9.79-1.34-16.9-19.42-2.17-5.52,3.08-6.84,6.84-6.84H129.9C133.66,250.63,138.91,252,136.75,257.47Z" fill="#4cbeed" stroke="#004785" stroke-miterlimit="10"/><path d="M83.22,274.25V255.72A13.15,13.15,0,0,1,96.34,242.6h0a13.15,13.15,0,0,1,13.12,13.12v18.53c0,3.6-6.56,13.15-13.12,13.15S83.22,277.85,83.22,274.25Z" fill="#4cbeed" stroke="#004785" stroke-miterlimit="10"/><path d="M84.83,124.41a.69.69,0,0,1,0-.08s0-.06,0-.07a9.15,9.15,0,0,1-.31-2.23v-14.5a14.39,14.39,0,0,1,3.44-9.47,11.67,11.67,0,0,1,7-4l.36-.07c.45,0,.88-.07,1.32-.07h.07a8.4,8.4,0,0,1,1.41.13l.34,0a11.71,11.71,0,0,1,6.76,3.82,14.51,14.51,0,0,1,3.55,9.63V122a10.88,10.88,0,0,1-.14,1.63s-1.88,8.05-12,8.24S84.83,124.41,84.83,124.41Z" fill="#4cbeed" stroke="#004785" stroke-miterlimit="10"/><ellipse cx="65.1" cy="74.35" rx="6.33" ry="10.42" transform="translate(-12.39 13.02) rotate(-10.44)" fill="#4cbeed" stroke="#004785" stroke-miterlimit="10"/><ellipse cx="66.79" cy="74.91" rx="6.33" ry="8.83" transform="translate(-24.15 32.45) rotate(-23.25)" fill="#4cbeed" stroke="#004785" stroke-miterlimit="10" style="mix-blend-mode:multiply"/><path d="M85.43,76.55a2.57,2.57,0,1,1-2.56-2.83A2.71,2.71,0,0,1,85.43,76.55Z" fill="#4cbeed" stroke="#004785" stroke-miterlimit="10"/><path d="M113.66,76.55a2.57,2.57,0,1,1-2.55-2.83A2.7,2.7,0,0,1,113.66,76.55Z" fill="#4cbeed" stroke="#004785" stroke-miterlimit="10"/><path d="M98.32,94.36H94.86a1.19,1.19,0,0,1-1.2-1.19l.51-17.24A2.72,2.72,0,0,1,96.59,73h0c1.28,0,2.07,1.32,2.07,2.93l.86,17.24A1.19,1.19,0,0,1,98.32,94.36Z" fill="#4cbeed" stroke="#004785" stroke-miterlimit="10"/><path d="M85.43,97.89s6.49,6.67,15.61,5.8Z" fill="#4cbeed" stroke="#004785" stroke-miterlimit="10"/><circle cx="81.79" cy="85.21" r="5.82" fill="#4cbeed" stroke="#004785" stroke-miterlimit="10" opacity="0.15"/><circle cx="111.76" cy="85.21" r="5.82" fill="#4cbeed" stroke="#004785" stroke-miterlimit="10" opacity="0.15"/><rect x="77.91" y="69.03" width="9.93" height="1.49" rx="0.75" fill="#4cbeed" stroke="#004785" stroke-miterlimit="10"/><rect x="106.14" y="69.29" width="9.93" height="1.49" rx="0.75" fill="#4cbeed" stroke="#004785" stroke-miterlimit="10"/><path d="M81.18,503.34c-10,.26-10.75-9.13-12.86-16.12,0,0-9.72-52-8.47-77.93s7.83-25.94,14.83-25.94h0a12.75,12.75,0,0,1,12.71,12.71v91.16C87.39,494.21,86.74,503.19,81.18,503.34Z" fill="#4cbeed" stroke="#004785" stroke-miterlimit="10"/><path d="M77.72,395.45l-6.56.35c-9.36,0-10.47-6.92-10.47-14.95L54.13,279.6c0-8,7.67-14.6,17-14.6h0c9.37,0,22.52,3.85,22.52,11.88L88.19,381.2C88.19,389.23,87.09,395.45,77.72,395.45Z" fill="#4cbeed" stroke="#004785" stroke-miterlimit="10"/><path d="M111.8,503.34c9.81.86,10.45-9.13,12.56-16.12,0,0,9.72-52,8.47-77.93S125,383.35,118,383.35h0a12.75,12.75,0,0,0-12.71,12.71v91.16C105.29,494.21,106.25,502.85,111.8,503.34Z" fill="#4cbeed" stroke="#004785" stroke-miterlimit="10"/><path d="M115,395.45l6.56.35c9.36,0,10.47-6.92,10.47-14.95l6.56-101.25c0-8-7.67-14.6-17-14.6h0C112.15,265,99,268.85,99,276.88l5.49,104.32C104.49,389.23,105.59,395.45,115,395.45Z" fill="#4cbeed" stroke="#004785" stroke-miterlimit="10"/><path d="M121.88,249.39H71.18c-4.55,0-8.28-3.42-8.28-7.59L57,191c0-9.87,8.81-17.95,19.57-17.95h39.62c10.76,0,19.57,8.08,19.57,17.95l-5.57,50.76C130.15,246,126.43,249.39,121.88,249.39Z" fill="#4cbeed" stroke="#004785" stroke-miterlimit="10"/><path d="M103.57,214.68H89.11c-19.72,0-35.85-14.13-35.85-31.41V139.7c0-4.91,4.58-8.92,10.18-8.92,0,0,10.57-9,33.15-9s33,9,33,9c5.38,0,9.78,3.85,9.78,8.57v43.92C139.42,200.55,123.29,214.68,103.57,214.68Z" fill="#4cbeed" stroke="#004785" stroke-miterlimit="10"/><path d="M136.75,257.47c-7.12,18.08-13.13,19.42-16.91,19.42h-47c-3.78,0-9.79-1.34-16.9-19.42-2.17-5.52,3.08-6.84,6.84-6.84H129.9C133.66,250.63,138.91,252,136.75,257.47Z" fill="#4cbeed" stroke="#004785" stroke-miterlimit="10"/><path d="M83.22,274.25V255.72A13.15,13.15,0,0,1,96.34,242.6h0a13.15,13.15,0,0,1,13.12,13.12v18.53c0,3.6-6.56,13.15-13.12,13.15S83.22,277.85,83.22,274.25Z" fill="#4cbeed" stroke="#004785" stroke-miterlimit="10"/><path d="M84.83,124.41a.69.69,0,0,1,0-.08s0-.06,0-.07a9.15,9.15,0,0,1-.31-2.23v-14.5a14.39,14.39,0,0,1,3.44-9.47,11.67,11.67,0,0,1,7-4l.36-.07c.45,0,.88-.07,1.32-.07h.07a8.4,8.4,0,0,1,1.41.13l.34,0a11.71,11.71,0,0,1,6.76,3.82,14.51,14.51,0,0,1,3.55,9.63V122a10.88,10.88,0,0,1-.14,1.63s-1.88,8.05-12,8.24S84.83,124.41,84.83,124.41Z" fill="#4cbeed" stroke="#004785" stroke-miterlimit="10"/><ellipse cx="65.1" cy="74.35" rx="6.33" ry="10.42" transform="translate(-12.39 13.02) rotate(-10.44)" fill="#4cbeed" stroke="#004785" stroke-miterlimit="10"/><ellipse cx="68.79" cy="74.91" rx="6.33" ry="8.83" transform="translate(-23.99 33.24) rotate(-23.25)" fill="#4cbeed" stroke="#004785" stroke-miterlimit="10"/><path d="M134.35,76.07c-.48,5.91-5.23,9-8.49,8.64-1.15-.2-3.44-2.92-3.78-6.88C122,76.77,124.3,66,125.5,65.55a8.65,8.65,0,0,1,3.7-.5C132.48,65.43,134.8,70.48,134.35,76.07Z" fill="#4cbeed" stroke="#004785" stroke-miterlimit="10"/><path d="M117.81,72.51c-1.93,4.48-.88,9.23,2.33,10.61s9.56.56,10.51-5.61c.74-4.82-.32-9.24-3.54-10.62S119.74,68,117.81,72.51Z" fill="#4cbeed" stroke="#004785" stroke-miterlimit="10"/><path d="M126,88.78c-1.71,5.77-3.76,11.56-7.22,16.51-3.61,5.15-11.32,12.8-20.59,12.66-12.47-.19-22.49-8.31-27.63-18.89a53.14,53.14,0,0,1-5.1-23.21c0-1.71,0-3.35,0-5,.16-6.71.62-13.58,2.38-20.08,1.64-6,4.65-12.07,9.78-15.87,5.46-4,13.32-5.63,20-5.39,5.75.21,11.43.55,16.42,3.41s8,9.12,9.93,14.31a64,64,0,0,1,3.27,18.15S127.52,83.68,126,88.78Z" fill="#4cbeed" stroke="#004785" stroke-miterlimit="10"/><path d="M85.43,76.55a2.57,2.57,0,1,1-2.56-2.83A2.71,2.71,0,0,1,85.43,76.55Z" fill="#4cbeed" stroke="#004785" stroke-miterlimit="10"/><path d="M113.66,76.55a2.57,2.57,0,1,1-2.55-2.83A2.7,2.7,0,0,1,113.66,76.55Z" fill="#4cbeed" stroke="#004785" stroke-miterlimit="10"/><path d="M98.32,94.36H94.86a1.19,1.19,0,0,1-1.2-1.19l.51-17.24A2.72,2.72,0,0,1,96.59,73h0c1.28,0,2.07,1.32,2.07,2.93l.86,17.24A1.19,1.19,0,0,1,98.32,94.36Z" fill="#4cbeed" stroke="#004785" stroke-miterlimit="10"/><circle cx="81.79" cy="86.21" r="5.82" fill="#4cbeed" opacity="0.15" style="mix-blend-mode:multiply"/><circle cx="111.76" cy="86.21" r="5.82" fill="#4cbeed" opacity="0.15" style="mix-blend-mode:multiply"/><rect x="77.91" y="67.23" width="9.93" height="3.03" rx="1.06" fill="#4cbeed" stroke="#004785" stroke-miterlimit="10"/><rect x="106.14" y="67.75" width="9.93" height="3.03" rx="1.06" fill="#4cbeed" stroke="#004785" stroke-miterlimit="10"/><path d="M81.27,529.91A37.71,37.71,0,0,1,53.78,534c-15.27-3.81,21.57-34.38,21.57-34.38l11.11-5s.46,14.29.24,18.52S85.1,525.6,81.27,529.91Z" fill="#4cbeed" stroke="#004785" stroke-miterlimit="10"/><path d="M111.49,529.91A37.67,37.67,0,0,0,139,534c15.28-3.81-21.56-34.38-21.56-34.38l-11.12-5s-.46,14.29-.24,18.52S107.66,525.6,111.49,529.91Z" fill="#4cbeed" stroke="#004785" stroke-miterlimit="10"/><path d="M81.18,503.34c-10,.26-10.75-9.13-12.86-16.12,0,0-9.72-52-8.47-77.93s7.83-25.94,14.83-25.94h0a12.75,12.75,0,0,1,12.71,12.71v91.16C87.39,494.21,86.74,503.19,81.18,503.34Z" fill="#4cbeed" stroke="#004785" stroke-miterlimit="10"/><path d="M77.72,395.45l-6.56.35c-9.36,0-10.47-6.92-10.47-14.95L54.13,279.6c0-8,7.67-14.6,17-14.6h0c9.37,0,22.52,3.85,22.52,11.88L88.19,381.2C88.19,389.23,87.09,395.45,77.72,395.45Z" fill="#4cbeed" stroke="#004785" stroke-miterlimit="10"/><path d="M111.8,503.34c9.81.86,10.45-9.13,12.56-16.12,0,0,9.72-52,8.47-77.93S125,383.35,118,383.35h0a12.75,12.75,0,0,0-12.71,12.71v91.16C105.29,494.21,106.25,502.85,111.8,503.34Z" fill="#4cbeed" stroke="#004785" stroke-miterlimit="10"/><path d="M115,395.45l6.56.35c9.36,0,10.47-6.92,10.47-14.95l6.56-101.25c0-8-7.67-14.6-17-14.6h0C112.15,265,99,268.85,99,276.88l5.49,104.32C104.49,389.23,105.59,395.45,115,395.45Z" fill="#4cbeed" stroke="#004785" stroke-miterlimit="10"/><polygon points="83.67 96 96.4 94.89 108.89 95.65 109.51 103.09 105.25 100.49 101.11 103.29 96.66 99.98 91.59 102.8 88.07 100.23 83.67 102.8 83.67 96" fill="#4cbeed" stroke="#004785" stroke-miterlimit="10"/><polygon points="65.3 89.72 69.87 91.32 67.58 75.39 69.39 77.28 67.33 58.92 65.62 58.2 64.31 74.35 65.3 89.72" fill="#4cbeed" stroke="#004785" stroke-miterlimit="10"/><polygon points="127.64 89.72 123.08 91.32 125.36 75.39 123.55 77.28 125.62 58.92 127.32 58.2 128.64 74.35 127.64 89.72" fill="#4cbeed" stroke="#004785" stroke-miterlimit="10"/><line x1="95.1" y1="107.25" x2="95.1" y2="109.84" fill="#4cbeed" stroke="#004785" stroke-miterlimit="10"/><line x1="97.31" y1="106.51" x2="97.31" y2="109.11" fill="#4cbeed" stroke="#004785" stroke-miterlimit="10"/><line x1="95.64" y1="103.11" x2="95.64" y2="105.71" fill="#4cbeed" stroke="#004785" stroke-miterlimit="10"/><line x1="98.64" y1="103.43" x2="98.64" y2="106.03" fill="#4cbeed" stroke="#004785" stroke-miterlimit="10"/><line x1="97.31" y1="111.71" x2="97.31" y2="114.31" fill="#4cbeed" stroke="#004785" stroke-miterlimit="10"/><line x1="99" y1="115.35" x2="99" y2="117.95" fill="#4cbeed" stroke="#004785" stroke-miterlimit="10"/><line x1="103.45" y1="114.37" x2="103.45" y2="116.96" fill="#4cbeed" stroke="#004785" stroke-miterlimit="10"/><line x1="92.01" y1="113.05" x2="92.01" y2="115.65" fill="#4cbeed" stroke="#004785" stroke-miterlimit="10"/><line x1="101.36" y1="113.5" x2="101.36" y2="116.1" fill="#4cbeed" stroke="#004785" stroke-miterlimit="10"/><line x1="94.69" y1="113.63" x2="94.69" y2="116.23" fill="#4cbeed" stroke="#004785" stroke-miterlimit="10"/><line x1="96.61" y1="115.35" x2="96.61" y2="117.95" fill="#4cbeed" stroke="#004785" stroke-miterlimit="10"/><line x1="99.74" y1="107.04" x2="99.74" y2="109.63" fill="#4cbeed" stroke="#004785" stroke-miterlimit="10"/><line x1="84.21" y1="103.77" x2="84.21" y2="106.36" fill="#4cbeed" stroke="#004785" stroke-miterlimit="10"/><line x1="109.08" y1="103.95" x2="109.08" y2="106.55" fill="#4cbeed" stroke="#004785" stroke-miterlimit="10"/><line x1="105.1" y1="111.75" x2="105.1" y2="114.35" fill="#4cbeed" stroke="#004785" stroke-miterlimit="10"/><line x1="107.51" y1="112.85" x2="107.51" y2="115.45" fill="#4cbeed" stroke="#004785" stroke-miterlimit="10"/><line x1="109.51" y1="109.79" x2="109.51" y2="112.38" fill="#4cbeed" stroke="#004785" stroke-miterlimit="10"/><line x1="114.36" y1="104.91" x2="114.36" y2="107.51" fill="#4cbeed" stroke="#004785" stroke-miterlimit="10"/><line x1="116.77" y1="105.35" x2="116.77" y2="107.95" fill="#4cbeed" stroke="#004785" stroke-miterlimit="10"/><line x1="118.84" y1="99.69" x2="118.84" y2="102.29" fill="#4cbeed" stroke="#004785" stroke-miterlimit="10"/><line x1="120.79" y1="95.71" x2="120.79" y2="98.31" fill="#4cbeed" stroke="#004785" stroke-miterlimit="10"/><line x1="122.46" y1="92.6" x2="122.46" y2="95.2" fill="#4cbeed" stroke="#004785" stroke-miterlimit="10"/><line x1="112.07" y1="110.17" x2="112.07" y2="112.77" fill="#4cbeed" stroke="#004785" stroke-miterlimit="10"/><line x1="89.39" y1="113.6" x2="89.39" y2="116.19" fill="#4cbeed" stroke="#004785" stroke-miterlimit="10"/><line x1="86.73" y1="111.05" x2="86.73" y2="113.65" fill="#4cbeed" stroke="#004785" stroke-miterlimit="10"/><line x1="84.21" y1="111.13" x2="84.21" y2="113.73" fill="#4cbeed" stroke="#004785" stroke-miterlimit="10"/><line x1="79.56" y1="105.43" x2="79.56" y2="108.03" fill="#4cbeed" stroke="#004785" stroke-miterlimit="10"/><line x1="77.2" y1="105.88" x2="77.2" y2="108.48" fill="#4cbeed" stroke="#004785" stroke-miterlimit="10"/><line x1="74.97" y1="100.51" x2="74.97" y2="103.11" fill="#4cbeed" stroke="#004785" stroke-miterlimit="10"/><line x1="72.78" y1="100.64" x2="72.78" y2="103.24" fill="#4cbeed" stroke="#004785" stroke-miterlimit="10"/><line x1="70.84" y1="92.88" x2="70.84" y2="95.48" fill="#4cbeed" stroke="#004785" stroke-miterlimit="10"/><line x1="81.79" y1="107.68" x2="81.79" y2="110.28" fill="#4cbeed" stroke="#004785" stroke-miterlimit="10"/><path d="M78.37,77.38s.51,3.21,4.5,3.11,3.86-2.73,3.86-2.73" fill="#4cbeed" stroke="#004785" stroke-miterlimit="10"/><path d="M115.29,77.38s-.51,3.21-4.5,3.11-3.86-2.73-3.86-2.73" fill="#4cbeed" stroke="#004785" stroke-miterlimit="10"/><line x1="73.57" y1="73.72" x2="77.91" y2="74.91" fill="#4cbeed" stroke="#004785" stroke-miterlimit="10"/><line x1="73.57" y1="78.01" x2="75.97" y2="77.38" fill="#4cbeed" stroke="#004785" stroke-miterlimit="10"/><line x1="119.75" y1="73.72" x2="115.41" y2="74.91" fill="#4cbeed" stroke="#004785" stroke-miterlimit="10"/><line x1="119.75" y1="78.01" x2="117.35" y2="77.38" fill="#4cbeed" stroke="#004785" stroke-miterlimit="10"/><path d="M87.5,515.15s-.56,3.79-1.58,8.15c-1.31,5.71-3,8.76-6.08,10.06,0,0-14,6.73-29.5,2.86-4.34-1.09-4.47-4.39-2.4-8.6,5.31-10.81,25.13-27.52,25.13-27.52H86.22Z" fill="#4cbeed" stroke="#004785" stroke-miterlimit="10"/><path d="M87.5,515.15s-.56,3.79-1.58,8.15c-3.24,3-8.44,5.49-16.72,6.39-10.29,1.1-17-.14-21.26-2.07a47.24,47.24,0,0,1,6.23-8.93c1.27-1.5,2.62-3,4-4.46.42-.44.82-.89,1.25-1.32,1.09-1.13,2.19-2.23,3.26-3.29l1.77-1.71c1.28-1.22,2.49-2.35,3.58-3.35,3-2.71,5-4.46,5-4.46l13.49-2.34Z" fill="#4cbeed" stroke="#004785" stroke-miterlimit="10"/><path d="M74,516.32c-.91,1.6-1.8,3.06-2.6,4.21-6.07-.52-12.83-1.38-17.26-1.84,1.27-1.5,2.62-3,4-4.46C63.54,514.88,70.79,515.87,74,516.32Z" fill="#4cbeed" stroke="#004785" stroke-miterlimit="10"/><path d="M77.19,510.42c-.6,1.19-1.25,2.43-1.9,3.65-3.59-.41-10.53-.85-15.87-1.16,1.09-1.13,2.19-2.23,3.26-3.29Z" fill="#4cbeed" stroke="#004785" stroke-miterlimit="10"/><path d="M79.84,504.82c-.35.83-.85,1.91-1.44,3.14-3-.11-8.81-.1-14,0,1.28-1.22,2.49-2.35,3.58-3.35A86,86,0,0,1,79.84,504.82Z" fill="#4cbeed" stroke="#004785" stroke-miterlimit="10"/><path d="M141.38,536.22a46.1,46.1,0,0,1-28.29-2.13c-2.68-1.26-6-5.24-7.35-11-1-4.28-1.53-8-1.53-8l1.29-15h13.15S138,516.46,143.6,527.26C145.86,531.63,145.85,535.1,141.38,536.22Z" fill="#4cbeed" stroke="#004785" stroke-miterlimit="10"/><path d="M143.6,527.26a28,28,0,0,1-11.08,3.28c-8.57.79-20.61-4.41-26.78-7.43-1-4.28-1.53-8-1.53-8l1.29-15h13.15S138,516.46,143.6,527.26Z" fill="#4cbeed" stroke="#004785" stroke-miterlimit="10"/><path d="M117.62,516.32c.91,1.6,1.81,3.06,2.61,4.21,6.06-.52,12.82-1.38,17.25-1.84-1.27-1.5-2.62-3-4-4.46C128.11,514.88,120.87,515.87,117.62,516.32Z" fill="#4cbeed" stroke="#004785" stroke-miterlimit="10"/><path d="M114.46,510.42c.6,1.19,1.25,2.43,1.9,3.65,3.6-.41,10.53-.85,15.87-1.16-1.08-1.13-2.19-2.23-3.26-3.29Z" fill="#4cbeed" stroke="#004785" stroke-miterlimit="10"/><path d="M111.81,504.82c.35.83.85,1.91,1.44,3.14,3-.11,8.81-.1,14,0-1.28-1.22-2.49-2.35-3.58-3.35A86,86,0,0,0,111.81,504.82Z" fill="#4cbeed" stroke="#004785" stroke-miterlimit="10"/><path d="M81.65,503.82c-3.67.58-8.51.21-11.09-3.72a26.8,26.8,0,0,1-3.16-6.86s-9.87-52.81-8.61-79.16,8-26.35,15.06-26.35h0c7.1,0,16.4-.22,16.4,6.88l-1.74,29.83-1.74,68.8C86.77,500.34,87.24,503,81.65,503.82Z" fill="#4cbeed" stroke="#004785" stroke-miterlimit="10"/><path d="M86.77,405.19s-1.13,4.63-12.74,4.63-14.38-16.47-14.38-24.63L52.5,297.77,53,282.34c0-8.16,7.78-14.83,17.29-14.83h0c9.51,0,25.86,14.6,25.86,22.75l-4.83,96.39C91.31,394.81,86.77,405.19,86.77,405.19Z" fill="#4cbeed" stroke="#004785" stroke-miterlimit="10"/><path d="M111.41,506.15c3.91.62,9.34.49,12-3.86,1.12-1.86.32-6.92,1-9.05,0,0,11.58-55.77,10.32-82.12s-9.67-23.39-16.77-23.39h0A13,13,0,0,0,105,400.64l-1.29,24.66L105,493.24C105,500.34,105.82,505.28,111.41,506.15Z" fill="#4cbeed" stroke="#004785" stroke-miterlimit="10"/><path d="M105,403.15c4.52,6.28,9.9,13.8,20.69,3,5.93-4.1,6.43-12.79,6.43-20.95l6.66-102.85c0-8.16-7.78-14.83-17.29-14.83h0c-9.52,0-25.3,16.54-25.3,24.7l4.79,95.2C100.93,395.56,105,403.15,105,403.15Z" fill="#4cbeed" stroke="#004785" stroke-miterlimit="10"/><path d="M137.38,299,52.5,297.77c0-.63.08-3.83.13-8.31,0-2.16-1.44-39.85,1.95-39.42,21.16,2.58,83.12,2.6,83.12,2.6l2.21,26.09Z" fill="#4cbeed" stroke="#004785" stroke-miterlimit="10"/><path d="M62.69,448.66s-1.38,12.08-1.11,15.9A29.35,29.35,0,0,0,64,473s-.63,11.47-.73,14.75,7.28,12.33,7.28,12.33L75,491l-4.64-32.51Z" fill="#4cbeed" stroke="#004785" stroke-miterlimit="10"/><path d="M79.65,488.81c1.64-2.18,7.12-36.88,7.12-36.88l1.74,32.29L86.22,500.1,75,491Z" fill="#4cbeed" stroke="#004785" stroke-miterlimit="10"/><path d="M131.57,440.32s.25,19.81,0,23.63-3.48,9.07-3.48,9.07,1,13.43,1.06,16.7-5.77,12.57-5.77,12.57L117.07,491l4.65-32.51Z" fill="#4cbeed" stroke="#004785" stroke-miterlimit="10"/><path d="M112.43,488.81c-1.64-2.18-7.12-36.88-7.12-36.88l-2.17,22.4,2.72,25.77,11.21-9.1Z" fill="#4cbeed" stroke="#004785" stroke-miterlimit="10"/><path d="M124.36,155.49l15.49,77.32s17.21-9.64,17.24-11a86,86,0,0,0,.22-19.24c-4.18-43.38-12-58.72-12-58.72s-2-6.83-10.54-.6C130.76,146.16,124.36,155.49,124.36,155.49Z" fill="#4cbeed" stroke="#004785" stroke-miterlimit="10"/><path d="M61.49,148.14,57,227.48s-21.19-5.68-21.18-5.71a103.28,103.28,0,0,1-1.25-31.94c5.74-43.2,6-40.77,6-40.77s5.5-15.37,14.9-10.5C59.8,140.82,61.49,148.14,61.49,148.14Z" fill="#4cbeed" stroke="#004785" stroke-miterlimit="10"/><path d="M133.87,130.72l2.46,1-1.64,59.5,0,.22.15,4,.06,1.6,6.94,57.25,1.81,12.84-6.23,6.84-7.6,1.48L103.32,282l-24-.54-25.47-6.48-6.2-13.82L51,249.39l5.87-46-2.91-13.59v-.46l.08-2.09.07-2,1.84-53.58,16.58-6.23,2.09-.57,1.76-.47,3.27-.87c3,9.36,7.68,15.94,12.59,18.81,3.47,2,7.06,2.19,10.29.17,4.13-2.58,7.66-8.76,9.53-19.21l.51.13,1.7.5Z" fill="#4cbeed" stroke="#004785" stroke-miterlimit="10"/><polygon points="112.18 134.9 119.41 141.4 119.41 124.8 115.39 123.01 109.23 117.81 109.02 132.59 100.77 143.38 109.34 140.78 112.18 134.9" fill="#4cbeed" stroke="#004785" stroke-miterlimit="10"/><polygon points="84.43 118.76 75.15 124.74 75.15 142.63 83.18 133.98 87.97 141.09 94.76 143.34 84.84 129.84 84.43 118.76" fill="#4cbeed" stroke="#004785" stroke-miterlimit="10"/><path d="M61.6,159.71l.71,23.86-4.12,16-4.91,20s-16.92,11.26-22.69,2.89c-1.06-1.55,1.56-30.74,2.55-39.84s3.59-31.27,9.79-39.83c7.08-9.77,13-11.08,13-11.08Z" fill="#4cbeed" stroke="#004785" stroke-miterlimit="10"/><path d="M82.33,215.05l1.48,12.75,47.47,5.71s26.11-.14,25.81-11.69c-.37-13.63-23.43-9.63-23.43-9.63l-19.41,1.41Z" fill="#4cbeed" stroke="#004785" stroke-miterlimit="10"/><polygon points="84.79 214.94 75.77 203.62 67.09 203.71 54.13 214.47 84.79 214.94" fill="#4cbeed" stroke="#004785" stroke-miterlimit="10"/><polygon points="50.96 210.86 55.96 229.51 68.5 232.81 84.95 227.78 84.79 214.94 69.17 207.65 58.31 209.07 50.96 210.86" fill="#4cbeed" stroke="#004785" stroke-miterlimit="10"/><polygon points="50.96 210.86 55.96 229.51 62.43 231.21 57.68 209.23 50.96 210.86" fill="#4cbeed" stroke="#004785" stroke-miterlimit="10" style="mix-blend-mode:multiply"/><path d="M85.51,228.83c-2.78-6.34-.09-14.33-.09-14.33l7.87-.26,1,15.27Z" fill="#4cbeed" stroke="#004785" stroke-miterlimit="10"/><path d="M89.73,222.88C88.76,214.2,92,214,92,214l52.52-1.81s15.72-2.19,16.5,5.24c1.32,12.61-5,17.42-23.56,17.8-6.4.12-46.72-5.58-46.72-5.58A56,56,0,0,1,89.73,222.88Z" fill="#4cbeed" stroke="#004785" stroke-miterlimit="10"/><polygon points="109.66 208.53 119.14 197.59 125.72 196.15 133.22 206.83 109.66 208.53" fill="#4cbeed" stroke="#004785" stroke-miterlimit="10"/><path d="M109.66,208.53,109,221.34l-47,8.61s-26.48,4.84-26.47-10.09c0-13.64,17.81-14.75,17.81-14.75l24.11,1.76Z" fill="#4cbeed" stroke="#004785" stroke-miterlimit="10"/><polygon points="143.63 205.85 137.85 224.28 125.18 227.06 108.95 221.34 109.66 208.53 125.56 201.88 136.36 203.76 143.63 205.85" fill="#4cbeed" stroke="#004785" stroke-miterlimit="10"/><path d="M107.42,222.89c2.57-6.71-.61-14.87-.61-14.87l-8.19.12L98.38,224Z" fill="#4cbeed" stroke="#004785" stroke-miterlimit="10"/><path d="M102.73,217.24c.57-9.05-2.36-9.82-2.36-9.82L47.65,204S30,211.82,30.37,221c.41,10.1,4.24,11.9,23.49,11.36,6.65-.19,48.21-8.13,48.21-8.13A58.51,58.51,0,0,0,102.73,217.24Z" fill="#4cbeed" stroke="#004785" stroke-miterlimit="10"/><path d="M129.74,159.44,129,183.29l4.39,12.63,5.63,24.3s15.93,10.31,21.7,1.94c1.07-1.55-1.56-30.74-2.55-39.84s-3.59-31.27-9.79-39.83c-7.08-9.77-13-11.08-13-11.08Z" fill="#4cbeed" stroke="#004785" stroke-miterlimit="10"/><path d="M83.67,58.82a76.84,76.84,0,0,1,12.67-.62c8.59.09,13.17.62,13.17.62" fill="#4cbeed" stroke="#004785" stroke-linecap="round" stroke-miterlimit="10"/><path d="M89.75,53.86a38.94,38.94,0,0,1,6.46-.32c4.38.05,6.72.32,6.72.32" fill="#4cbeed" stroke="#004785" stroke-linecap="round" stroke-miterlimit="10"/><path d="M289.07,534.37c0,8.16-36.9,14.79-82.42,14.79A378.14,378.14,0,0,1,155.83,546l.67-.1-.67-.1-.68.1.68.1A377.85,377.85,0,0,1,105,549.16c-45.52,0-82.41-6.63-82.41-14.79S59.48,519.61,105,519.61a376.36,376.36,0,0,1,50.83,3.14l-.68.1.68.1.67-.1-.67-.1a376.64,376.64,0,0,1,50.82-3.14C252.17,519.61,289.07,526.22,289.07,534.37Z" fill="#4cbeed" stroke="#004785" stroke-miterlimit="10" style="mix-blend-mode:multiply"/><path d="M155.83,545.81l.67.1-.67.1-.68-.1Z" fill="#4cbeed" stroke="#004785" stroke-miterlimit="10" style="mix-blend-mode:multiply"/><path d="M155.83,523l-.68-.1.68-.1.67.1Z" fill="#4cbeed" stroke="#004785" stroke-miterlimit="10" style="mix-blend-mode:multiply"/><path d="M155.83,545.81l.67.1-.67.1-.68-.1Z" fill="#4cbeed" stroke="#004785" stroke-miterlimit="10" style="mix-blend-mode:multiply"/><path d="M155.83,523l-.68-.1.68-.1.67.1Z" fill="#4cbeed" stroke="#004785" stroke-miterlimit="10" style="mix-blend-mode:multiply"/><path d="M192.64,509.2c-10,.26-11.23-11.48-13.33-18.45,0,0-10.53-51.78-9.29-77.62s7.81-25.84,14.77-25.84h0A12.69,12.69,0,0,1,197.45,400v90.8C197.45,497.72,198.19,509.05,192.64,509.2Z" fill="#4cbeed" stroke="#004785" stroke-miterlimit="10"/><path d="M221.11,510.53c9.78.86,11.07-12.81,13.17-19.78,0,0,9.68-51.78,8.45-77.62s-7.81-25.84-14.78-25.84h0A12.7,12.7,0,0,0,215.29,400v90.8C215.29,497.72,215.59,510,221.11,510.53Z" fill="#4cbeed" stroke="#004785" stroke-miterlimit="10"/><path d="M190.69,532.9S180.17,539.8,165,536s18.91-31.59,18.91-31.59.58-6.77,5-6.77,7.75,6.92,7.75,6.92l1,11.6S195.26,532,190.69,532.9Z" fill="#4cbeed" stroke="#004785" stroke-miterlimit="10"/><path d="M222.17,532.9s10.52,6.9,25.74,3.1S229,504.41,229,504.41s2.59-6.77-3.24-6.77-9.43,6.39-9.43,6.39l-1,12.13S217.6,532,222.17,532.9Z" fill="#4cbeed" stroke="#004785" stroke-miterlimit="10"/><path d="M198.51,520.83c-.24,1.68-2.43,6.61-3.94,8.92-3.13,4.78-8,7.21-19.15,8.48-10.33,1.18-22.38-.32-20.57-4.67a43,43,0,0,1,10.86-12.47,9.63,9.63,0,0,0,5.58,2.9c26.32,4.92,24.54-19.74,25.33-18.87S199.26,515.69,198.51,520.83Z" fill="#4cbeed" stroke="#004785" stroke-miterlimit="10"/><path d="M213.38,520.83c.24,1.68,2.43,5.86,3.94,8.17,3.12,4.78,8,8,19.15,9.23,10.33,1.18,22.38-.32,20.57-4.67a43.11,43.11,0,0,0-10.86-12.47,9.63,9.63,0,0,1-5.58,2.9c-26.32,4.92-23.52-20.28-24.32-19.41S212.63,515.69,213.38,520.83Z" fill="#4cbeed" stroke="#004785" stroke-miterlimit="10"/><path d="M192.35,118.12c0,.08,0,.17,0,.25a2,2,0,0,1-1,1.32c-4.35,2.62-20.51-8.8-21.62-38.93q-.15-3.69,0-7.76c.63-13.86,4.19-23.09,7.69-28.9,3.61-6,7.14-8.36,7.41-8.53-.25.89-10.3,35.49-5.94,52.4S193.58,112.09,192.35,118.12Z" fill="#4cbeed" stroke="#004785" stroke-miterlimit="10"/><path d="M226.06,118.24a3.75,3.75,0,0,1-2.65-.67c-3.91-3.62,4.38-6.27,8.79-23.4,1.58-6.12,1.63-15.71,1.05-25.48-.25-4.22-.62-8.47-1-12.49-.08-.83-.18-1.65-.27-2.45C230.67,42.15,229.11,33,229.11,33l.09.05.15.11a42.34,42.34,0,0,1,9.82,10l.11.14c2.52,3.64,4.29,6.43,5.45,11.78,1,4.34,1.51,10.34,1.76,19.81C247.43,109.4,232.6,118.06,226.06,118.24Z" fill="#4cbeed" stroke="#004785" stroke-miterlimit="10"/><path d="M191.33,119.69c-4.35,2.62-20.51-8.8-21.62-38.93q-.06-3.65,0-7.76c.34-13.87,4.19-23.09,7.69-28.9L178,63.52s-3.51.61-3.5,22C174.51,105.47,186.91,116.92,191.33,119.69Z" fill="#4cbeed" stroke="#004785" stroke-miterlimit="10"/><path d="M226.06,118.24c4-3.71,10-10.92,13-22.89,4.77-19-5.06-36.07-5.06-36.07s-.72-1.18-1.77-3.08c-.08-.83-.18-1.65-.27-2.45C230.67,42.15,229.11,33,229.11,33l.09.05.15.11a42.34,42.34,0,0,1,9.82,10l.11.14c2.52,3.64,4.29,6.43,5.45,11.78,1,4.34,1.51,10.34,1.76,19.81C247.43,109.4,232.6,118.06,226.06,118.24Z" fill="#4cbeed" stroke="#004785" stroke-miterlimit="10"/><path d="M217.22,103c0,.05,0,.18-.16.39,0,0,0,0,0,0a.7.7,0,0,0-.06.09c-1,1.35-3.94,5.13-10.64,5.13-7.22,0-11.23-5.38-10.66-5.55h.09c2.73-.35,7.35.85,10.56.83s8.64-1.08,10.56-.94A1.39,1.39,0,0,1,217.22,103Z" fill="#4cbeed" stroke="#004785" stroke-miterlimit="10" opacity="0.15"/><path d="M217.22,103s-.1.25-.16.39,0,0,0,0a.17.17,0,0,1-.06.09c-2.35.86-6.45,2.51-10.56,2.55S198,104,195.69,103h.09c2.73-.35,7.35.85,10.56.83s8.64-1.08,10.56-.94A1.39,1.39,0,0,1,217.22,103Z" fill="#4cbeed" stroke="#004785" stroke-miterlimit="10" opacity="0.15"/><path d="M231.62,252.7h-50.7c-4.55,0-8.27-3.42-8.27-7.59l-5.94-50.76c0-9.87,8.8-17.95,19.56-17.95H225.9c10.76,0,19.56,8.08,19.56,17.95l-5.56,50.76C239.9,249.28,236.17,252.7,231.62,252.7Z" fill="#4cbeed" stroke="#004785" stroke-miterlimit="10"/><path d="M246.49,260.78c-7.11,18.08-13.13,19.42-16.9,19.42h-47c-3.77,0-9.79-1.34-16.9-19.42-2.16-5.51,3.08-6.84,6.84-6.84h67.13C243.41,253.94,248.66,255.27,246.49,260.78Z" fill="#4cbeed" stroke="#004785" stroke-miterlimit="10"/><path d="M193,277.56V259a13.17,13.17,0,0,1,13.13-13.12h0A13.17,13.17,0,0,1,219.21,259v18.53c0,3.61-6.56,13.15-13.12,13.15S193,281.17,193,277.56Z" fill="#4cbeed" stroke="#004785" stroke-miterlimit="10"/><path d="M194.58,127.73a.46.46,0,0,1,0-.09.64.64,0,0,0,0-.07,9.6,9.6,0,0,1-.3-2.22V110.84a14.36,14.36,0,0,1,3.44-9.47,11.64,11.64,0,0,1,7-4l.36-.07c.44,0,.87-.07,1.32-.07h.07a9.6,9.6,0,0,1,1.41.13l.33,0a11.64,11.64,0,0,1,6.76,3.83,14.47,14.47,0,0,1,3.55,9.62v14.51a9.59,9.59,0,0,1-.14,1.62s-1.88,8.05-12,8.24S194.58,127.73,194.58,127.73Z" fill="#4cbeed" stroke="#004785" stroke-miterlimit="10"/><path d="M195.17,79.87A2.57,2.57,0,1,1,192.62,77,2.7,2.7,0,0,1,195.17,79.87Z" fill="#4cbeed" stroke="#004785" stroke-miterlimit="10"/><path d="M223.41,79.87A2.57,2.57,0,1,1,220.85,77,2.7,2.7,0,0,1,223.41,79.87Z" fill="#4cbeed" stroke="#004785" stroke-miterlimit="10"/><path d="M208.07,97.68H204.6a1.19,1.19,0,0,1-1.19-1.2l.5-17.24a2.73,2.73,0,0,1,2.42-2.93h0c1.28,0,2.07,1.32,2.07,2.93l.86,17.24A1.2,1.2,0,0,1,208.07,97.68Z" fill="#4cbeed" stroke="#004785" stroke-miterlimit="10"/><path d="M195.17,101.2s6.49,6.67,15.61,5.8Z" fill="#4cbeed" stroke="#004785" stroke-miterlimit="10"/><circle cx="191.53" cy="88.52" r="5.82" fill="#4cbeed" stroke="#004785" stroke-miterlimit="10" opacity="0.15"/><circle cx="221.5" cy="88.52" r="5.82" fill="#4cbeed" stroke="#004785" stroke-miterlimit="10" opacity="0.15"/><rect x="187.65" y="72.34" width="9.93" height="1.49" rx="0.75" fill="#4cbeed" stroke="#004785" stroke-miterlimit="10"/><rect x="215.89" y="72.6" width="9.93" height="1.49" rx="0.75" fill="#4cbeed" stroke="#004785" stroke-miterlimit="10"/><path d="M187.47,398.76l-6.56.35c-9.37,0-10.47-6.92-10.47-14.94l-6.56-101.26c0-8,7.66-14.6,17-14.6h0c9.36,0,22.51,3.85,22.51,11.88l-5.49,104.32C197.93,392.54,196.83,398.76,187.47,398.76Z" fill="#4cbeed" stroke="#004785" stroke-miterlimit="10"/><path d="M224.7,398.76l6.57.35c9.36,0,10.46-6.92,10.46-14.94l6.56-101.26c0-8-7.66-14.6-17-14.6h0c-9.37,0-22.52,3.85-22.52,11.88l5.49,104.32C214.24,392.54,215.34,398.76,224.7,398.76Z" fill="#4cbeed" stroke="#004785" stroke-miterlimit="10"/><path d="M231.62,252.7h-50.7c-4.55,0-8.27-3.42-8.27-7.59l-5.94-50.76c0-9.87,8.8-17.95,19.56-17.95H225.9c10.76,0,19.56,8.08,19.56,17.95l-5.56,50.76C239.9,249.28,236.17,252.7,231.62,252.7Z" fill="#4cbeed" stroke="#004785" stroke-miterlimit="10"/><path d="M206.23,218c-13.27,0-39.52-7.72-39.52-25L163,143c0-4.91,4.58-8.92,10.19-8.92,0,0,9.43-10,32-10s34.19,10,34.19,10c5.38,0,9.78,3.85,9.78,8.57L245.28,192C245.28,209.23,219.5,218,206.23,218Z" fill="#4cbeed" stroke="#004785" stroke-miterlimit="10"/><path d="M246.49,260.78c-7.11,18.08-13.13,19.42-16.9,19.42h-47c-3.77,0-9.79-1.34-16.9-19.42-2.16-5.51,3.08-6.84,6.84-6.84h67.13C243.41,253.94,248.66,255.27,246.49,260.78Z" fill="#4cbeed" stroke="#004785" stroke-miterlimit="10"/><path d="M193,277.56V259a13.17,13.17,0,0,1,13.13-13.12h0A13.17,13.17,0,0,1,219.21,259v18.53c0,3.61-6.56,13.15-13.12,13.15S193,281.17,193,277.56Z" fill="#4cbeed" stroke="#004785" stroke-miterlimit="10"/><path d="M194.58,127.73a.46.46,0,0,1,0-.09.64.64,0,0,0,0-.07,9.6,9.6,0,0,1-.3-2.22V110.84a14.36,14.36,0,0,1,3.44-9.47,11.64,11.64,0,0,1,7-4l.36-.07c.44,0,.87-.07,1.32-.07h.07a9.6,9.6,0,0,1,1.41.13l.33,0a11.64,11.64,0,0,1,6.76,3.83,14.47,14.47,0,0,1,3.55,9.62v14.51a9.59,9.59,0,0,1-.14,1.62s-1.88,8.05-12,8.24S194.58,127.73,194.58,127.73Z" fill="#4cbeed" stroke="#004785" stroke-miterlimit="10"/><path d="M182.35,75.72c1,5.66-2.18,11.56-5.62,12.19s-7.07-3.44-8.11-9.1.9-10.76,4.34-11.4S181.31,70.06,182.35,75.72Z" fill="#4cbeed" stroke="#004785" stroke-miterlimit="10"/><ellipse cx="178.53" cy="78.22" rx="6.33" ry="8.83" transform="translate(-16.38 76.84) rotate(-23.25)" fill="#4cbeed" stroke="#004785" stroke-miterlimit="10"/><path d="M243.72,79.16c-.67,5.59-3.58,9-7.6,8.86s-4-2.92-4.29-6.88a17.79,17.79,0,0,1,.07-3.33,14.75,14.75,0,0,1,1.9-5.94A7.18,7.18,0,0,1,237,68.69a3.71,3.71,0,0,1,1.92-.33C242.23,68.75,244.36,73.59,243.72,79.16Z" fill="#4cbeed" stroke="#004785" stroke-miterlimit="10"/><path d="M227.77,76.38c-1.93,4.48-.89,9,2.33,10.34s7.37-.86,9.3-5.34.88-9.24-2.33-10.62S229.69,71.89,227.77,76.38Z" fill="#4cbeed" stroke="#004785" stroke-miterlimit="10"/><path d="M236.87,75.25c0,1.08,0,2.15,0,3.23a49.75,49.75,0,0,1-5.08,23c-4,8.19-17.42,18.28-25.64,18.28-8.41,0-20.51-6.22-25-17.32a68.9,68.9,0,0,1-5-22.56c-.11-3-.24-6.09-.26-9.16a64.42,64.42,0,0,1,1.51-15.62c1.57-6.39,4.58-12.69,9.8-16.69,5.64-4.35,14.32-5.7,21.32-5.62,7.24.09,13.87,2.48,17.37,5.24,4.93,3.89,7.22,9.48,8.93,15.51C236.8,60.71,236.89,67.88,236.87,75.25Z" fill="#4cbeed" stroke="#004785" stroke-miterlimit="10"/><path d="M195.17,79.86a2.69,2.69,0,0,1-2.56,2.83,2.48,2.48,0,0,1-2-1.13,3,3,0,0,1-.51-1.7A2.71,2.71,0,0,1,192.61,77a2.35,2.35,0,0,1,1.78.81A2.89,2.89,0,0,1,195.17,79.86Z" fill="#4cbeed" stroke="#004785" stroke-miterlimit="10"/><path d="M223.41,79.87A2.57,2.57,0,1,1,220.85,77,2.7,2.7,0,0,1,223.41,79.87Z" fill="#4cbeed" stroke="#004785" stroke-miterlimit="10"/><path d="M206.55,98.42c-2.23,0-2.29-2.47-2.29-4.9s-.1-17.75,2-17.75S208.6,91,208.6,93.49,208.78,98.42,206.55,98.42Z" fill="#4cbeed" stroke="#004785" stroke-miterlimit="10"/><g style="mix-blend-mode:multiply"><circle cx="191.53" cy="88.52" r="5.82" fill="#4cbeed" opacity="0.15"/><circle cx="221.5" cy="88.52" r="5.82" fill="#4cbeed" opacity="0.15"/></g><path d="M197.12,73.45l-10.05.62c-.44,0,.44-2.77,2.57-2.9l7.43-.45c.43,0,.8.56.81,1.32h0C197.9,72.79,197.55,73.43,197.12,73.45Z" fill="#4cbeed" stroke="#004785" stroke-miterlimit="10"/><path d="M215.91,73.45l10.06.62c.43,0-.45-2.77-2.57-2.9L216,70.72c-.43,0-.79.56-.81,1.32h0C215.14,72.79,215.48,73.43,215.91,73.45Z" fill="#4cbeed" stroke="#004785" stroke-miterlimit="10"/><path d="M177.72,157.43l-30.17,78.48s-14.79-4.3-15.7-4.85c-1.95-11.57,4.46-23.37,7.38-33.8C150.83,155.5,160.75,142,160.75,142s12.09-14.08,18.76-6.31C182.62,139.29,177.72,157.43,177.72,157.43Z" fill="#4cbeed" stroke="#004785" stroke-miterlimit="10"/><polygon points="180.03 281.12 193.49 284.37 197.86 289.45 190.38 296.4 180.03 281.12" fill="#4cbeed" stroke="#004785" stroke-miterlimit="10"/><path d="M180,281.12l-10.69,5.27L139.46,249.3s-13.88-22.09-4.75-27.75c10.77-6.67,20,14.82,20,14.82l9.3,17.1Z" fill="#4cbeed" stroke="#004785" stroke-miterlimit="10"/><polygon points="198.75 309.54 181.06 312.97 172.64 303.19 169.34 286.39 180.03 281.12 193.15 291.95 196.89 302.24 198.75 309.54" fill="#4cbeed" stroke="#004785" stroke-miterlimit="10"/><polygon points="198.75 309.54 181.06 312.97 176.72 307.92 197.04 302.86 198.75 309.54" fill="#4cbeed" stroke="#004785" stroke-miterlimit="10" style="mix-blend-mode:multiply"/><path d="M235,157.43l30.17,78.48c1.56,3,16.11-7.93,14.89-12.25-2.2-13.29-3.65-16-6.57-26.4C261.91,155.5,252,142,252,142s-12.09-14.08-18.76-6.31C230.13,139.29,235,157.43,235,157.43Z" fill="#4cbeed" stroke="#004785" stroke-miterlimit="10"/><polygon points="228.94 276.38 215.33 278.93 210.7 283.78 217.81 291.11 228.94 276.38" fill="#4cbeed" stroke="#004785" stroke-miterlimit="10"/><path d="M228.94,276.38l10.4,5.82,31.77-35.49s15.2-21.33,6.37-27.46c-10.41-7.22-21,13.76-21,13.76l-10.19,16.58Z" fill="#4cbeed" stroke="#004785" stroke-miterlimit="10"/><polygon points="208.76 303.79 226.25 308.13 235.17 298.8 239.34 282.2 228.94 276.38 215.27 286.51 211 296.59 208.76 303.79" fill="#4cbeed" stroke="#004785" stroke-miterlimit="10"/><polygon points="208.76 303.79 226.25 308.13 230.86 303.32 210.82 297.21 208.76 303.79" fill="#4cbeed" stroke="#004785" stroke-miterlimit="10" style="mix-blend-mode:multiply"/><path d="M187.47,398.76l-6.56.35c-9.37,0-10.47-6.92-10.47-14.94l-6.56-101.26c0-8,7.66-14.6,17-14.6h0c9.36,0,22.51,3.85,22.51,11.88l-5.49,104.32C197.93,392.54,196.83,398.76,187.47,398.76Z" fill="#4cbeed" stroke="#004785" stroke-miterlimit="10"/><path d="M224.7,398.76l6.57.35c9.36,0,10.46-6.92,10.46-14.94l6.56-101.26c0-8-7.66-14.6-17-14.6h0c-9.37,0-22.52,3.85-22.52,11.88l5.49,104.32C214.24,392.54,215.34,398.76,224.7,398.76Z" fill="#4cbeed" stroke="#004785" stroke-miterlimit="10"/><path d="M217,103.46c-2.35.86-6.45,2.51-10.56,2.55S198,104,195.69,103h.09" fill="#4cbeed" stroke="#004785" stroke-linecap="round" stroke-linejoin="round"/><line x1="183.15" y1="77.66" x2="187.94" y2="78.75" fill="#4cbeed" stroke="#004785" stroke-miterlimit="10"/><line x1="183.92" y1="80.79" x2="187.94" y2="80.79" fill="#4cbeed" stroke="#004785" stroke-miterlimit="10"/><line x1="229.55" y1="77.66" x2="224.76" y2="78.75" fill="#4cbeed" stroke="#004785" stroke-miterlimit="10"/><line x1="228.77" y1="80.79" x2="224.76" y2="80.79" fill="#4cbeed" stroke="#004785" stroke-miterlimit="10"/><path d="M175.85,67.69c-4.72-14.1-.71-23.85,8.07-31.38,9.72-8.34,22.17-6.18,22.17-6.18C208.6,46.36,175.85,67.69,175.85,67.69Z" fill="#4cbeed" stroke="#004785" stroke-miterlimit="10"/><path d="M233.25,68.69a35,35,0,0,1-6.89-1.43A64.71,64.71,0,0,1,220.19,65c-22.86-9.6-24.59-29.61-15.5-35,6.71-2.55,16.31-2,24.42,3l.09.05.15.11a29.65,29.65,0,0,1,9.82,10,31.91,31.91,0,0,1,2.7,5.53,45.22,45.22,0,0,1,2,6.41C246.12,65.54,241.59,69.5,233.25,68.69Z" fill="#4cbeed" stroke="#004785" stroke-miterlimit="10"/><path d="M197.24,408.92s-4.9,2.48-16.55,2.48S169,398.72,169,390.53L162.82,301l.49-15.5c0-8.19,7.82-14.89,17.38-14.89h0c9.55,0,26,14.66,26,22.85l-5.82,93.17C200.84,394.85,197.24,408.92,197.24,408.92Z" fill="#4cbeed" stroke="#004785" stroke-miterlimit="10"/><path d="M215.51,406.86c5.49,2.22,9.94,15.39,20.77,4.54,6-4.13,7.44-14.38,7.44-22.57l5.71-103.3c0-8.19-7.81-14.89-17.37-14.89h0c-9.55,0-25.4,16.61-25.4,24.8l3.65,91.22C210.31,394.85,215.51,406.86,215.51,406.86Z" fill="#4cbeed" stroke="#004785" stroke-miterlimit="10"/><path d="M248.08,302.26,162.82,301c0-.63.09-3.85.14-8.34,0-2.18-1.44-40,2-39.6,21.25,2.59,83.47,2.62,83.47,2.62l2.22,26.2Z" fill="#4cbeed" stroke="#004785" stroke-miterlimit="10"/><polygon points="197.26 281.4 197.17 282.57 195.7 300.83 195.69 318.65 184.02 317.85 171.9 316.49 163.2 315.51 162.42 284.52 162.38 282.74 162.16 273.92 179.36 272.96 196.74 271.75 197.25 281.01 197.26 281.4" fill="#4cbeed" stroke="#004785" stroke-miterlimit="10" style="mix-blend-mode:multiply"/><polygon points="196.62 282.76 196.62 284.93 179.79 284.44 162.42 284.52 162.38 282.74 179.79 282.38 196.62 282.76" fill="#4cbeed" stroke="#004785" stroke-miterlimit="10"/><polygon points="249.95 280.28 249.86 281.46 248.39 299.72 248.39 317.12 234.07 317.81 223.81 318.97 217.2 318.97 216.51 271.84 232.05 271.84 249.43 270.63 249.94 279.9 249.95 280.28" fill="#4cbeed" stroke="#004785" stroke-miterlimit="10" style="mix-blend-mode:multiply"/><rect x="224.33" y="152.48" width="8.54" height="3.97" fill="#4cbeed" stroke="#004785" stroke-miterlimit="10"/><rect x="224.33" y="157.43" width="8.54" height="1.49" fill="#4cbeed" stroke="#004785" stroke-miterlimit="10"/><path d="M197.24,408.92s-1.93,4.19-13.59,4.19S169,398.72,169,390.53L162.82,301l.49-15.5c0-8.19,7.82-14.89,17.38-14.89h0c9.55,0,26,14.66,26,22.85l-5.82,93.17C200.84,394.85,197.24,408.92,197.24,408.92Z" fill="#4cbeed" stroke="#004785" stroke-miterlimit="10"/><path d="M215.51,406.86c3.7,6.25,9.94,15.39,20.77,4.54,6-4.13,7.44-14.38,7.44-22.57l5.71-103.3c0-8.19-7.81-14.89-17.37-14.89h0c-9.55,0-25.4,16.61-25.4,24.8l3.65,91.22C210.31,394.85,215.51,406.86,215.51,406.86Z" fill="#4cbeed" stroke="#004785" stroke-miterlimit="10"/><path d="M248.08,302.26,162.82,301c0-.63.09-3.85.14-8.34,0-2.18-1.44-40,2-39.6,21.25,2.59,83.47,2.62,83.47,2.62l2.22,26.2Z" fill="#4cbeed" stroke="#004785" stroke-miterlimit="10"/><path d="M247,201.94l0-.85,33.66-7.3-3.83-7.9-1-2L254.5,140l-6-5.18-.93-.36h0l-1.64-.65-11.67-4.56-11-3.13-16,41.49s-16.52-38.15-17.73-41.26l-7.4,2-17.23,6.48h0L158.24,140l-21.34,43.9-1,2-3.83,7.9,30.71,6.66h0l.2,52.65-2.4,24.58-.33,156.05,2.23,1.11,11,5.5s9.31,1.54,37.13,1.54,39.37-6.9,39.37-6.9l2-154.43-3.79-38.62Z" fill="#4cbeed" stroke="#004785" stroke-miterlimit="10"/><path d="M162.66,227.48c.29-.36,31.57-4,31.57-4l12.43,3.54,27.8,3.65L247.71,224l.28,8.77-13.53,3.61-27.8-3.61-14-4.21-30,6.58Z" fill="#4cbeed" stroke="#004785" stroke-miterlimit="10"/><path d="M188.76,83.4a3.43,3.43,0,0,0,3.66,1.87c2.87-.21,3.7-1.87,3.7-1.87" fill="none" stroke="#004785" stroke-linecap="round" stroke-linejoin="round"/><path d="M217.17,83.4a3.43,3.43,0,0,0,3.66,1.87c2.88-.21,3.71-1.87,3.71-1.87" fill="none" stroke="#004785" stroke-linecap="round" stroke-linejoin="round"/><path d="M199.34,121.47a11.73,11.73,0,0,0,7.28,1.51,13.58,13.58,0,0,0,6.95-2.42" fill="none" stroke="#004785" stroke-linecap="round" stroke-linejoin="round"/></g><path d="M152.4,1A151.4,151.4,0,0,1,259.46,259.46,151.4,151.4,0,1,1,45.35,45.35,150.37,150.37,0,0,1,152.4,1m0-1A152.41,152.41,0,1,0,304.81,152.4,152.4,152.4,0,0,0,152.4,0Z" fill="#004785"/></g></svg>