<svg xmlns="http://www.w3.org/2000/svg" width="512.44" height="223.82" viewBox="0 0 512.44 223.82"><polygon points="440.98 188.33 0 188.33 63.21 118.23 0 48.12 440.98 48.12 504.19 118.23 440.98 188.33" fill="#e6e6e6"/><polygon points="448.56 180.75 7.58 180.75 70.79 110.64 7.58 40.54 448.56 40.54 511.77 110.64 448.56 180.75" fill="none" stroke="#4cbeed" stroke-miterlimit="10"/><line x1="7.58" y1="0.5" x2="41.88" y2="0.5" fill="none" stroke="#fff" stroke-miterlimit="10"/><line x1="433.49" y1="0.5" x2="467.79" y2="0.5" fill="none" stroke="#fff" stroke-miterlimit="10"/><line x1="306.4" y1="0.5" x2="409.62" y2="0.5" fill="none" stroke="#fff" stroke-miterlimit="10"/><line x1="284.95" y1="0.5" x2="301.13" y2="0.5" fill="none" stroke="#fff" stroke-miterlimit="10"/><line x1="53.94" y1="0.5" x2="220.26" y2="0.5" fill="none" stroke="#fff" stroke-miterlimit="10"/><line x1="73.52" y1="21.08" x2="239.84" y2="21.08" fill="none" stroke="#fff" stroke-miterlimit="10"/><line x1="254" y1="21.08" x2="288.43" y2="21.08" fill="none" stroke="#fff" stroke-miterlimit="10"/><line x1="313.89" y1="21.08" x2="348.32" y2="21.08" fill="none" stroke="#fff" stroke-miterlimit="10"/><line x1="7.58" y1="203.17" x2="41.88" y2="203.17" fill="none" stroke="#fff" stroke-miterlimit="10"/><line x1="433.49" y1="203.17" x2="467.79" y2="203.17" fill="none" stroke="#fff" stroke-miterlimit="10"/><line x1="306.4" y1="203.17" x2="409.62" y2="203.17" fill="none" stroke="#fff" stroke-miterlimit="10"/><line x1="284.95" y1="203.17" x2="301.13" y2="203.17" fill="none" stroke="#fff" stroke-miterlimit="10"/><line x1="53.94" y1="203.17" x2="220.26" y2="203.17" fill="none" stroke="#fff" stroke-miterlimit="10"/><line x1="73.52" y1="223.32" x2="239.84" y2="223.32" fill="none" stroke="#fff" stroke-miterlimit="10"/><line x1="254" y1="223.32" x2="288.43" y2="223.32" fill="none" stroke="#fff" stroke-miterlimit="10"/><line x1="313.89" y1="223.32" x2="348.32" y2="223.32" fill="none" stroke="#fff" stroke-miterlimit="10"/></svg>