<svg xmlns="http://www.w3.org/2000/svg" xmlns:xlink="http://www.w3.org/1999/xlink" width="385.49" height="590" viewBox="0 0 385.49 590"><defs><clipPath id="a"><circle cx="192.74" cy="192.74" r="152.4" fill="none"/></clipPath></defs><g style="isolation:isolate"><circle cx="192.74" cy="192.74" r="152.4" fill="#4cbeed"/><g clip-path="url(#a)"><path d="M162.22,289.73h-50.7c-4.55,0-8.28-3.42-8.28-7.59L97.3,231.38c0-9.87,8.81-17.95,19.57-17.95h39.62c10.76,0,19.57,8.08,19.57,17.95l-5.57,50.76C170.49,286.31,166.77,289.73,162.22,289.73Z" fill="#4cbeed" stroke="#004785" stroke-miterlimit="10"/><path d="M143.91,255H129.45c-19.72,0-35.85-14.13-35.85-31.41V180c0-4.91,4.58-8.92,10.18-8.92,0,0,10.59-8,33.17-8s33,8,33,8c5.38,0,9.78,3.85,9.78,8.57v43.92C179.76,240.89,163.63,255,143.91,255Z" fill="#4cbeed" stroke="#004785" stroke-miterlimit="10"/><path d="M177.08,297.81c-7.11,18.08-13.12,19.42-16.9,19.42h-47c-3.78,0-9.79-1.34-16.91-19.42-2.16-5.52,3.09-6.84,6.85-6.84h67.12C174,291,179.25,292.29,177.08,297.81Z" fill="#4cbeed" stroke="#004785" stroke-miterlimit="10"/><path d="M123.56,314.59V296.06a13.15,13.15,0,0,1,13.12-13.12h0a13.15,13.15,0,0,1,13.12,13.12v18.53c0,3.6-6.56,13.15-13.12,13.15S123.56,318.19,123.56,314.59Z" fill="#4cbeed" stroke="#004785" stroke-miterlimit="10"/><path d="M125.17,164.75a.69.69,0,0,1,0-.08s0-.06,0-.08a9,9,0,0,1-.31-2.22v-14.5a14.39,14.39,0,0,1,3.44-9.47,11.67,11.67,0,0,1,7-4l.36-.07c.45,0,.88-.07,1.32-.07H137a9.58,9.58,0,0,1,1.41.12l.33.06a11.71,11.71,0,0,1,6.77,3.82,14.49,14.49,0,0,1,3.55,9.63v14.5a10.88,10.88,0,0,1-.14,1.63s-1.88,8.05-12,8.24S125.17,164.75,125.17,164.75Z" fill="#4cbeed" stroke="#004785" stroke-miterlimit="10"/><ellipse cx="105.44" cy="114.69" rx="6.33" ry="10.42" transform="translate(-19.03 21) rotate(-10.44)" fill="#4cbeed" stroke="#004785" stroke-miterlimit="10"/><ellipse cx="107.13" cy="115.25" rx="6.33" ry="8.83" transform="translate(-36.8 51.66) rotate(-23.25)" fill="#4cbeed" stroke="#004785" stroke-miterlimit="10" style="mix-blend-mode:multiply"/><path d="M125.77,116.89a2.57,2.57,0,1,1-2.56-2.83A2.71,2.71,0,0,1,125.77,116.89Z" fill="#4cbeed" stroke="#004785" stroke-miterlimit="10"/><path d="M154,116.89a2.57,2.57,0,1,1-2.55-2.83A2.7,2.7,0,0,1,154,116.89Z" fill="#4cbeed" stroke="#004785" stroke-miterlimit="10"/><path d="M138.66,134.7H135.2a1.19,1.19,0,0,1-1.2-1.19l.51-17.24a2.72,2.72,0,0,1,2.42-2.93h0c1.28,0,2.07,1.32,2.07,2.93l.86,17.24A1.19,1.19,0,0,1,138.66,134.7Z" fill="#4cbeed" stroke="#004785" stroke-miterlimit="10"/><path d="M125.77,138.23s6.49,6.66,15.61,5.8Z" fill="#4cbeed" stroke="#004785" stroke-miterlimit="10"/><circle cx="122.13" cy="125.55" r="5.82" fill="#4cbeed" stroke="#004785" stroke-miterlimit="10" opacity="0.15"/><circle cx="152.1" cy="125.55" r="5.82" fill="#4cbeed" stroke="#004785" stroke-miterlimit="10" opacity="0.15"/><rect x="118.25" y="109.37" width="9.93" height="1.49" rx="0.75" fill="#4cbeed" stroke="#004785" stroke-miterlimit="10"/><rect x="146.48" y="109.63" width="9.93" height="1.49" rx="0.75" fill="#4cbeed" stroke="#004785" stroke-miterlimit="10"/><path d="M121.52,543.68c-10,.26-10.75-9.13-12.86-16.12,0,0-9.72-52-8.48-77.93S108,423.69,115,423.69h0a12.75,12.75,0,0,1,12.71,12.71v91.16C127.73,534.55,127.08,543.53,121.52,543.68Z" fill="#4cbeed" stroke="#004785" stroke-miterlimit="10"/><path d="M118.06,435.79l-6.56.35c-9.36,0-10.47-6.92-10.47-14.95L94.47,319.94c0-8,7.67-14.6,17-14.6h0c9.37,0,22.52,3.85,22.52,11.88l-5.49,104.32C128.53,429.57,127.43,435.79,118.06,435.79Z" fill="#4cbeed" stroke="#004785" stroke-miterlimit="10"/><path d="M152.13,543.68c9.82.86,10.46-9.13,12.57-16.12,0,0,9.72-52,8.47-77.93s-7.83-25.94-14.83-25.94h0a12.75,12.75,0,0,0-12.71,12.71v91.16C145.63,534.55,146.59,543.19,152.13,543.68Z" fill="#4cbeed" stroke="#004785" stroke-miterlimit="10"/><path d="M155.3,435.79l6.56.35c9.36,0,10.47-6.92,10.47-14.95l6.56-101.25c0-8-7.67-14.6-17-14.6h0c-9.37,0-22.52,3.85-22.52,11.88l5.49,104.32C144.83,429.57,145.93,435.79,155.3,435.79Z" fill="#4cbeed" stroke="#004785" stroke-miterlimit="10"/><path d="M162.22,289.73h-50.7c-4.55,0-8.28-3.42-8.28-7.59L97.3,231.38c0-9.87,8.81-17.95,19.57-17.95h39.62c10.76,0,19.57,8.08,19.57,17.95l-5.57,50.76C170.49,286.31,166.77,289.73,162.22,289.73Z" fill="#4cbeed" stroke="#004785" stroke-miterlimit="10"/><path d="M143.91,255H129.45c-19.72,0-35.85-14.13-35.85-31.41V180c0-4.91,4.58-8.92,10.18-8.92,0,0,10.57-9,33.15-9s33,9,33,9c5.38,0,9.78,3.85,9.78,8.57v43.92C179.76,240.89,163.63,255,143.91,255Z" fill="#4cbeed" stroke="#004785" stroke-miterlimit="10"/><path d="M177.08,297.81c-7.11,18.08-13.12,19.42-16.9,19.42h-47c-3.78,0-9.79-1.34-16.91-19.42-2.16-5.52,3.09-6.84,6.85-6.84h67.12C174,291,179.25,292.29,177.08,297.81Z" fill="#4cbeed" stroke="#004785" stroke-miterlimit="10"/><path d="M123.56,314.59V296.06a13.15,13.15,0,0,1,13.12-13.12h0a13.15,13.15,0,0,1,13.12,13.12v18.53c0,3.6-6.56,13.15-13.12,13.15S123.56,318.19,123.56,314.59Z" fill="#4cbeed" stroke="#004785" stroke-miterlimit="10"/><path d="M125.17,164.75a.69.69,0,0,1,0-.08s0-.06,0-.08a9,9,0,0,1-.31-2.22v-14.5a14.39,14.39,0,0,1,3.44-9.47,11.67,11.67,0,0,1,7-4l.36-.07c.45,0,.88-.07,1.32-.07H137a9.58,9.58,0,0,1,1.41.12l.33.06a11.71,11.71,0,0,1,6.77,3.82,14.49,14.49,0,0,1,3.55,9.63v14.5a10.88,10.88,0,0,1-.14,1.63s-1.88,8.05-12,8.24S125.17,164.75,125.17,164.75Z" fill="#4cbeed" stroke="#004785" stroke-miterlimit="10"/><ellipse cx="105.44" cy="114.69" rx="6.33" ry="10.42" transform="translate(-19.03 21) rotate(-10.44)" fill="#4cbeed" stroke="#004785" stroke-miterlimit="10"/><ellipse cx="109.13" cy="115.25" rx="6.33" ry="8.83" transform="translate(-36.64 52.45) rotate(-23.25)" fill="#4cbeed" stroke="#004785" stroke-miterlimit="10"/><path d="M174.69,116.41c-.48,5.91-5.23,9-8.49,8.64-1.15-.2-3.44-2.92-3.78-6.88-.07-1.06,2.22-11.79,3.42-12.28a8.65,8.65,0,0,1,3.7-.5C172.82,105.77,175.14,110.82,174.69,116.41Z" fill="#4cbeed" stroke="#004785" stroke-miterlimit="10"/><path d="M158.15,112.85c-1.93,4.48-.88,9.23,2.33,10.61S170,124,171,117.85c.74-4.82-.32-9.24-3.54-10.62S160.07,108.37,158.15,112.85Z" fill="#4cbeed" stroke="#004785" stroke-miterlimit="10"/><path d="M166.34,129.12c-1.71,5.77-3.76,11.56-7.22,16.51-3.61,5.15-11.32,12.8-20.59,12.66C126.06,158.1,116,150,110.9,139.4a53.14,53.14,0,0,1-5.1-23.21c0-1.71,0-3.35,0-5,.16-6.71.62-13.58,2.38-20.08,1.64-6,4.65-12.07,9.78-15.87,5.46-4,13.32-5.63,20-5.39,5.75.21,11.43.55,16.42,3.41s8,9.12,9.93,14.31a64,64,0,0,1,3.27,18.15S167.86,124,166.34,129.12Z" fill="#4cbeed" stroke="#004785" stroke-miterlimit="10"/><path d="M125.77,116.89a2.57,2.57,0,1,1-2.56-2.83A2.71,2.71,0,0,1,125.77,116.89Z" fill="#4cbeed" stroke="#004785" stroke-miterlimit="10"/><path d="M154,116.89a2.57,2.57,0,1,1-2.55-2.83A2.7,2.7,0,0,1,154,116.89Z" fill="#4cbeed" stroke="#004785" stroke-miterlimit="10"/><path d="M138.66,134.7H135.2a1.19,1.19,0,0,1-1.2-1.19l.51-17.24a2.72,2.72,0,0,1,2.42-2.93h0c1.28,0,2.07,1.32,2.07,2.93l.86,17.24A1.19,1.19,0,0,1,138.66,134.7Z" fill="#4cbeed" stroke="#004785" stroke-miterlimit="10"/><circle cx="122.13" cy="126.55" r="5.82" fill="#4cbeed" opacity="0.15" style="mix-blend-mode:multiply"/><circle cx="152.1" cy="126.55" r="5.82" fill="#4cbeed" opacity="0.15" style="mix-blend-mode:multiply"/><rect x="118.25" y="107.57" width="9.93" height="3.03" rx="1.06" fill="#4cbeed" stroke="#004785" stroke-miterlimit="10"/><rect x="146.48" y="108.09" width="9.93" height="3.03" rx="1.06" fill="#4cbeed" stroke="#004785" stroke-miterlimit="10"/><path d="M121.61,570.25a37.71,37.71,0,0,1-27.49,4.1C78.85,570.54,115.69,540,115.69,540l11.11-5s.46,14.29.24,18.52S125.44,565.94,121.61,570.25Z" fill="#4cbeed" stroke="#004785" stroke-miterlimit="10"/><path d="M151.83,570.25a37.67,37.67,0,0,0,27.48,4.1c15.28-3.81-21.56-34.38-21.56-34.38l-11.12-5s-.46,14.29-.24,18.52S148,565.94,151.83,570.25Z" fill="#4cbeed" stroke="#004785" stroke-miterlimit="10"/><path d="M121.52,543.68c-10,.26-10.75-9.13-12.86-16.12,0,0-9.72-52-8.48-77.93S108,423.69,115,423.69h0a12.75,12.75,0,0,1,12.71,12.71v91.16C127.73,534.55,127.08,543.53,121.52,543.68Z" fill="#4cbeed" stroke="#004785" stroke-miterlimit="10"/><path d="M118.06,435.79l-6.56.35c-9.36,0-10.47-6.92-10.47-14.95L94.47,319.94c0-8,7.67-14.6,17-14.6h0c9.37,0,22.52,3.85,22.52,11.88l-5.49,104.32C128.53,429.57,127.43,435.79,118.06,435.79Z" fill="#4cbeed" stroke="#004785" stroke-miterlimit="10"/><path d="M152.13,543.68c9.82.86,10.46-9.13,12.57-16.12,0,0,9.72-52,8.47-77.93s-7.83-25.94-14.83-25.94h0a12.75,12.75,0,0,0-12.71,12.71v91.16C145.63,534.55,146.59,543.19,152.13,543.68Z" fill="#4cbeed" stroke="#004785" stroke-miterlimit="10"/><path d="M155.3,435.79l6.56.35c9.36,0,10.47-6.92,10.47-14.95l6.56-101.25c0-8-7.67-14.6-17-14.6h0c-9.37,0-22.52,3.85-22.52,11.88l5.49,104.32C144.83,429.57,145.93,435.79,155.3,435.79Z" fill="#4cbeed" stroke="#004785" stroke-miterlimit="10"/><polygon points="124.01 136.34 136.74 135.23 149.23 135.99 149.85 143.43 145.59 140.83 141.44 143.63 137 140.32 131.93 143.14 128.41 140.56 124.01 143.14 124.01 136.34" fill="#4cbeed" stroke="#004785" stroke-miterlimit="10"/><polygon points="105.64 130.06 110.21 131.66 107.92 115.73 109.73 117.62 107.67 99.26 105.96 98.53 104.65 114.69 105.64 130.06" fill="#4cbeed" stroke="#004785" stroke-miterlimit="10"/><polygon points="167.98 130.06 163.42 131.66 165.7 115.73 163.89 117.62 165.96 99.26 167.66 98.53 168.98 114.69 167.98 130.06" fill="#4cbeed" stroke="#004785" stroke-miterlimit="10"/><line x1="135.44" y1="147.59" x2="135.44" y2="150.18" fill="#4cbeed" stroke="#004785" stroke-miterlimit="10"/><line x1="137.65" y1="146.85" x2="137.65" y2="149.45" fill="#4cbeed" stroke="#004785" stroke-miterlimit="10"/><line x1="135.98" y1="143.45" x2="135.98" y2="146.05" fill="#4cbeed" stroke="#004785" stroke-miterlimit="10"/><line x1="138.98" y1="143.77" x2="138.98" y2="146.37" fill="#4cbeed" stroke="#004785" stroke-miterlimit="10"/><line x1="137.65" y1="152.05" x2="137.65" y2="154.65" fill="#4cbeed" stroke="#004785" stroke-miterlimit="10"/><line x1="139.34" y1="155.69" x2="139.34" y2="158.29" fill="#4cbeed" stroke="#004785" stroke-miterlimit="10"/><line x1="143.78" y1="154.71" x2="143.78" y2="157.3" fill="#4cbeed" stroke="#004785" stroke-miterlimit="10"/><line x1="132.35" y1="153.39" x2="132.35" y2="155.99" fill="#4cbeed" stroke="#004785" stroke-miterlimit="10"/><line x1="141.69" y1="153.84" x2="141.69" y2="156.44" fill="#4cbeed" stroke="#004785" stroke-miterlimit="10"/><line x1="135.03" y1="153.97" x2="135.03" y2="156.56" fill="#4cbeed" stroke="#004785" stroke-miterlimit="10"/><line x1="136.95" y1="155.69" x2="136.95" y2="158.29" fill="#4cbeed" stroke="#004785" stroke-miterlimit="10"/><line x1="140.08" y1="147.38" x2="140.08" y2="149.97" fill="#4cbeed" stroke="#004785" stroke-miterlimit="10"/><line x1="124.55" y1="144.11" x2="124.55" y2="146.7" fill="#4cbeed" stroke="#004785" stroke-miterlimit="10"/><line x1="149.42" y1="144.29" x2="149.42" y2="146.89" fill="#4cbeed" stroke="#004785" stroke-miterlimit="10"/><line x1="145.44" y1="152.09" x2="145.44" y2="154.69" fill="#4cbeed" stroke="#004785" stroke-miterlimit="10"/><line x1="147.85" y1="153.19" x2="147.85" y2="155.79" fill="#4cbeed" stroke="#004785" stroke-miterlimit="10"/><line x1="149.85" y1="150.13" x2="149.85" y2="152.72" fill="#4cbeed" stroke="#004785" stroke-miterlimit="10"/><line x1="154.7" y1="145.25" x2="154.7" y2="147.85" fill="#4cbeed" stroke="#004785" stroke-miterlimit="10"/><line x1="157.11" y1="145.69" x2="157.11" y2="148.29" fill="#4cbeed" stroke="#004785" stroke-miterlimit="10"/><line x1="159.18" y1="140.03" x2="159.18" y2="142.63" fill="#4cbeed" stroke="#004785" stroke-miterlimit="10"/><line x1="161.13" y1="136.05" x2="161.13" y2="138.65" fill="#4cbeed" stroke="#004785" stroke-miterlimit="10"/><line x1="162.8" y1="132.94" x2="162.8" y2="135.54" fill="#4cbeed" stroke="#004785" stroke-miterlimit="10"/><line x1="152.41" y1="150.51" x2="152.41" y2="153.11" fill="#4cbeed" stroke="#004785" stroke-miterlimit="10"/><line x1="129.73" y1="153.93" x2="129.73" y2="156.53" fill="#4cbeed" stroke="#004785" stroke-miterlimit="10"/><line x1="127.07" y1="151.39" x2="127.07" y2="153.99" fill="#4cbeed" stroke="#004785" stroke-miterlimit="10"/><line x1="124.55" y1="151.47" x2="124.55" y2="154.07" fill="#4cbeed" stroke="#004785" stroke-miterlimit="10"/><line x1="119.9" y1="145.77" x2="119.9" y2="148.37" fill="#4cbeed" stroke="#004785" stroke-miterlimit="10"/><line x1="117.54" y1="146.22" x2="117.54" y2="148.82" fill="#4cbeed" stroke="#004785" stroke-miterlimit="10"/><line x1="115.31" y1="140.85" x2="115.31" y2="143.45" fill="#4cbeed" stroke="#004785" stroke-miterlimit="10"/><line x1="113.12" y1="140.98" x2="113.12" y2="143.58" fill="#4cbeed" stroke="#004785" stroke-miterlimit="10"/><line x1="111.18" y1="133.22" x2="111.18" y2="135.82" fill="#4cbeed" stroke="#004785" stroke-miterlimit="10"/><line x1="122.13" y1="148.02" x2="122.13" y2="150.62" fill="#4cbeed" stroke="#004785" stroke-miterlimit="10"/><path d="M118.71,117.72s.51,3.21,4.5,3.11,3.86-2.73,3.86-2.73" fill="#4cbeed" stroke="#004785" stroke-miterlimit="10"/><path d="M155.63,117.72s-.51,3.21-4.51,3.11-3.85-2.73-3.85-2.73" fill="#4cbeed" stroke="#004785" stroke-miterlimit="10"/><line x1="113.91" y1="114.06" x2="118.25" y2="115.25" fill="#4cbeed" stroke="#004785" stroke-miterlimit="10"/><line x1="113.91" y1="118.35" x2="116.31" y2="117.72" fill="#4cbeed" stroke="#004785" stroke-miterlimit="10"/><line x1="160.09" y1="114.06" x2="155.75" y2="115.25" fill="#4cbeed" stroke="#004785" stroke-miterlimit="10"/><line x1="160.09" y1="118.35" x2="157.69" y2="117.72" fill="#4cbeed" stroke="#004785" stroke-miterlimit="10"/><path d="M127.84,555.49s-.56,3.79-1.58,8.15c-1.31,5.71-3,8.76-6.08,10.06,0,0-14,6.73-29.5,2.86-4.34-1.09-4.47-4.39-2.4-8.6,5.31-10.81,25.13-27.52,25.13-27.52h13.15Z" fill="#4cbeed" stroke="#004785" stroke-miterlimit="10"/><path d="M127.84,555.49s-.56,3.79-1.58,8.15c-3.24,3-8.44,5.49-16.72,6.39-10.29,1.1-17-.14-21.26-2.07A47.24,47.24,0,0,1,94.51,559c1.27-1.5,2.62-3,4-4.46.42-.44.82-.89,1.25-1.32C100.85,552.12,102,551,103,550c.6-.59,1.2-1.16,1.77-1.71,1.28-1.22,2.49-2.35,3.58-3.35,3-2.71,5-4.46,5-4.46l13.49-2.34Z" fill="#4cbeed" stroke="#004785" stroke-miterlimit="10"/><path d="M114.37,556.66c-.91,1.6-1.81,3.06-2.6,4.21-6.07-.52-12.83-1.38-17.26-1.84,1.27-1.5,2.62-3,4-4.46C103.88,555.22,111.13,556.2,114.37,556.66Z" fill="#4cbeed" stroke="#004785" stroke-miterlimit="10"/><path d="M117.53,550.76c-.6,1.19-1.25,2.43-1.9,3.65-3.59-.41-10.53-.85-15.87-1.16C100.85,552.12,102,551,103,550Z" fill="#4cbeed" stroke="#004785" stroke-miterlimit="10"/><path d="M120.18,545.16c-.35.83-.85,1.91-1.44,3.14-3-.11-8.81-.1-13.95,0,1.28-1.22,2.49-2.35,3.58-3.35A86,86,0,0,1,120.18,545.16Z" fill="#4cbeed" stroke="#004785" stroke-miterlimit="10"/><path d="M181.72,576.56a46.06,46.06,0,0,1-28.29-2.14c-2.68-1.25-6-5.23-7.36-11-1-4.28-1.52-8-1.52-8l1.29-15H159s19.39,16.36,24.95,27.16C186.2,572,186.19,575.44,181.72,576.56Z" fill="#4cbeed" stroke="#004785" stroke-miterlimit="10"/><path d="M183.94,567.6a28.15,28.15,0,0,1-11.08,3.28c-8.57.79-20.61-4.41-26.79-7.43-1-4.28-1.52-8-1.52-8l1.29-15H159S178.38,556.8,183.94,567.6Z" fill="#4cbeed" stroke="#004785" stroke-miterlimit="10"/><path d="M158,556.66c.91,1.6,1.81,3.06,2.61,4.21,6.06-.52,12.82-1.38,17.25-1.84-1.27-1.5-2.62-3-4-4.46C168.45,555.22,161.21,556.2,158,556.66Z" fill="#4cbeed" stroke="#004785" stroke-miterlimit="10"/><path d="M154.8,550.76c.6,1.19,1.25,2.43,1.9,3.65,3.6-.41,10.53-.85,15.87-1.16-1.08-1.13-2.19-2.23-3.26-3.29Z" fill="#4cbeed" stroke="#004785" stroke-miterlimit="10"/><path d="M152.15,545.16c.35.83.85,1.91,1.44,3.14,3-.11,8.81-.1,13.95,0-1.28-1.22-2.49-2.35-3.58-3.35A86,86,0,0,0,152.15,545.16Z" fill="#4cbeed" stroke="#004785" stroke-miterlimit="10"/><path d="M122,544.16c-3.67.58-8.51.21-11.09-3.72a26.8,26.8,0,0,1-3.16-6.86s-9.87-52.81-8.61-79.16,8-26.35,15.06-26.35h0c7.1,0,16.4-.22,16.4,6.88l-1.74,29.83-1.75,68.8C127.1,540.68,127.58,543.29,122,544.16Z" fill="#4cbeed" stroke="#004785" stroke-miterlimit="10"/><path d="M127.1,445.53s-1.12,4.63-12.73,4.63S100,433.69,100,425.53l-7.15-87.42.49-15.43c0-8.16,7.78-14.83,17.29-14.83h0c9.51,0,25.86,14.6,25.86,22.75L131.65,427C131.65,435.15,127.1,445.53,127.1,445.53Z" fill="#4cbeed" stroke="#004785" stroke-miterlimit="10"/><path d="M151.75,546.49c3.91.61,9.34.49,11.95-3.86,1.12-1.86.32-6.92,1-9,0,0,11.58-55.77,10.32-82.12s-9.67-23.39-16.77-23.39h0A13,13,0,0,0,145.29,441L144,465.64l1.29,67.94C145.29,540.68,146.16,545.62,151.75,546.49Z" fill="#4cbeed" stroke="#004785" stroke-miterlimit="10"/><path d="M145.29,443.49c4.52,6.28,9.9,13.8,20.69,3,5.93-4.1,6.43-12.79,6.43-21l6.66-102.85c0-8.16-7.78-14.83-17.29-14.83h0c-9.52,0-25.3,16.54-25.3,24.7l4.79,95.2C141.27,435.9,145.29,443.49,145.29,443.49Z" fill="#4cbeed" stroke="#004785" stroke-miterlimit="10"/><path d="M177.72,339.33l-84.88-1.22c0-.63.08-3.83.13-8.31,0-2.17-1.44-39.85,2-39.42C116.08,293,178,293,178,293l2.21,26.09Z" fill="#4cbeed" stroke="#004785" stroke-miterlimit="10"/><path d="M103,489s-1.38,12.08-1.11,15.9a29.35,29.35,0,0,0,2.43,8.46s-.63,11.47-.73,14.75,7.28,12.33,7.28,12.33l4.44-9.1-4.64-32.51Z" fill="#4cbeed" stroke="#004785" stroke-miterlimit="10"/><path d="M120,529.15c1.64-2.19,7.11-36.88,7.11-36.88l1.75,32.29-2.29,15.88-11.22-9.1Z" fill="#4cbeed" stroke="#004785" stroke-miterlimit="10"/><path d="M171.91,480.66s.25,19.81,0,23.63-3.49,9.07-3.49,9.07,1,13.43,1.07,16.7-5.77,12.57-5.77,12.57l-6.29-11.29,4.65-32.51Z" fill="#4cbeed" stroke="#004785" stroke-miterlimit="10"/><path d="M152.77,529.15c-1.64-2.19-7.12-36.88-7.12-36.88l-2.17,22.4,2.72,25.77,11.21-9.1Z" fill="#4cbeed" stroke="#004785" stroke-miterlimit="10"/><path d="M164.7,195.83l15.49,77.32s17.21-9.64,17.24-11a86,86,0,0,0,.22-19.24c-4.18-43.38-12-58.72-12-58.72s-2-6.83-10.54-.6C171.1,186.5,164.7,195.83,164.7,195.83Z" fill="#4cbeed" stroke="#004785" stroke-miterlimit="10"/><path d="M101.83,188.48,97.3,267.82s-21.19-5.68-21.18-5.71a103.28,103.28,0,0,1-1.25-31.94c5.74-43.2,6-40.77,6-40.77s5.5-15.37,14.9-10.5C100.14,181.16,101.83,188.48,101.83,188.48Z" fill="#4cbeed" stroke="#004785" stroke-miterlimit="10"/><path d="M174.21,171.06l2.46,1L175,231.53v.22l.15,4,.06,1.6,6.94,57.25L184,307.41l-6.23,6.84-7.6,1.48-26.48,6.56-24-.54-25.47-6.48L88,301.45l3.31-11.72,5.87-46-2.91-13.59v-.46l.08-2.09.07-2L96.26,172l16.58-6.24,2.09-.56,1.76-.47,3.27-.87c3,9.36,7.68,15.94,12.59,18.81,3.47,2,7.06,2.19,10.29.17,4.13-2.58,7.66-8.76,9.53-19.21l.51.13,1.7.5Z" fill="#4cbeed" stroke="#004785" stroke-miterlimit="10"/><polygon points="152.52 175.24 159.75 181.74 159.75 165.13 155.74 163.35 149.56 158.15 149.36 172.93 141.1 183.72 149.68 181.12 152.52 175.24" fill="#4cbeed" stroke="#004785" stroke-miterlimit="10"/><polygon points="124.77 159.1 115.49 165.08 115.49 182.97 123.52 174.32 128.31 181.43 135.1 183.68 125.19 170.18 124.77 159.1" fill="#4cbeed" stroke="#004785" stroke-miterlimit="10"/><path d="M101.94,200.05l.71,23.86-4.12,16-4.91,20s-16.92,11.26-22.69,2.89c-1.06-1.55,1.56-30.74,2.55-39.84s3.59-31.27,9.79-39.83c7.08-9.78,13-11.08,13-11.08Z" fill="#4cbeed" stroke="#004785" stroke-miterlimit="10"/><path d="M122.67,255.39l1.48,12.75,47.47,5.71s26.11-.14,25.81-11.69c-.37-13.63-23.43-9.63-23.43-9.63l-19.41,1.41Z" fill="#4cbeed" stroke="#004785" stroke-miterlimit="10"/><polygon points="125.13 255.28 116.1 243.96 107.43 244.04 94.47 254.81 125.13 255.28" fill="#4cbeed" stroke="#004785" stroke-miterlimit="10"/><polygon points="91.3 251.2 96.3 269.85 108.84 273.15 125.29 268.12 125.13 255.28 109.51 247.98 98.65 249.41 91.3 251.2" fill="#4cbeed" stroke="#004785" stroke-miterlimit="10"/><polygon points="91.3 251.2 96.3 269.85 102.77 271.55 98.02 249.57 91.3 251.2" fill="#4cbeed" stroke="#004785" stroke-miterlimit="10" style="mix-blend-mode:multiply"/><path d="M125.85,269.17c-2.78-6.34-.09-14.33-.09-14.33l7.87-.26,1,15.27Z" fill="#4cbeed" stroke="#004785" stroke-miterlimit="10"/><path d="M130.07,263.22c-1-8.68,2.22-8.93,2.22-8.93l52.52-1.81s15.71-2.2,16.5,5.24c1.32,12.61-5,17.42-23.56,17.8-6.4.12-46.72-5.58-46.72-5.58A56,56,0,0,1,130.07,263.22Z" fill="#4cbeed" stroke="#004785" stroke-miterlimit="10"/><polygon points="150 248.87 159.48 237.93 166.06 236.49 173.56 247.17 150 248.87" fill="#4cbeed" stroke="#004785" stroke-miterlimit="10"/><path d="M150,248.87l-.7,12.81-47,8.61s-26.48,4.84-26.47-10.09c0-13.64,17.81-14.75,17.81-14.75l24.11,1.76Z" fill="#4cbeed" stroke="#004785" stroke-miterlimit="10"/><polygon points="183.97 246.19 178.19 264.62 165.52 267.39 149.29 261.68 150 248.87 165.9 242.22 176.69 244.1 183.97 246.19" fill="#4cbeed" stroke="#004785" stroke-miterlimit="10"/><path d="M147.76,263.23c2.57-6.71-.61-14.87-.61-14.87l-8.19.12-.24,15.9Z" fill="#4cbeed" stroke="#004785" stroke-miterlimit="10"/><path d="M143.07,257.58c.57-9-2.36-9.82-2.36-9.82L88,244.29s-17.66,7.87-17.28,17.08c.41,10.1,4.24,11.9,23.49,11.36,6.65-.19,48.21-8.13,48.21-8.13A58.51,58.51,0,0,0,143.07,257.58Z" fill="#4cbeed" stroke="#004785" stroke-miterlimit="10"/><path d="M170.08,199.78l-.71,23.85,4.39,12.63,5.63,24.3s15.93,10.31,21.7,1.94c1.07-1.55-1.56-30.74-2.55-39.84s-3.59-31.27-9.79-39.83c-7.08-9.77-13-11.08-13-11.08Z" fill="#4cbeed" stroke="#004785" stroke-miterlimit="10"/><path d="M124,99.16a77.19,77.19,0,0,1,12.67-.63c8.59.1,13.17.63,13.17.63" fill="#4cbeed" stroke="#004785" stroke-linecap="round" stroke-miterlimit="10"/><path d="M130.09,94.2a38.94,38.94,0,0,1,6.46-.32c4.38.05,6.72.32,6.72.32" fill="#4cbeed" stroke="#004785" stroke-linecap="round" stroke-miterlimit="10"/><path d="M329.41,574.71c0,8.16-36.9,14.79-82.42,14.79a378.14,378.14,0,0,1-50.82-3.15l.67-.1-.67-.1-.68.1.68.1a377.85,377.85,0,0,1-50.83,3.15c-45.52,0-82.42-6.63-82.42-14.79S99.82,560,145.34,560a376.36,376.36,0,0,1,50.83,3.14l-.68.1.68.1.67-.1-.67-.1A376.64,376.64,0,0,1,247,560C292.51,560,329.41,566.56,329.41,574.71Z" fill="#4cbeed" stroke="#004785" stroke-miterlimit="10" style="mix-blend-mode:multiply"/><path d="M196.17,586.15l.67.1-.67.1-.68-.1Z" fill="#4cbeed" stroke="#004785" stroke-miterlimit="10" style="mix-blend-mode:multiply"/><path d="M196.17,563.29l-.68-.1.68-.1.67.1Z" fill="#4cbeed" stroke="#004785" stroke-miterlimit="10" style="mix-blend-mode:multiply"/><path d="M196.17,586.15l.67.1-.67.1-.68-.1Z" fill="#4cbeed" stroke="#004785" stroke-miterlimit="10" style="mix-blend-mode:multiply"/><path d="M196.17,563.29l-.68-.1.68-.1.67.1Z" fill="#4cbeed" stroke="#004785" stroke-miterlimit="10" style="mix-blend-mode:multiply"/><path d="M233,549.53c-10,.27-11.23-11.47-13.33-18.44,0,0-10.53-51.78-9.29-77.62s7.81-25.84,14.77-25.84h0a12.7,12.7,0,0,1,12.66,12.66v90.8C237.79,538.06,238.53,549.39,233,549.53Z" fill="#4cbeed" stroke="#004785" stroke-miterlimit="10"/><path d="M261.45,550.87c9.78.86,11.07-12.81,13.17-19.78,0,0,9.68-51.78,8.45-77.62s-7.81-25.84-14.78-25.84h0a12.7,12.7,0,0,0-12.66,12.66v90.8C255.63,538.06,255.93,550.38,261.45,550.87Z" fill="#4cbeed" stroke="#004785" stroke-miterlimit="10"/><path d="M231,573.24s-10.52,6.9-25.74,3.1,18.91-31.59,18.91-31.59.58-6.77,5-6.77,7.75,6.92,7.75,6.92l1,11.6S235.6,572.32,231,573.24Z" fill="#4cbeed" stroke="#004785" stroke-miterlimit="10"/><path d="M262.51,573.24s10.52,6.9,25.74,3.1-18.91-31.59-18.91-31.59,2.59-6.77-3.24-6.77-9.43,6.39-9.43,6.39l-1,12.13S257.94,572.32,262.51,573.24Z" fill="#4cbeed" stroke="#004785" stroke-miterlimit="10"/><path d="M238.85,561.17c-.24,1.68-2.43,6.61-3.94,8.92-3.13,4.78-8,7.21-19.15,8.48-10.33,1.18-22.39-.32-20.57-4.67a43,43,0,0,1,10.86-12.47,9.63,9.63,0,0,0,5.58,2.9c26.32,4.92,24.54-19.74,25.33-18.87S239.6,556,238.85,561.17Z" fill="#4cbeed" stroke="#004785" stroke-miterlimit="10"/><path d="M253.71,561.17c.25,1.68,2.44,5.86,4,8.17,3.12,4.78,8,8,19.15,9.23,10.33,1.18,22.38-.32,20.56-4.67a42.9,42.9,0,0,0-10.85-12.47,9.67,9.67,0,0,1-5.58,2.9c-26.32,4.92-23.52-20.28-24.32-19.41S253,556,253.71,561.17Z" fill="#4cbeed" stroke="#004785" stroke-miterlimit="10"/><path d="M232.69,158.46c0,.08,0,.17-.05.25a2.06,2.06,0,0,1-1,1.32c-4.35,2.62-20.51-8.8-21.62-38.93q-.15-3.69,0-7.76c.63-13.86,4.19-23.09,7.69-28.9,3.61-6,7.14-8.36,7.41-8.53-.25.89-10.3,35.49-5.94,52.4S233.92,152.43,232.69,158.46Z" fill="#4cbeed" stroke="#004785" stroke-miterlimit="10"/><path d="M266.4,158.58a3.75,3.75,0,0,1-2.65-.67c-3.91-3.62,4.38-6.27,8.79-23.4,1.58-6.12,1.63-15.71,1-25.48-.25-4.23-.62-8.47-1-12.49-.09-.83-.18-1.65-.27-2.45-1.27-11.6-2.83-20.77-2.83-20.77l.09.05.15.11a42.34,42.34,0,0,1,9.82,10l.11.14c2.52,3.64,4.28,6.43,5.45,11.78.95,4.34,1.51,10.34,1.76,19.81C287.77,149.74,272.94,158.4,266.4,158.58Z" fill="#4cbeed" stroke="#004785" stroke-miterlimit="10"/><path d="M231.67,160c-4.35,2.62-20.51-8.8-21.62-38.93q-.06-3.64,0-7.76c.34-13.87,4.19-23.09,7.69-28.9l.57,19.42s-3.51.61-3.5,22C214.85,145.81,227.25,157.26,231.67,160Z" fill="#4cbeed" stroke="#004785" stroke-miterlimit="10"/><path d="M266.4,158.58c4-3.71,10-10.92,13-22.89,4.77-19-5.06-36.07-5.06-36.07s-.72-1.18-1.77-3.08c-.09-.83-.18-1.65-.27-2.45-1.27-11.6-2.83-20.77-2.83-20.77l.09.05.15.11a42.34,42.34,0,0,1,9.82,10l.11.14c2.52,3.64,4.28,6.43,5.45,11.78.95,4.34,1.51,10.34,1.76,19.81C287.77,149.74,272.94,158.4,266.4,158.58Z" fill="#4cbeed" stroke="#004785" stroke-miterlimit="10"/><path d="M257.56,143.3s0,.18-.16.39c0,0,0,0,0,0l-.06.09c-1,1.35-3.94,5.13-10.64,5.13-7.22,0-11.23-5.38-10.66-5.55h.09c2.73-.35,7.35.85,10.56.83s8.64-1.08,10.56-.94A1.39,1.39,0,0,1,257.56,143.3Z" fill="#4cbeed" stroke="#004785" stroke-miterlimit="10" opacity="0.15"/><path d="M257.56,143.3l-.16.39s0,0,0,0a.17.17,0,0,1-.06.09c-2.35.86-6.45,2.51-10.56,2.55s-8.44-2.06-10.74-3h.09c2.73-.35,7.35.85,10.56.83s8.64-1.08,10.56-.94A1.39,1.39,0,0,1,257.56,143.3Z" fill="#4cbeed" stroke="#004785" stroke-miterlimit="10" opacity="0.15"/><path d="M272,293h-50.7c-4.55,0-8.27-3.42-8.27-7.59l-5.94-50.76c0-9.87,8.8-17.95,19.56-17.95h39.63c10.76,0,19.56,8.08,19.56,17.95l-5.56,50.76C280.24,289.62,276.51,293,272,293Z" fill="#4cbeed" stroke="#004785" stroke-miterlimit="10"/><path d="M286.83,301.12c-7.11,18.08-13.13,19.42-16.9,19.42h-47c-3.77,0-9.79-1.34-16.9-19.42-2.16-5.51,3.08-6.84,6.84-6.84H280C283.75,294.28,289,295.61,286.83,301.12Z" fill="#4cbeed" stroke="#004785" stroke-miterlimit="10"/><path d="M233.3,317.9V299.37a13.17,13.17,0,0,1,13.13-13.12h0a13.17,13.17,0,0,1,13.12,13.12V317.9c0,3.61-6.56,13.15-13.12,13.15S233.3,321.51,233.3,317.9Z" fill="#4cbeed" stroke="#004785" stroke-miterlimit="10"/><path d="M234.92,168.07a.46.46,0,0,1,0-.09.64.64,0,0,0,0-.07,9.6,9.6,0,0,1-.3-2.22V151.18a14.36,14.36,0,0,1,3.44-9.47,11.64,11.64,0,0,1,7-4l.36-.07c.44,0,.87-.07,1.32-.07h.06a9.61,9.61,0,0,1,1.42.13l.33,0a11.68,11.68,0,0,1,6.76,3.82,14.51,14.51,0,0,1,3.55,9.63v14.51a9.59,9.59,0,0,1-.14,1.62s-1.88,8.05-12,8.24S234.92,168.07,234.92,168.07Z" fill="#4cbeed" stroke="#004785" stroke-miterlimit="10"/><path d="M235.51,120.2a2.57,2.57,0,1,1-2.55-2.83A2.7,2.7,0,0,1,235.51,120.2Z" fill="#4cbeed" stroke="#004785" stroke-miterlimit="10"/><path d="M263.75,120.2a2.57,2.57,0,1,1-2.56-2.83A2.71,2.71,0,0,1,263.75,120.2Z" fill="#4cbeed" stroke="#004785" stroke-miterlimit="10"/><path d="M248.41,138h-3.47a1.19,1.19,0,0,1-1.19-1.2l.5-17.24a2.73,2.73,0,0,1,2.42-2.93h0c1.28,0,2.07,1.32,2.07,2.93l.86,17.24A1.2,1.2,0,0,1,248.41,138Z" fill="#4cbeed" stroke="#004785" stroke-miterlimit="10"/><path d="M235.51,141.54s6.49,6.67,15.61,5.8Z" fill="#4cbeed" stroke="#004785" stroke-miterlimit="10"/><circle cx="231.87" cy="128.86" r="5.82" fill="#4cbeed" stroke="#004785" stroke-miterlimit="10" opacity="0.15"/><circle cx="261.84" cy="128.86" r="5.82" fill="#4cbeed" stroke="#004785" stroke-miterlimit="10" opacity="0.15"/><rect x="227.99" y="112.68" width="9.93" height="1.49" rx="0.75" fill="#4cbeed" stroke="#004785" stroke-miterlimit="10"/><rect x="256.23" y="112.94" width="9.93" height="1.49" rx="0.75" fill="#4cbeed" stroke="#004785" stroke-miterlimit="10"/><path d="M227.81,439.1l-6.56.35c-9.37,0-10.47-6.92-10.47-14.94l-6.56-101.26c0-8,7.66-14.6,17-14.6h0c9.36,0,22.51,3.85,22.51,11.88l-5.49,104.32C238.27,432.88,237.17,439.1,227.81,439.1Z" fill="#4cbeed" stroke="#004785" stroke-miterlimit="10"/><path d="M265,439.1l6.56.35c9.37,0,10.47-6.92,10.47-14.94l6.56-101.26c0-8-7.66-14.6-17-14.6h0c-9.36,0-22.51,3.85-22.51,11.88l5.49,104.32C254.58,432.88,255.68,439.1,265,439.1Z" fill="#4cbeed" stroke="#004785" stroke-miterlimit="10"/><path d="M272,293h-50.7c-4.55,0-8.27-3.42-8.27-7.59l-5.94-50.76c0-9.87,8.8-17.95,19.56-17.95h39.63c10.76,0,19.56,8.08,19.56,17.95l-5.56,50.76C280.24,289.62,276.51,293,272,293Z" fill="#4cbeed" stroke="#004785" stroke-miterlimit="10"/><path d="M246.57,258.33c-13.27,0-39.52-7.71-39.52-25l-3.71-50c0-4.91,4.58-8.92,10.19-8.92,0,0,9.43-10,32-10s34.19,10,34.19,10c5.38,0,9.78,3.85,9.78,8.57l-3.89,49.29C285.62,249.57,259.84,258.33,246.57,258.33Z" fill="#4cbeed" stroke="#004785" stroke-miterlimit="10"/><path d="M286.83,301.12c-7.11,18.08-13.13,19.42-16.9,19.42h-47c-3.77,0-9.79-1.34-16.9-19.42-2.16-5.51,3.08-6.84,6.84-6.84H280C283.75,294.28,289,295.61,286.83,301.12Z" fill="#4cbeed" stroke="#004785" stroke-miterlimit="10"/><path d="M233.3,317.9V299.37a13.17,13.17,0,0,1,13.13-13.12h0a13.17,13.17,0,0,1,13.12,13.12V317.9c0,3.61-6.56,13.15-13.12,13.15S233.3,321.51,233.3,317.9Z" fill="#4cbeed" stroke="#004785" stroke-miterlimit="10"/><path d="M234.92,168.07a.46.46,0,0,1,0-.09.64.64,0,0,0,0-.07,9.6,9.6,0,0,1-.3-2.22V151.18a14.36,14.36,0,0,1,3.44-9.47,11.64,11.64,0,0,1,7-4l.36-.07c.44,0,.87-.07,1.32-.07h.06a9.61,9.61,0,0,1,1.42.13l.33,0a11.68,11.68,0,0,1,6.76,3.82,14.51,14.51,0,0,1,3.55,9.63v14.51a9.59,9.59,0,0,1-.14,1.62s-1.88,8.05-12,8.24S234.92,168.07,234.92,168.07Z" fill="#4cbeed" stroke="#004785" stroke-miterlimit="10"/><path d="M222.69,116.06c1,5.66-2.18,11.56-5.62,12.19s-7.07-3.44-8.11-9.1.9-10.76,4.34-11.4S221.65,110.4,222.69,116.06Z" fill="#4cbeed" stroke="#004785" stroke-miterlimit="10"/><ellipse cx="218.87" cy="118.56" rx="6.33" ry="8.83" transform="translate(-29.03 96.05) rotate(-23.25)" fill="#4cbeed" stroke="#004785" stroke-miterlimit="10"/><path d="M284.06,119.5c-.67,5.59-3.58,9-7.6,8.86s-4-2.92-4.29-6.88a17.79,17.79,0,0,1,.07-3.33,14.75,14.75,0,0,1,1.9-5.94,7.18,7.18,0,0,1,3.23-3.18,3.71,3.71,0,0,1,1.92-.33C282.57,109.09,284.7,113.93,284.06,119.5Z" fill="#4cbeed" stroke="#004785" stroke-miterlimit="10"/><path d="M268.11,116.72c-1.93,4.48-.89,9,2.33,10.34s7.37-.86,9.3-5.34.88-9.24-2.33-10.62S270,112.23,268.11,116.72Z" fill="#4cbeed" stroke="#004785" stroke-miterlimit="10"/><path d="M277.21,115.59c0,1.08,0,2.15,0,3.23a49.75,49.75,0,0,1-5.08,23c-4,8.19-17.42,18.28-25.64,18.28-8.42,0-20.51-6.22-25-17.33a68.78,68.78,0,0,1-5.05-22.55c-.11-3-.24-6.09-.26-9.16a64.87,64.87,0,0,1,1.5-15.62c1.58-6.39,4.59-12.69,9.81-16.69,5.64-4.35,14.32-5.7,21.32-5.62,7.24.09,13.87,2.48,17.37,5.24,4.93,3.89,7.22,9.48,8.93,15.51C277.14,101.05,277.23,108.22,277.21,115.59Z" fill="#4cbeed" stroke="#004785" stroke-miterlimit="10"/><path d="M235.51,120.2A2.69,2.69,0,0,1,233,123a2.48,2.48,0,0,1-2-1.13,3,3,0,0,1-.51-1.7,2.71,2.71,0,0,1,2.55-2.83,2.35,2.35,0,0,1,1.78.81A2.89,2.89,0,0,1,235.51,120.2Z" fill="#4cbeed" stroke="#004785" stroke-miterlimit="10"/><path d="M263.75,120.2a2.57,2.57,0,1,1-2.56-2.83A2.71,2.71,0,0,1,263.75,120.2Z" fill="#4cbeed" stroke="#004785" stroke-miterlimit="10"/><path d="M246.89,138.76c-2.23,0-2.29-2.47-2.29-4.91s-.1-17.74,2-17.74,2.32,15.24,2.32,17.72S249.12,138.76,246.89,138.76Z" fill="#4cbeed" stroke="#004785" stroke-miterlimit="10"/><g style="mix-blend-mode:multiply"><circle cx="231.87" cy="128.86" r="5.82" fill="#4cbeed" opacity="0.15"/><circle cx="261.84" cy="128.86" r="5.82" fill="#4cbeed" opacity="0.15"/></g><path d="M237.46,113.79l-10.06.62c-.43,0,.45-2.77,2.58-2.9l7.43-.45c.43,0,.8.56.81,1.32h0C238.24,113.13,237.89,113.76,237.46,113.79Z" fill="#4cbeed" stroke="#004785" stroke-miterlimit="10"/><path d="M256.25,113.79l10.06.62c.43,0-.45-2.77-2.57-2.9l-7.44-.45c-.43,0-.79.56-.81,1.32h0C255.48,113.13,255.82,113.76,256.25,113.79Z" fill="#4cbeed" stroke="#004785" stroke-miterlimit="10"/><path d="M218.06,197.77l-30.17,78.48s-14.79-4.3-15.7-4.86c-2-11.56,4.46-23.36,7.38-33.79,11.6-41.76,21.52-55.28,21.52-55.28s12.09-14.08,18.76-6.31C223,179.63,218.06,197.77,218.06,197.77Z" fill="#4cbeed" stroke="#004785" stroke-miterlimit="10"/><polygon points="220.37 321.46 233.82 324.71 238.2 329.8 230.72 336.74 220.37 321.46" fill="#4cbeed" stroke="#004785" stroke-miterlimit="10"/><path d="M220.37,321.46l-10.69,5.27L179.8,289.64s-13.88-22.09-4.75-27.75c10.77-6.67,20,14.82,20,14.82l9.3,17.09Z" fill="#4cbeed" stroke="#004785" stroke-miterlimit="10"/><polygon points="239.09 349.88 221.4 353.31 212.98 343.53 209.68 326.73 220.37 321.46 233.49 332.29 237.23 342.57 239.09 349.88" fill="#4cbeed" stroke="#004785" stroke-miterlimit="10"/><polygon points="239.09 349.88 221.4 353.31 217.05 348.26 237.38 343.2 239.09 349.88" fill="#4cbeed" stroke="#004785" stroke-miterlimit="10" style="mix-blend-mode:multiply"/><path d="M275.36,197.77l30.17,78.48c1.56,3,16.11-7.93,14.89-12.25-2.2-13.29-3.65-16-6.57-26.4-11.6-41.76-21.52-55.28-21.52-55.28s-12.09-14.08-18.76-6.31C270.47,179.63,275.36,197.77,275.36,197.77Z" fill="#4cbeed" stroke="#004785" stroke-miterlimit="10"/><polygon points="269.28 316.72 255.67 319.27 251.04 324.12 258.15 331.44 269.28 316.72" fill="#4cbeed" stroke="#004785" stroke-miterlimit="10"/><path d="M269.28,316.72l10.4,5.82,31.77-35.49s15.2-21.33,6.37-27.46c-10.41-7.22-20.95,13.76-20.95,13.76l-10.19,16.58Z" fill="#4cbeed" stroke="#004785" stroke-miterlimit="10"/><polygon points="249.1 344.13 266.6 348.47 275.51 339.14 279.68 322.54 269.28 316.72 255.61 326.86 251.34 336.93 249.1 344.13" fill="#4cbeed" stroke="#004785" stroke-miterlimit="10"/><polygon points="249.1 344.13 266.6 348.47 271.19 343.66 251.16 337.55 249.1 344.13" fill="#4cbeed" stroke="#004785" stroke-miterlimit="10" style="mix-blend-mode:multiply"/><path d="M227.81,439.1l-6.56.35c-9.37,0-10.47-6.92-10.47-14.94l-6.56-101.26c0-8,7.66-14.6,17-14.6h0c9.36,0,22.51,3.85,22.51,11.88l-5.49,104.32C238.27,432.88,237.17,439.1,227.81,439.1Z" fill="#4cbeed" stroke="#004785" stroke-miterlimit="10"/><path d="M265,439.1l6.56.35c9.37,0,10.47-6.92,10.47-14.94l6.56-101.26c0-8-7.66-14.6-17-14.6h0c-9.36,0-22.51,3.85-22.51,11.88l5.49,104.32C254.58,432.88,255.68,439.1,265,439.1Z" fill="#4cbeed" stroke="#004785" stroke-miterlimit="10"/><path d="M257.33,143.8c-2.35.86-6.45,2.51-10.56,2.55s-8.44-2.06-10.74-3h.09" fill="#4cbeed" stroke="#004785" stroke-linecap="round" stroke-linejoin="round"/><line x1="223.49" y1="118" x2="228.28" y2="119.09" fill="#4cbeed" stroke="#004785" stroke-miterlimit="10"/><line x1="224.26" y1="121.12" x2="228.28" y2="121.12" fill="#4cbeed" stroke="#004785" stroke-miterlimit="10"/><line x1="269.89" y1="118" x2="265.1" y2="119.09" fill="#4cbeed" stroke="#004785" stroke-miterlimit="10"/><line x1="269.11" y1="121.12" x2="265.1" y2="121.12" fill="#4cbeed" stroke="#004785" stroke-miterlimit="10"/><path d="M216.19,108c-4.72-14.1-.71-23.85,8.07-31.38,9.72-8.34,22.17-6.18,22.17-6.18C248.94,86.7,216.19,108,216.19,108Z" fill="#4cbeed" stroke="#004785" stroke-miterlimit="10"/><path d="M273.59,109a35,35,0,0,1-6.89-1.43,64.71,64.71,0,0,1-6.17-2.26c-22.86-9.6-24.59-29.61-15.5-35,6.71-2.55,16.31-2,24.42,3l.09.05.15.11a29.65,29.65,0,0,1,9.82,10,31.91,31.91,0,0,1,2.7,5.53,45.22,45.22,0,0,1,2,6.41C286.46,105.88,281.93,109.84,273.59,109Z" fill="#4cbeed" stroke="#004785" stroke-miterlimit="10"/><path d="M237.58,449.26s-4.9,2.48-16.56,2.48-11.65-12.68-11.65-20.87l-6.21-89.5.49-15.5c0-8.19,7.82-14.89,17.37-14.89h0c9.56,0,26,14.66,26,22.85L241.18,427C241.18,435.19,237.58,449.26,237.58,449.26Z" fill="#4cbeed" stroke="#004785" stroke-miterlimit="10"/><path d="M255.85,447.2c5.49,2.22,9.94,15.39,20.77,4.54,6-4.13,7.44-14.38,7.44-22.57l5.71-103.3c0-8.19-7.81-14.89-17.37-14.89h0c-9.55,0-25.4,16.61-25.4,24.8L250.65,427C250.65,435.19,255.85,447.2,255.85,447.2Z" fill="#4cbeed" stroke="#004785" stroke-miterlimit="10"/><path d="M288.42,342.6l-85.26-1.23c0-.63.09-3.85.14-8.34,0-2.18-1.44-40,2-39.6,21.25,2.59,83.47,2.62,83.47,2.62l2.22,26.2Z" fill="#4cbeed" stroke="#004785" stroke-miterlimit="10"/><polygon points="237.6 321.74 237.51 322.91 236.04 341.17 236.03 358.99 224.36 358.19 212.24 356.83 203.54 355.85 202.76 324.86 202.72 323.08 202.5 314.25 219.7 313.3 237.08 312.09 237.59 321.35 237.6 321.74" fill="#4cbeed" stroke="#004785" stroke-miterlimit="10" style="mix-blend-mode:multiply"/><polygon points="236.96 323.1 236.96 325.27 220.13 324.77 202.76 324.86 202.72 323.08 220.13 322.72 236.96 323.1" fill="#4cbeed" stroke="#004785" stroke-miterlimit="10"/><polygon points="290.29 320.62 290.2 321.8 288.73 340.06 288.73 357.46 274.41 358.15 264.14 359.31 257.54 359.31 256.85 312.18 272.39 312.18 289.77 310.97 290.28 320.24 290.29 320.62" fill="#4cbeed" stroke="#004785" stroke-miterlimit="10" style="mix-blend-mode:multiply"/><rect x="264.67" y="192.82" width="8.54" height="3.97" fill="#4cbeed" stroke="#004785" stroke-miterlimit="10"/><rect x="264.67" y="197.76" width="8.54" height="1.49" fill="#4cbeed" stroke="#004785" stroke-miterlimit="10"/><path d="M237.58,449.26s-1.93,4.19-13.59,4.19-14.62-14.39-14.62-22.58l-6.21-89.5.49-15.5c0-8.19,7.82-14.89,17.37-14.89h0c9.56,0,26,14.66,26,22.85L241.18,427C241.18,435.19,237.58,449.26,237.58,449.26Z" fill="#4cbeed" stroke="#004785" stroke-miterlimit="10"/><path d="M255.85,447.2c3.7,6.25,9.94,15.39,20.77,4.54,6-4.13,7.44-14.38,7.44-22.57l5.71-103.3c0-8.19-7.81-14.89-17.37-14.89h0c-9.55,0-25.4,16.61-25.4,24.8L250.65,427C250.65,435.19,255.85,447.2,255.85,447.2Z" fill="#4cbeed" stroke="#004785" stroke-miterlimit="10"/><path d="M288.42,342.6l-85.26-1.23c0-.63.09-3.85.14-8.34,0-2.18-1.44-40,2-39.6,21.25,2.59,83.47,2.62,83.47,2.62l2.22,26.2Z" fill="#4cbeed" stroke="#004785" stroke-miterlimit="10"/><path d="M287.33,242.28l0-.86L321,234.13l-3.83-7.9-.95-2-21.34-43.9-6-5.18-.93-.36h0l-1.64-.64-11.67-4.56-11-3.13-16,41.49s-16.52-38.15-17.73-41.26l-7.4,2-17.23,6.48h0l-6.67,5.17-21.34,43.9-1,2-3.83,7.9,30.71,6.66h0l.2,52.65L201,318l-.33,156.05,2.23,1.11,11,5.49s9.31,1.55,37.13,1.55,39.37-6.9,39.37-6.9l2-154.43-3.78-38.62Z" fill="#4cbeed" stroke="#004785" stroke-miterlimit="10"/><path d="M203,267.82c.29-.36,31.57-4,31.57-4L247,267.39,274.8,271l13.25-6.65.28,8.77-13.53,3.61L247,273.15l-14-4.21-30,6.58Z" fill="#4cbeed" stroke="#004785" stroke-miterlimit="10"/><path d="M229.1,123.74a3.42,3.42,0,0,0,3.66,1.86c2.87-.2,3.7-1.86,3.7-1.86" fill="none" stroke="#004785" stroke-linecap="round" stroke-linejoin="round"/><path d="M257.51,123.74a3.42,3.42,0,0,0,3.66,1.86c2.88-.2,3.71-1.86,3.71-1.86" fill="none" stroke="#004785" stroke-linecap="round" stroke-linejoin="round"/><path d="M239.68,161.81a11.73,11.73,0,0,0,7.28,1.51,13.64,13.64,0,0,0,6.95-2.42" fill="none" stroke="#004785" stroke-linecap="round" stroke-linejoin="round"/></g><path d="M192.74,41.34A151.4,151.4,0,0,1,299.8,299.8,151.41,151.41,0,0,1,85.68,85.68,150.45,150.45,0,0,1,192.74,41.34m0-1a152.41,152.41,0,1,0,152.41,152.4A152.4,152.4,0,0,0,192.74,40.34Z" fill="#004785"/><path d="M80.17,348.6A192,192,0,0,1,.5,192.74C.5,86.57,86.57.5,192.74.5S385,86.57,385,192.74" fill="none" stroke="#004785" stroke-miterlimit="10"/><path d="M77.65,340.62a.5.5,0,0,0-.3.64L80,348.43l-7.63-.62a.5.5,0,1,0-.08,1l8.41.7a.51.51,0,0,0,.51-.68l-2.93-7.91a.41.41,0,0,0-.17-.22A.49.49,0,0,0,77.65,340.62Z" fill="#004785"/></g></svg>