<svg xmlns="http://www.w3.org/2000/svg" width="460.2" height="223.82" viewBox="0 0 460.2 223.82"><line y1="0.5" x2="34.29" y2="0.5" fill="none" stroke="#fff" stroke-miterlimit="10"/><line x1="425.91" y1="0.5" x2="460.2" y2="0.5" fill="none" stroke="#fff" stroke-miterlimit="10"/><line x1="298.81" y1="0.5" x2="402.04" y2="0.5" fill="none" stroke="#fff" stroke-miterlimit="10"/><line x1="277.37" y1="0.5" x2="293.55" y2="0.5" fill="none" stroke="#fff" stroke-miterlimit="10"/><line x1="46.35" y1="0.5" x2="212.68" y2="0.5" fill="none" stroke="#fff" stroke-miterlimit="10"/><line x1="65.93" y1="21.08" x2="232.26" y2="21.08" fill="none" stroke="#fff" stroke-miterlimit="10"/><line x1="246.42" y1="21.08" x2="280.84" y2="21.08" fill="none" stroke="#fff" stroke-miterlimit="10"/><line x1="306.31" y1="21.08" x2="340.74" y2="21.08" fill="none" stroke="#fff" stroke-miterlimit="10"/><line y1="203.17" x2="34.29" y2="203.17" fill="none" stroke="#fff" stroke-miterlimit="10"/><line x1="425.91" y1="203.17" x2="460.2" y2="203.17" fill="none" stroke="#fff" stroke-miterlimit="10"/><line x1="298.81" y1="203.17" x2="402.04" y2="203.17" fill="none" stroke="#fff" stroke-miterlimit="10"/><line x1="277.37" y1="203.17" x2="293.55" y2="203.17" fill="none" stroke="#fff" stroke-miterlimit="10"/><line x1="46.35" y1="203.17" x2="212.68" y2="203.17" fill="none" stroke="#fff" stroke-miterlimit="10"/><line x1="65.93" y1="223.32" x2="232.26" y2="223.32" fill="none" stroke="#fff" stroke-miterlimit="10"/><line x1="246.42" y1="223.32" x2="280.84" y2="223.32" fill="none" stroke="#fff" stroke-miterlimit="10"/><line x1="306.31" y1="223.32" x2="340.74" y2="223.32" fill="none" stroke="#fff" stroke-miterlimit="10"/></svg>