<svg xmlns="http://www.w3.org/2000/svg" width="512.44" height="148.29" viewBox="0 0 512.44 148.29"><polygon points="440.98 148.29 0 148.29 63.21 78.19 0 8.08 440.98 8.08 504.19 78.19 440.98 148.29" fill="#e6e6e6"/><polygon points="448.56 140.71 7.58 140.71 70.79 70.61 7.58 0.5 448.56 0.5 511.77 70.61 448.56 140.71" fill="none" stroke="#4cbeed" stroke-miterlimit="10"/><path d="M163.5,72.28c0-14.76,7.2-20.94,15.06-20.94a13.74,13.74,0,0,1,10.26,4.32L185,60a8.59,8.59,0,0,0-6.12-2.88c-4.68,0-8.58,3.54-8.88,13.92a11.41,11.41,0,0,1,8.28-4.44c6.54,0,11.1,3.84,11.1,11.82,0,7.62-5.46,12.54-12.06,12.54C169.92,90.94,163.5,85.18,163.5,72.28Zm6.72,3.78c.72,6.66,3.42,9.48,7.08,9.48,3.12,0,5.58-2.52,5.58-7.14,0-4.44-2.22-6.72-5.88-6.72C174.78,71.68,172.14,73,170.22,76.06Z" fill="#004785"/><path d="M212.34,58.06h-18v-6H220v4.32c-9.12,11.22-10.92,19-11.58,33.84h-7.2C202,76.78,204.72,68.38,212.34,58.06Z" fill="#004785"/><path d="M224.94,71c0-12.9,5.1-19.62,13-19.62S251,58.12,251,71s-5,20-13,20S224.94,83.86,224.94,71Zm19.26,0c0-10.74-2.58-14.1-6.24-14.1s-6.24,3.36-6.24,14.1,2.64,14.4,6.24,14.4S244.2,81.76,244.2,71Z" fill="#004785"/><path d="M256.2,97.36c4-1.56,6.18-4.26,6.12-7.32h-.54a4.2,4.2,0,0,1-4.5-4.32c0-2.64,2.1-4.32,4.68-4.32,3.36,0,5.22,2.7,5.22,7.26,0,5.94-3.42,10.5-9.48,12.6Z" fill="#004785"/><path d="M272.46,71c0-12.9,5.1-19.62,13-19.62s13,6.78,13,19.62-5,20-13,20S272.46,83.86,272.46,71Zm19.26,0c0-10.74-2.58-14.1-6.24-14.1s-6.24,3.36-6.24,14.1,2.64,14.4,6.24,14.4S291.72,81.76,291.72,71Z" fill="#004785"/><path d="M303.3,71c0-12.9,5.1-19.62,13-19.62s13,6.78,13,19.62-5,20-13,20S303.3,83.86,303.3,71Zm19.26,0c0-10.74-2.58-14.1-6.24-14.1s-6.24,3.36-6.24,14.1,2.64,14.4,6.24,14.4S322.56,81.76,322.56,71Z" fill="#004785"/><path d="M334.14,71c0-12.9,5.1-19.62,13-19.62s13,6.78,13,19.62-5,20-13,20S334.14,83.86,334.14,71Zm19.26,0c0-10.74-2.58-14.1-6.24-14.1s-6.24,3.36-6.24,14.1,2.64,14.4,6.24,14.4S353.4,81.76,353.4,71Z" fill="#004785"/></svg>