<svg xmlns="http://www.w3.org/2000/svg" xmlns:xlink="http://www.w3.org/1999/xlink" width="205.68" height="88.45" viewBox="0 0 205.68 88.45"><defs><clipPath id="a" transform="translate(4.04 -56.58)"><circle cx="98.06" cy="98.06" r="98.06" fill="none"/></clipPath></defs><g clip-path="url(#a)"><path d="M96.37,132.87c-.85,3-3.24,5.85-5.29,7.87a18.57,18.57,0,0,0,2,1.18c5.45,2.59,10.44-.6,11.31-2.42l.09-.16a.91.91,0,0,1,.27-.28Z" transform="translate(4.04 -56.58)" fill="#e6e6e6"/><path d="M94.71,131.64c-.46,2.61-2.64,5.51-5.24,8a36.92,36.92,0,0,1-3.87,3.24c-5.43,4-10.25,1.41-11.26.39a9.51,9.51,0,0,1-1.57-3c0-.12-.08-.22-.12-.33s12.75-11.23,12.74-11.26a9.46,9.46,0,0,1,2.83-1.86,10.44,10.44,0,0,1,1.64-.41,4.11,4.11,0,0,1,4,1.43,4.3,4.3,0,0,1,.94,2.16A5.33,5.33,0,0,1,94.71,131.64Z" transform="translate(4.04 -56.58)" fill="#4cbeed"/><path d="M141.6,113.2l-1.48.33-1.29-1.26c-.87-.87-8.69-8.62-14.4-13.23-7.48-6-13.31-10.73-14.87-12.38-1-1.1-3.65-3.34-5.75-5.15l-3-2.56c-2.33.8-5.42,1.61-7.29,2.08a7.33,7.33,0,0,1-.4.65s-.6.77-.68.86l-.37.41c-1.46,1.49-4.21,3.64-9.38,5.73a17.12,17.12,0,0,1-6.49,1.37c-3.14,0-5.61-.62-7.34-1.85a14,14,0,0,1-2.35-2.32,6.33,6.33,0,0,1-.79-1,2.46,2.46,0,0,1-.27-.79,4.75,4.75,0,0,1,.8-2.29l.27-.49c2.15-3.61,7.62-10.51,9.87-13.3l2-2.47,1.1-1.25a4.16,4.16,0,0,1,1.57-1.12,27.54,27.54,0,0,1,4.09-1C85.88,62,95.78,59.49,97.81,59a41.14,41.14,0,0,0-13.07-2.38c-7.37,0-26.15,15.28-28.87,15.8-.14,0-52.31-15.19-52.48-15.18L-4,102c2.78.09,56.75,7.31,58.07,7.57.28-.27.8-.68.85-.72,3.39-2.42,5.9-3.51,8.08-3.51a5.75,5.75,0,0,1,4.29,1.89,6.75,6.75,0,0,1,1.9,3.56,9.71,9.71,0,0,1,4.55-1.46,5.51,5.51,0,0,1,4,1.75,6.28,6.28,0,0,1,2.13,5.33l.68-.23a5,5,0,0,1,1.36-.18,8,8,0,0,1,4.72,1.72,7.09,7.09,0,0,1,2.09,7,18.15,18.15,0,0,1,2-.24,5.72,5.72,0,0,1,4.66,2.19,6.12,6.12,0,0,1,1.34,3.08,6.92,6.92,0,0,1,0,1.64l11,8.07a11,11,0,0,0,2.35.79c2.25.34,8.12-2.92,8.15-5.06,0-.18,0-.34,0-.5l-26-19.68a.86.86,0,0,1,.52-1.55.8.8,0,0,1,.52.18l26.27,19.87c.7.52,4.66,1.72,9.15-2.33a17.27,17.27,0,0,0,2.83-3.2,2,2,0,0,0-.46-2.7l-24.51-18.58a.86.86,0,0,1,1-1.38L133.41,125a1.46,1.46,0,0,1,.39,0c1.64,0,3.77-1.94,6.2-5C141.7,117.72,141.73,114.76,141.6,113.2Z" transform="translate(4.04 -56.58)" fill="#e6e6e6"/><path d="M193.08,57c-.51,0-57.49,15.77-57.66,15.71-1.38-.52-19.28-14.36-24-14.69s-6.09,1-11,2.27h0c-5.42,1.37-11,2.9-12.64,3.27-3.08.69-6,1.09-6.7,1.84l0,0-3.08,3.76h0a156.83,156.83,0,0,0-9.72,13.09,0,0,0,0,0,0,0,5,5,0,0,0-.81,1.8c0-.32,1.31,1.65,2.62,2.58a11.15,11.15,0,0,0,6.24,1.5A15.22,15.22,0,0,0,82,86.93c4.88-2,7.41-3.94,8.67-5.24l.58-.64A5.65,5.65,0,0,0,92,80c0-.05.25-.78.25-.78h.63C93.59,79.08,98,78,100.74,77c1.13-.4,3.76-1.61,3.76-1.61s-1,3.06-1.16,3.23c.37.32,6.41,5.51,7.59,6.76,1.54,1.62,8.21,7,14.68,12.2,5.38,4.34,15,13.83,15.11,13.9l60.92-13.39Z" transform="translate(4.04 -56.58)" fill="#4cbeed"/><path d="M54.72,122l8-6.37,4.6-3.66a4.51,4.51,0,0,0-1.44-3.44c-2.11-2.2-5-1.68-10,1.89l-.17.12c-.87.62-5.53,5.74-3.95,8.94a5,5,0,0,0,2.91,2.59Z" transform="translate(4.04 -56.58)" fill="#4cbeed"/><path d="M70.49,123.41c2.77-2.2,5.84-4.66,7-5.63a4.4,4.4,0,0,0-1.16-5.32c-1.73-1.69-3.44-1.58-6.54.16-.24.12-.46.26-.68.39l-5.21,4.15L56.62,123c0,.12,0,.27,0,.43a7.56,7.56,0,0,0,1.18,4.5,8.4,8.4,0,0,0,3.93,2.43Z" transform="translate(4.04 -56.58)" fill="#4cbeed"/><path d="M71.39,138.56C76,134.49,82.91,128.41,84,127.47l.15-.14a12.62,12.62,0,0,1,2.07-1.56.77.77,0,0,0,.35-.42h0l.17-.5a5.32,5.32,0,0,0-1.46-5.74c-.36-.35-2.7-1.66-4.47-1h0a9.28,9.28,0,0,0-1.45.64c-.1.18-7.63,6.17-7.63,6.17l-8,6.33c.07.18.14.39.24.65A20.92,20.92,0,0,0,66,136.4c.72.93,3.35,1.95,5,2.53Z" transform="translate(4.04 -56.58)" fill="#4cbeed"/></g></svg>