<svg xmlns="http://www.w3.org/2000/svg" width="234.99" height="46.19" viewBox="0 0 234.99 46.19"><polygon points="39.5 34.35 39.5 11.84 20 0.58 0.5 11.84 0.5 34.35 20 45.61 39.5 34.35" fill="none" stroke="#36bdb2" stroke-miterlimit="10"/><polygon points="32.05 30.05 32.05 16.14 20 9.18 7.95 16.14 7.95 30.05 20 37 32.05 30.05" fill="none" stroke="#36bdb2" stroke-miterlimit="10"/><polyline points="20 37 20 21.59 32.05 16.14" fill="none" stroke="#36bdb2" stroke-miterlimit="10"/><polygon points="78.5 34.35 78.5 11.84 59 0.58 39.5 11.84 39.5 34.35 59 45.61 78.5 34.35" fill="none" stroke="#36bdb2" stroke-miterlimit="10"/><polygon points="71.04 30.05 71.04 16.14 59 9.18 46.95 16.14 46.95 30.05 59 37 71.04 30.05" fill="none" stroke="#36bdb2" stroke-miterlimit="10"/><polyline points="59 37 59 21.59 71.04 16.14" fill="none" stroke="#36bdb2" stroke-miterlimit="10"/><polygon points="117.5 34.35 117.5 11.84 98 0.58 78.5 11.84 78.5 34.35 98 45.61 117.5 34.35" fill="none" stroke="#36bdb2" stroke-miterlimit="10"/><polygon points="110.04 30.05 110.04 16.14 98 9.18 85.95 16.14 85.95 30.05 98 37 110.04 30.05" fill="none" stroke="#36bdb2" stroke-miterlimit="10"/><polyline points="98 37 98 21.59 110.04 16.14" fill="none" stroke="#36bdb2" stroke-miterlimit="10"/><polygon points="156.49 34.35 156.49 11.84 136.99 0.58 117.5 11.84 117.5 34.35 136.99 45.61 156.49 34.35" fill="none" stroke="#36bdb2" stroke-miterlimit="10"/><polygon points="149.04 30.05 149.04 16.14 136.99 9.18 124.95 16.14 124.95 30.05 136.99 37 149.04 30.05" fill="none" stroke="#36bdb2" stroke-miterlimit="10"/><polyline points="136.99 37 136.99 21.59 149.04 16.14" fill="none" stroke="#36bdb2" stroke-miterlimit="10"/><polygon points="195.49 34.35 195.49 11.84 175.99 0.58 156.49 11.84 156.49 34.35 175.99 45.61 195.49 34.35" fill="none" stroke="#36bdb2" stroke-miterlimit="10"/><polygon points="188.04 30.05 188.04 16.14 175.99 9.18 163.94 16.14 163.94 30.05 175.99 37 188.04 30.05" fill="none" stroke="#36bdb2" stroke-miterlimit="10"/><polyline points="175.99 37 175.99 21.59 188.04 16.14" fill="none" stroke="#36bdb2" stroke-miterlimit="10"/><polygon points="234.49 34.35 234.49 11.84 214.99 0.58 195.49 11.84 195.49 34.35 214.99 45.61 234.49 34.35" fill="none" stroke="#36bdb2" stroke-miterlimit="10"/><polygon points="227.04 30.05 227.04 16.14 214.99 9.18 202.94 16.14 202.94 30.05 214.99 37 227.04 30.05" fill="none" stroke="#36bdb2" stroke-miterlimit="10"/><polyline points="214.99 37 214.99 21.59 227.04 16.14" fill="none" stroke="#36bdb2" stroke-miterlimit="10"/></svg>