<svg xmlns="http://www.w3.org/2000/svg" width="340.5" height="172.43" viewBox="0 0 340.5 172.43"><circle cx="256.76" cy="83.74" r="83.74" fill="#e6e6e6"/><circle cx="256.76" cy="83.74" r="53.35" fill="#e6e6e6" stroke="#fff" stroke-miterlimit="10"/><circle cx="256.76" cy="83.74" r="28.01" fill="#e6e6e6" stroke="#fff" stroke-miterlimit="10"/><polygon points="39.5 78.05 39.5 55.53 20 44.28 0.5 55.53 0.5 78.05 20 89.31 39.5 78.05" fill="none" stroke="#36bdb2" stroke-miterlimit="10"/><polygon points="32.05 73.75 32.05 59.84 20 52.88 7.95 59.84 7.95 73.75 20 80.7 32.05 73.75" fill="none" stroke="#36bdb2" stroke-miterlimit="10"/><polyline points="20 80.7 20 65.29 32.05 59.84" fill="none" stroke="#36bdb2" stroke-miterlimit="10"/><polygon points="78.5 78.05 78.5 55.53 59 44.28 39.5 55.53 39.5 78.05 59 89.31 78.5 78.05" fill="none" stroke="#36bdb2" stroke-miterlimit="10"/><polygon points="71.04 73.75 71.04 59.84 59 52.88 46.95 59.84 46.95 73.75 59 80.7 71.04 73.75" fill="none" stroke="#36bdb2" stroke-miterlimit="10"/><polyline points="59 80.7 59 65.29 71.04 59.84" fill="none" stroke="#36bdb2" stroke-miterlimit="10"/><polygon points="117.5 78.05 117.5 55.53 98 44.28 78.5 55.53 78.5 78.05 98 89.31 117.5 78.05" fill="none" stroke="#36bdb2" stroke-miterlimit="10"/><polygon points="110.04 73.75 110.04 59.84 98 52.88 85.95 59.84 85.95 73.75 98 80.7 110.04 73.75" fill="none" stroke="#36bdb2" stroke-miterlimit="10"/><polyline points="98 80.7 98 65.29 110.04 59.84" fill="none" stroke="#36bdb2" stroke-miterlimit="10"/><polygon points="156.49 78.05 156.49 55.53 136.99 44.28 117.5 55.53 117.5 78.05 136.99 89.31 156.49 78.05" fill="none" stroke="#36bdb2" stroke-miterlimit="10"/><polygon points="149.04 73.75 149.04 59.84 136.99 52.88 124.95 59.84 124.95 73.75 136.99 80.7 149.04 73.75" fill="none" stroke="#36bdb2" stroke-miterlimit="10"/><polyline points="136.99 80.7 136.99 65.29 149.04 59.84" fill="none" stroke="#36bdb2" stroke-miterlimit="10"/><polygon points="195.49 78.05 195.49 55.53 175.99 44.28 156.49 55.53 156.49 78.05 175.99 89.31 195.49 78.05" fill="none" stroke="#36bdb2" stroke-miterlimit="10"/><polygon points="188.04 73.75 188.04 59.84 175.99 52.88 163.94 59.84 163.94 73.75 175.99 80.7 188.04 73.75" fill="none" stroke="#36bdb2" stroke-miterlimit="10"/><polyline points="175.99 80.7 175.99 65.29 188.04 59.84" fill="none" stroke="#36bdb2" stroke-miterlimit="10"/><polygon points="234.49 78.05 234.49 55.53 214.99 44.28 195.49 55.53 195.49 78.05 214.99 89.31 234.49 78.05" fill="none" stroke="#36bdb2" stroke-miterlimit="10"/><polygon points="227.04 73.75 227.04 59.84 214.99 52.88 202.94 59.84 202.94 73.75 214.99 80.7 227.04 73.75" fill="none" stroke="#36bdb2" stroke-miterlimit="10"/><polyline points="214.99 80.7 214.99 65.29 227.04 59.84" fill="none" stroke="#36bdb2" stroke-miterlimit="10"/><polygon points="39.5 160.6 39.5 138.08 20 126.82 0.5 138.08 0.5 160.6 20 171.85 39.5 160.6" fill="none" stroke="#36bdb2" stroke-miterlimit="10"/><polygon points="32.05 156.29 32.05 142.38 20 135.43 7.95 142.38 7.95 156.29 20 163.25 32.05 156.29" fill="none" stroke="#36bdb2" stroke-miterlimit="10"/><polyline points="20 163.25 20 147.84 32.05 142.38" fill="none" stroke="#36bdb2" stroke-miterlimit="10"/><polygon points="78.5 160.6 78.5 138.08 59 126.82 39.5 138.08 39.5 160.6 59 171.85 78.5 160.6" fill="none" stroke="#36bdb2" stroke-miterlimit="10"/><polygon points="71.04 156.29 71.04 142.38 59 135.43 46.95 142.38 46.95 156.29 59 163.25 71.04 156.29" fill="none" stroke="#36bdb2" stroke-miterlimit="10"/><polyline points="59 163.25 59 147.84 71.04 142.38" fill="none" stroke="#36bdb2" stroke-miterlimit="10"/><polygon points="117.5 160.6 117.5 138.08 98 126.82 78.5 138.08 78.5 160.6 98 171.85 117.5 160.6" fill="none" stroke="#36bdb2" stroke-miterlimit="10"/><polygon points="110.04 156.29 110.04 142.38 98 135.43 85.95 142.38 85.95 156.29 98 163.25 110.04 156.29" fill="none" stroke="#36bdb2" stroke-miterlimit="10"/><polyline points="98 163.25 98 147.84 110.04 142.38" fill="none" stroke="#36bdb2" stroke-miterlimit="10"/><polygon points="156.49 160.6 156.49 138.08 136.99 126.82 117.5 138.08 117.5 160.6 136.99 171.85 156.49 160.6" fill="none" stroke="#36bdb2" stroke-miterlimit="10"/><polygon points="149.04 156.29 149.04 142.38 136.99 135.43 124.95 142.38 124.95 156.29 136.99 163.25 149.04 156.29" fill="none" stroke="#36bdb2" stroke-miterlimit="10"/><polyline points="136.99 163.25 136.99 147.84 149.04 142.38" fill="none" stroke="#36bdb2" stroke-miterlimit="10"/><polygon points="195.49 160.6 195.49 138.08 175.99 126.82 156.49 138.08 156.49 160.6 175.99 171.85 195.49 160.6" fill="none" stroke="#36bdb2" stroke-miterlimit="10"/><polygon points="188.04 156.29 188.04 142.38 175.99 135.43 163.94 142.38 163.94 156.29 175.99 163.25 188.04 156.29" fill="none" stroke="#36bdb2" stroke-miterlimit="10"/><polyline points="175.99 163.25 175.99 147.84 188.04 142.38" fill="none" stroke="#36bdb2" stroke-miterlimit="10"/><polygon points="234.49 160.6 234.49 138.08 214.99 126.82 195.49 138.08 195.49 160.6 214.99 171.85 234.49 160.6" fill="none" stroke="#36bdb2" stroke-miterlimit="10"/><polygon points="227.04 156.29 227.04 142.38 214.99 135.43 202.94 142.38 202.94 156.29 214.99 163.25 227.04 156.29" fill="none" stroke="#36bdb2" stroke-miterlimit="10"/><polyline points="214.99 163.25 214.99 147.84 227.04 142.38" fill="none" stroke="#36bdb2" stroke-miterlimit="10"/><polygon points="59 119.32 59 96.81 39.5 85.55 20 96.81 20 119.32 39.5 130.58 59 119.32" fill="none" stroke="#36bdb2" stroke-miterlimit="10"/><polygon points="51.55 115.02 51.55 101.11 39.5 94.16 27.45 101.11 27.45 115.02 39.5 121.98 51.55 115.02" fill="none" stroke="#36bdb2" stroke-miterlimit="10"/><polyline points="39.5 121.98 39.5 106.56 51.55 101.11" fill="none" stroke="#36bdb2" stroke-miterlimit="10"/><polygon points="98 119.32 98 96.81 78.5 85.55 59 96.81 59 119.32 78.5 130.58 98 119.32" fill="none" stroke="#36bdb2" stroke-miterlimit="10"/><polygon points="90.54 115.02 90.54 101.11 78.5 94.16 66.45 101.11 66.45 115.02 78.5 121.98 90.54 115.02" fill="none" stroke="#36bdb2" stroke-miterlimit="10"/><polyline points="78.5 121.98 78.5 106.56 90.54 101.11" fill="none" stroke="#36bdb2" stroke-miterlimit="10"/><polygon points="136.99 119.32 136.99 96.81 117.5 85.55 98 96.81 98 119.32 117.5 130.58 136.99 119.32" fill="none" stroke="#36bdb2" stroke-miterlimit="10"/><polygon points="129.54 115.02 129.54 101.11 117.5 94.16 105.45 101.11 105.45 115.02 117.5 121.98 129.54 115.02" fill="none" stroke="#36bdb2" stroke-miterlimit="10"/><polyline points="117.5 121.98 117.5 106.56 129.54 101.11" fill="none" stroke="#36bdb2" stroke-miterlimit="10"/><polygon points="175.99 119.32 175.99 96.81 156.49 85.55 136.99 96.81 136.99 119.32 156.49 130.58 175.99 119.32" fill="none" stroke="#36bdb2" stroke-miterlimit="10"/><polygon points="168.54 115.02 168.54 101.11 156.49 94.16 144.45 101.11 144.45 115.02 156.49 121.98 168.54 115.02" fill="none" stroke="#36bdb2" stroke-miterlimit="10"/><polyline points="156.49 121.98 156.49 106.56 168.54 101.11" fill="none" stroke="#36bdb2" stroke-miterlimit="10"/><polygon points="214.99 119.32 214.99 96.81 195.49 85.55 175.99 96.81 175.99 119.32 195.49 130.58 214.99 119.32" fill="none" stroke="#36bdb2" stroke-miterlimit="10"/><polygon points="207.54 115.02 207.54 101.11 195.49 94.16 183.44 101.11 183.44 115.02 195.49 121.98 207.54 115.02" fill="none" stroke="#36bdb2" stroke-miterlimit="10"/><polyline points="195.49 121.98 195.49 106.56 207.54 101.11" fill="none" stroke="#36bdb2" stroke-miterlimit="10"/><polygon points="253.99 119.32 253.99 96.81 234.49 85.55 214.99 96.81 214.99 119.32 234.49 130.58 253.99 119.32" fill="none" stroke="#36bdb2" stroke-miterlimit="10"/><polygon points="246.54 115.02 246.54 101.11 234.49 94.16 222.44 101.11 222.44 115.02 234.49 121.98 246.54 115.02" fill="none" stroke="#36bdb2" stroke-miterlimit="10"/><polyline points="234.49 121.98 234.49 106.56 246.54 101.11" fill="none" stroke="#36bdb2" stroke-miterlimit="10"/><line x1="284.76" y1="83.74" x2="340.5" y2="83.74" fill="none" stroke="#fff" stroke-miterlimit="10"/></svg>