<svg xmlns="http://www.w3.org/2000/svg" width="371.25" height="78.12" viewBox="0 0 371.25 78.12"><rect x="236.08" y="34.16" width="68.09" height="9.8" fill="#fff" stroke="#36bdb2" stroke-miterlimit="10"/><path d="M3.47,32.25H269A5.79,5.79,0,0,1,274.77,38v2A5.79,5.79,0,0,1,269,45.87H3.47a3,3,0,0,1-3-3V35.22a3,3,0,0,1,3-3Z" fill="#fff" stroke="#36bdb2" stroke-miterlimit="10"/><circle cx="332.19" cy="39.06" r="38.56" fill="#fff" stroke="#36bdb2" stroke-miterlimit="10"/><line x1="216.34" y1="32.32" x2="216.34" y2="45.93" fill="#fff" stroke="#36bdb2" stroke-miterlimit="10"/><line x1="227.06" y1="32.32" x2="227.06" y2="45.93" fill="#fff" stroke="#36bdb2" stroke-miterlimit="10"/><line x1="205.63" y1="32.32" x2="205.63" y2="45.93" fill="#fff" stroke="#36bdb2" stroke-miterlimit="10"/><line x1="194.91" y1="32.32" x2="194.91" y2="45.93" fill="#fff" stroke="#36bdb2" stroke-miterlimit="10"/><line x1="184.2" y1="32.32" x2="184.2" y2="45.93" fill="#fff" stroke="#36bdb2" stroke-miterlimit="10"/><line x1="173.48" y1="32.32" x2="173.48" y2="45.93" fill="#fff" stroke="#36bdb2" stroke-miterlimit="10"/><line x1="295.47" y1="50.85" x2="316.92" y2="29.4" fill="#fff" stroke="#36bdb2" stroke-miterlimit="10"/><line x1="319.88" y1="26.44" x2="325.62" y2="20.7" fill="#fff" stroke="#36bdb2" stroke-miterlimit="10"/><line x1="328.99" y1="17.33" x2="338.16" y2="8.16" fill="#fff" stroke="#36bdb2" stroke-miterlimit="10"/><line x1="299.84" y1="59.42" x2="312.12" y2="47.15" fill="#fff" stroke="#36bdb2" stroke-miterlimit="10"/><line x1="315.29" y1="73.22" x2="343.09" y2="45.41" fill="#fff" stroke="#36bdb2" stroke-miterlimit="10"/><line x1="346" y1="42.51" x2="366.79" y2="21.72" fill="#fff" stroke="#36bdb2" stroke-miterlimit="10"/><line x1="345.94" y1="59.32" x2="370.35" y2="34.91" fill="#fff" stroke="#36bdb2" stroke-miterlimit="10"/></svg>