<svg xmlns="http://www.w3.org/2000/svg" width="426.37" height="166.43" viewBox="0 0 426.37 166.43"><circle cx="83.21" cy="55.78" r="7.32" fill="none" stroke="#ededed" stroke-miterlimit="10"/><circle cx="83.21" cy="83.21" r="7.32" fill="none" stroke="#ededed" stroke-miterlimit="10"/><circle cx="83.21" cy="110.64" r="7.32" fill="none" stroke="#ededed" stroke-miterlimit="10"/><circle cx="104.17" cy="55.78" r="7.32" fill="none" stroke="#ededed" stroke-miterlimit="10"/><circle cx="104.17" cy="83.21" r="7.32" fill="none" stroke="#ededed" stroke-miterlimit="10"/><circle cx="104.17" cy="110.64" r="7.32" fill="none" stroke="#ededed" stroke-miterlimit="10"/><circle cx="125.13" cy="55.78" r="7.32" fill="none" stroke="#ededed" stroke-miterlimit="10"/><circle cx="125.13" cy="83.21" r="7.32" fill="none" stroke="#ededed" stroke-miterlimit="10"/><circle cx="125.13" cy="110.64" r="7.32" fill="none" stroke="#ededed" stroke-miterlimit="10"/><circle cx="146.09" cy="55.78" r="7.32" fill="none" stroke="#ededed" stroke-miterlimit="10"/><circle cx="146.09" cy="83.21" r="7.32" fill="none" stroke="#ededed" stroke-miterlimit="10"/><circle cx="146.09" cy="110.64" r="7.32" fill="none" stroke="#ededed" stroke-miterlimit="10"/><circle cx="167.05" cy="55.78" r="7.32" fill="none" stroke="#ededed" stroke-miterlimit="10"/><circle cx="167.05" cy="83.21" r="7.32" fill="none" stroke="#ededed" stroke-miterlimit="10"/><circle cx="167.05" cy="110.64" r="7.32" fill="none" stroke="#ededed" stroke-miterlimit="10"/><circle cx="188.01" cy="55.78" r="7.32" fill="none" stroke="#ededed" stroke-miterlimit="10"/><circle cx="188.01" cy="83.21" r="7.32" fill="none" stroke="#ededed" stroke-miterlimit="10"/><circle cx="188.01" cy="110.64" r="7.32" fill="none" stroke="#ededed" stroke-miterlimit="10"/><circle cx="208.96" cy="55.78" r="7.32" fill="none" stroke="#ededed" stroke-miterlimit="10"/><circle cx="208.96" cy="83.21" r="7.32" fill="none" stroke="#ededed" stroke-miterlimit="10"/><circle cx="208.96" cy="110.64" r="7.32" fill="none" stroke="#ededed" stroke-miterlimit="10"/><circle cx="229.92" cy="55.78" r="7.32" fill="none" stroke="#ededed" stroke-miterlimit="10"/><circle cx="229.92" cy="83.21" r="7.32" fill="none" stroke="#ededed" stroke-miterlimit="10"/><circle cx="229.92" cy="110.64" r="7.32" fill="none" stroke="#ededed" stroke-miterlimit="10"/><circle cx="250.88" cy="55.78" r="7.32" fill="none" stroke="#ededed" stroke-miterlimit="10"/><circle cx="250.88" cy="83.21" r="7.32" fill="none" stroke="#ededed" stroke-miterlimit="10"/><circle cx="250.88" cy="110.64" r="7.32" fill="none" stroke="#ededed" stroke-miterlimit="10"/><circle cx="271.84" cy="55.78" r="7.32" fill="none" stroke="#ededed" stroke-miterlimit="10"/><circle cx="271.84" cy="83.21" r="7.32" fill="none" stroke="#ededed" stroke-miterlimit="10"/><circle cx="271.84" cy="110.64" r="7.32" fill="none" stroke="#ededed" stroke-miterlimit="10"/><circle cx="292.8" cy="55.78" r="7.32" fill="none" stroke="#ededed" stroke-miterlimit="10"/><circle cx="292.8" cy="83.21" r="7.32" fill="none" stroke="#ededed" stroke-miterlimit="10"/><circle cx="292.8" cy="110.64" r="7.32" fill="none" stroke="#ededed" stroke-miterlimit="10"/><circle cx="313.76" cy="55.78" r="7.32" fill="none" stroke="#ededed" stroke-miterlimit="10"/><circle cx="313.76" cy="83.21" r="7.32" fill="none" stroke="#ededed" stroke-miterlimit="10"/><circle cx="313.76" cy="110.64" r="7.32" fill="none" stroke="#ededed" stroke-miterlimit="10"/><circle cx="334.71" cy="55.78" r="7.32" fill="none" stroke="#ededed" stroke-miterlimit="10"/><circle cx="334.71" cy="83.21" r="7.32" fill="none" stroke="#ededed" stroke-miterlimit="10"/><circle cx="334.71" cy="110.64" r="7.32" fill="none" stroke="#ededed" stroke-miterlimit="10"/><circle cx="355.67" cy="55.78" r="7.32" fill="none" stroke="#ededed" stroke-miterlimit="10"/><circle cx="355.67" cy="83.21" r="7.32" fill="none" stroke="#ededed" stroke-miterlimit="10"/><circle cx="355.67" cy="110.64" r="7.32" fill="none" stroke="#ededed" stroke-miterlimit="10"/><circle cx="376.63" cy="55.78" r="7.32" fill="none" stroke="#ededed" stroke-miterlimit="10"/><circle cx="376.63" cy="83.21" r="7.32" fill="none" stroke="#ededed" stroke-miterlimit="10"/><circle cx="376.63" cy="110.64" r="7.32" fill="none" stroke="#ededed" stroke-miterlimit="10"/><circle cx="397.59" cy="55.78" r="7.32" fill="none" stroke="#ededed" stroke-miterlimit="10"/><circle cx="397.59" cy="83.21" r="7.32" fill="none" stroke="#ededed" stroke-miterlimit="10"/><circle cx="397.59" cy="110.64" r="7.32" fill="none" stroke="#ededed" stroke-miterlimit="10"/><circle cx="418.55" cy="55.78" r="7.32" fill="none" stroke="#ededed" stroke-miterlimit="10"/><circle cx="418.55" cy="83.21" r="7.32" fill="none" stroke="#ededed" stroke-miterlimit="10"/><circle cx="418.55" cy="110.64" r="7.32" fill="none" stroke="#ededed" stroke-miterlimit="10"/><circle cx="83.21" cy="83.21" r="82.71" fill="none" stroke="#004785" stroke-miterlimit="10"/><circle cx="83.21" cy="83.21" r="20.98" fill="none" stroke="#36bdb2" stroke-miterlimit="10"/><circle cx="83.21" cy="83.21" r="58.49" fill="none" stroke="#e6e6e6" stroke-miterlimit="10"/><path d="M83.21,39.32a43.9,43.9,0,1,1-43.87,45.1" fill="none" stroke="#004785" stroke-miterlimit="10"/><path d="M44.52,91a.51.51,0,0,1-.7-.12l-4.43-6.24-3.78,6.65a.49.49,0,0,1-.68.19.5.5,0,0,1-.19-.68l4.17-7.33a.5.5,0,0,1,.41-.26.49.49,0,0,1,.43.21l4.89,6.88a.62.62,0,0,1,.09.26A.52.52,0,0,1,44.52,91Z" fill="#004785"/><line x1="83.26" y1="6.63" x2="83.26" y2="17.02" fill="none" stroke="#004785" stroke-linecap="round" stroke-miterlimit="10"/><line x1="59.59" y1="10.37" x2="62.8" y2="20.24" fill="none" stroke="#004785" stroke-linecap="round" stroke-miterlimit="10"/><line x1="38.24" y1="21.23" x2="44.34" y2="29.63" fill="none" stroke="#004785" stroke-linecap="round" stroke-miterlimit="10"/><line x1="21.28" y1="38.16" x2="29.69" y2="44.27" fill="none" stroke="#004785" stroke-linecap="round" stroke-miterlimit="10"/><line x1="10.39" y1="59.51" x2="20.27" y2="62.71" fill="none" stroke="#004785" stroke-linecap="round" stroke-miterlimit="10"/><line x1="6.63" y1="83.17" x2="17.02" y2="83.17" fill="none" stroke="#004785" stroke-linecap="round" stroke-miterlimit="10"/><line x1="10.37" y1="106.83" x2="20.24" y2="103.63" fill="none" stroke="#004785" stroke-linecap="round" stroke-miterlimit="10"/><line x1="21.23" y1="128.19" x2="29.63" y2="122.09" fill="none" stroke="#004785" stroke-linecap="round" stroke-miterlimit="10"/><line x1="38.16" y1="145.14" x2="44.27" y2="136.74" fill="none" stroke="#004785" stroke-linecap="round" stroke-miterlimit="10"/><line x1="59.51" y1="156.03" x2="62.71" y2="146.15" fill="none" stroke="#004785" stroke-linecap="round" stroke-miterlimit="10"/><line x1="83.17" y1="159.79" x2="83.17" y2="149.41" fill="none" stroke="#004785" stroke-linecap="round" stroke-miterlimit="10"/><line x1="106.83" y1="156.06" x2="103.63" y2="146.18" fill="none" stroke="#004785" stroke-linecap="round" stroke-miterlimit="10"/><line x1="128.19" y1="145.19" x2="122.09" y2="136.79" fill="none" stroke="#004785" stroke-linecap="round" stroke-miterlimit="10"/><line x1="145.14" y1="128.26" x2="136.74" y2="122.16" fill="none" stroke="#004785" stroke-linecap="round" stroke-miterlimit="10"/><line x1="156.03" y1="106.92" x2="146.15" y2="103.71" fill="none" stroke="#004785" stroke-linecap="round" stroke-miterlimit="10"/><line x1="159.79" y1="83.26" x2="149.41" y2="83.26" fill="none" stroke="#004785" stroke-linecap="round" stroke-miterlimit="10"/><line x1="156.06" y1="59.59" x2="146.18" y2="62.8" fill="none" stroke="#004785" stroke-linecap="round" stroke-miterlimit="10"/><line x1="145.19" y1="38.24" x2="136.79" y2="44.34" fill="none" stroke="#004785" stroke-linecap="round" stroke-miterlimit="10"/><line x1="128.26" y1="21.28" x2="122.16" y2="29.69" fill="none" stroke="#004785" stroke-linecap="round" stroke-miterlimit="10"/><line x1="106.92" y1="10.39" x2="103.71" y2="20.27" fill="none" stroke="#004785" stroke-linecap="round" stroke-miterlimit="10"/></svg>