<svg xmlns="http://www.w3.org/2000/svg" xmlns:xlink="http://www.w3.org/1999/xlink" width="228.71" height="319.95" viewBox="0 0 228.71 319.95"><defs><clipPath id="a"><path d="M166.15,12.94a113.87,113.87,0,1,1-141.27,31c6-7.66,3.39-23.69,11.17-29.58C44.7,7.82,64,11.63,74.28,7.75" fill="none"/></clipPath></defs><g style="isolation:isolate"><circle cx="114.35" cy="114.35" r="113.85" fill="#e6e6e6"/><g clip-path="url(#a)"><circle cx="53.56" cy="34.45" r="21.98" fill="#e6e6e6" stroke="#004785" stroke-miterlimit="10"/><path d="M106.1,306.59h16.8A17.17,17.17,0,0,0,140,289.47l3.22-50.64c0-3.72-70.64-27.11-70.64-27.11-9.41,0-2.58,28.51-.19,39.31L83.3,294.16C86.42,303.58,96.69,306.59,106.1,306.59Z" fill="#e6e6e6" stroke="#004785" stroke-miterlimit="10"/><path d="M72.41,208.29c-.55-19.17-4-50.11,14.83-51.87,18.62-1.75,20.71,13.7,23.72,29.22s0,84.84,0,84.84-.72,11.4-11.45,15.24-13.91-2.58-13.91-2.58S73,227.47,72.41,208.29Z" fill="#e6e6e6" stroke="#004785" stroke-miterlimit="10"/><ellipse cx="138.88" cy="75.63" rx="2.51" ry="3.79" transform="translate(-0.9 1.67) rotate(-0.69)" fill="#e6e6e6" stroke="#004785" stroke-miterlimit="10"/><path d="M110.1,79.42c1.52,7.83-1.48,19.9-4.59,21.3-5.91,2.68-13.09-1.81-16.32-10.63S88,71.73,93.78,68.79,108.31,70.2,110.1,79.42Z" fill="#e6e6e6" stroke="#004785" stroke-miterlimit="10"/><path d="M106.76,78.8c1.43,2.64.6,16.66-1.05,18.66-3.21,3.88-9.8-.86-12.83-7.59S90.69,75.64,94.75,73.1,103.1,72.08,106.76,78.8Z" fill="#e6e6e6" stroke="#004785" stroke-miterlimit="10" style="mix-blend-mode:multiply"/><rect x="135.32" y="65.76" width="7.81" height="1.95" rx="0.76" transform="translate(285.29 116.76) rotate(173.29)" fill="#e6e6e6" stroke="#004785" stroke-miterlimit="10"/><path d="M120,124.1c5.46.87,22.55,3.93,27.07.53,3.67-2.77,1.53-9.39,1.53-9.39l2-6.85.17-.59s-1.19-2-1.33-2.26a.1.1,0,0,1,0,0l2.32-4.81.08-.17-1.25-6.09V82.13l-2.3-10.66s-2.75,15-3.69,23a22.89,22.89,0,0,0,.37,4.66c.08.73.16,1.48.25,2.22,0,.36.08.73.13,1.09.14,1.28.28,2.57.41,3.85a8.24,8.24,0,0,1,0,1.31c-.3,8.28-10.87,12.25-17.6,14.39C125.47,122.81,122.7,123.3,120,124.1Z" fill="#e6e6e6" stroke="#004785" stroke-miterlimit="10"/><circle cx="139.03" cy="88.07" r="7.61" fill="#e6e6e6" stroke="#004785" stroke-miterlimit="10" opacity="0.15"/><path d="M171.38,311.33c8.59-36.52-19.94-78.46-19.94-78.46-11.17-14.08-78.84-21.15-78.84-21.15-9.41,0-2.58,28.51-.19,39.31L83.3,294.16c3.12,9.42,13.39,12.43,22.8,12.43" fill="#e6e6e6" stroke="#004785" stroke-miterlimit="10"/><path d="M63.16,193.89c0,30.55,9.06,55.07,24.49,65.91s10,23.15,38.72,11.93c7.51-2.93,14.93-6.72,18.76-20,1-3.54-4.52-16.66-.29-19.47,6.65-4.4,17.78-5.25,17.84-20.15.09-23-38.15-37.19-45.17-55.8-2.77-7.33-23.54-10.2-29.86-7C80.45,153,63.16,163.35,63.16,193.89Z" fill="#e6e6e6" stroke="#004785" stroke-miterlimit="10"/><path d="M120.56,125.15c.17-26.62-30.31-23.87-30.31-23.87s-1.81,37.49-3.77,50.11c-.37,2.33,7.13,4.58,15.81,6.3,4.59.91,14.81,1.42,15.22-1.41C119.31,143.85,120.56,125.15,120.56,125.15Z" fill="#e6e6e6" stroke="#004785" stroke-miterlimit="10"/><path d="M68.36,82.08a61.06,61.06,0,0,0,30.09,24h0a7.74,7.74,0,0,0,.82.28l7.95,2.11c.87,1.79,1.91,3.88,3.11,6.31A22.19,22.19,0,0,0,120,124.1s20.27,2.09,24.74.78c2.46-.72,2.64-14.08,4-29.59a100.39,100.39,0,0,0-.49-22.39,52.36,52.36,0,0,0,1-10.47,48.56,48.56,0,0,0-4.37-17.53,32.6,32.6,0,0,0-3.27-5.77C129.21,22.61,111.64,19,93.4,22,70.44,25.89,52.38,56.8,68.36,82.08Z" fill="#e6e6e6"/><ellipse cx="140.61" cy="75.62" rx="1.98" ry="3.79" transform="translate(-0.9 1.69) rotate(-0.69)" fill="#e6e6e6" stroke="#004785" stroke-miterlimit="10"/><path d="M135.54,68.12l6.93-.78a.76.76,0,0,0,.66-.84l0-.43a.76.76,0,0,0-.84-.67l-3.89.46C135.74,66.22,135.13,68.17,135.54,68.12Z" fill="#e6e6e6" stroke="#004785" stroke-miterlimit="10"/><path d="M152.65,80.64c2,3.84,4,5.17,4.27,8.72.31,4.32-5.85,7.54-5.85,7.54l-.51-2.48L148.4,72.18S150.63,76.79,152.65,80.64Z" fill="#e6e6e6" stroke="#004785" stroke-linejoin="round"/><path d="M136.83,100.52s4.72,5.23,7.31,6.57a6.44,6.44,0,0,0,1.61.47c.8.16,3,.53,4.82.82l.18-.57s-.89-1.49-1.22-2.08a1.93,1.93,0,0,1-.1-.19.06.06,0,0,1,0,0l1-2.09,1.39-2.89c-1.61.16-7,.21-7,.21S136.92,100.46,136.83,100.52Z" fill="#e6e6e6" stroke="#004785" stroke-linejoin="round"/><ellipse cx="140.27" cy="88.07" rx="6.38" ry="7.61" fill="#4cbeed" opacity="0.15" style="mix-blend-mode:multiply"/><path d="M62.33,59.44l0,0A42.32,42.32,0,0,1,74.28,32.49,35.18,35.18,0,0,1,93.4,22a71,71,0,0,1,8.83-.93c15-.61,29,4.19,39.34,18a32.6,32.6,0,0,1,3.27,5.77c-10.09-5.43-26.71-14-27.24-14.44l3.76,14.45s1.89,21.83-9.66,30.27a16.05,16.05,0,0,1-2.12,1.31A19.45,19.45,0,0,1,99.27,78.4c-2.83-.17-2.65,31.9-6.11,42.47l-3.07-16.42c.2,6.32-.13,14.39-.8,14-.87-.49-8.68-14-11.86-21.55C59.19,82,62.33,59.44,62.33,59.44Z" fill="#e6e6e6" stroke="#004785" stroke-linejoin="round"/><path d="M96.5,99.82a19,19,0,0,1-7.31-9.73C86,81.27,88,71.73,93.78,68.79c5.23-2.67,12.89.64,15.63,8.13" fill="#e6e6e6" stroke="#004785" stroke-linecap="round" stroke-miterlimit="10"/><path d="M107.24,90.41c.42-4.64.36-10.07-.48-11.61-3.66-6.72-8-8.24-12-5.7C91,75.46,90,82.1,92.29,88.42" fill="#e6e6e6" stroke="#004785" stroke-linecap="round" stroke-miterlimit="10"/><path d="M171.39,319.77a2.52,2.52,0,0,0,.14-.85s1.68-7.52,1.65-24.74c0-2.33-.11-5-.3-7.9-1.49-23.21-8.12-62.06-9.26-71.32-.57-4.78-2.2-13.05-4.7-17.07-.62-1-1.3-2-2-2.91-6.73-8.89-17-15.27-21-18-14.86-9.87-33.49-21.15-49.35-28.23-6.62,4.58-20,12.9-22.64,32.47-.12.9-.24,1.79-.33,2.66s-.21,1.77-.27,2.64c-2.36,25,3.93,40.42,4.84,44.94,1.14,5.57,2.47,12.18,3.5,17,.3,1.49.59,2.79.83,3.86l12.58,41.82a15.71,15.71,0,0,0,7,8.64c4.5,2.76,10.31,3.79,15.82,3.79h16.79" fill="#e6e6e6" stroke="#004785" stroke-miterlimit="10"/><line x1="156.91" y1="194.98" x2="63.6" y2="183.89" fill="none" stroke="#004785" stroke-miterlimit="10"/><path d="M70.79,211C67.7,192,74.63,159.31,82.73,157.74c18-3.51,17.49,10.74,22.49,25.73s11.31,84.07,11.31,84.07,10.58,21.22.67,26.43-18.32.88-20.3-3.65C95.06,286.11,73.88,229.88,70.79,211Z" fill="#e6e6e6" stroke="#004785" stroke-miterlimit="10"/><path d="M117.39,186.89c-.72-5.78-1.31-10-1.64-11.33-1.5-6.16-8.16-23.13-24.5-21.42-11.41,1.19-16.44,7.55-19.15,18.2" fill="#e6e6e6" stroke="#004785" stroke-miterlimit="10"/><path d="M72.1,172.34a116.32,116.32,0,0,0-2.55,16.15c-1.22,11.82.35,29.9,1.87,42.94.11,1,.24,2,.35,2.91,1,7.84,1.82,13.23,1.82,13.23l50.73,1.59s-.65-6.11-1.59-14.82c-.09-.93-.2-1.91-.3-2.91-1.48-13.79-3.55-32.54-5-44.54" fill="#e6e6e6" stroke="#004785" stroke-miterlimit="10"/><path d="M71.42,231.43c.11,1,.24,2,.35,2.91h51c-.09-.93-.2-1.91-.3-2.91Z" fill="#e6e6e6" stroke="#004785" stroke-miterlimit="10"/><polygon points="86.57 148.76 87.11 143.96 133.62 173.94 138.27 177.66 141.65 180.91 134.14 176.72 86.57 148.76" fill="#e6e6e6" stroke="#004785" stroke-miterlimit="10"/><path d="M141.65,102.55l3.2,1.9,4.68,1.28a1.93,1.93,0,0,1-.1-.19.06.06,0,0,1,0,0l1-2.09Z" fill="#e6e6e6" stroke="#004785" stroke-miterlimit="10"/><path d="M58.58,55.85c2.8-12,7.86-21.45,16.51-26.8" fill="none" stroke="#004785" stroke-miterlimit="10"/><path d="M144.84,44.9s2.7,4.4,4.1,14.14a37,37,0,0,1-.46,12.73" fill="#e6e6e6" stroke="#004785" stroke-linecap="round" stroke-linejoin="round"/></g><path d="M61.17,13.66A114,114,0,1,1,31.56,36.2" fill="none" stroke="#004785" stroke-miterlimit="10"/><polygon points="108.32 74.58 131.52 94.24 135.67 90.22 107.31 72.57 108.32 74.58" fill="#fff" stroke="#004785" stroke-linejoin="round"/><path d="M150.31,76.05s8.21,7.15,8.82,16.14S152,125.81,144,126.54s-19.43-1.22-19.43-1.22L95.05,98.77l27.89,16.94,8.58-21.47Z" fill="#fff" stroke="#004785" stroke-linejoin="round"/><path d="M146.76,85.18s4.5-6,5.61-6.44a7.34,7.34,0,0,1,2,2.39s-4.33,4.44-4.67,5.44C147.76,85.74,146.76,85.18,146.76,85.18Z" fill="#fff" stroke="#004785" stroke-linejoin="round"/><rect x="154.39" y="100.82" width="4.1" height="10.89" rx="1.74" transform="translate(32.35 -36.45) rotate(14.8)" fill="#fff" stroke="#4c7eaa" stroke-linejoin="round"/><line x1="135.67" y1="113.87" x2="144.14" y2="107.09" fill="none" stroke="#4c7eaa" stroke-linejoin="round"/><line x1="135.67" y1="119.84" x2="139.91" y2="116.68" fill="none" stroke="#4c7eaa" stroke-linejoin="round"/><line x1="122.97" y1="120.2" x2="124.65" y2="123.07" fill="none" stroke="#4c7eaa" stroke-linejoin="round"/><path d="M104.31,98.63a5.06,5.06,0,0,1-6,2.1" fill="#e6e6e6" stroke="#004785" stroke-linecap="round" stroke-miterlimit="10"/></g></svg>