<svg xmlns="http://www.w3.org/2000/svg" width="259.34" height="255" viewBox="0 0 259.34 255"><path d="M258.84,127.5a127,127,0,0,1-254,1.2" fill="none" stroke="#004785" stroke-miterlimit="10"/><path d="M9.84,135.41a.5.5,0,0,1-.7-.13l-4.27-6.35L.93,135.48a.51.51,0,0,1-.69.18A.52.52,0,0,1,.07,135l4.35-7.23a.51.51,0,0,1,.42-.24.5.5,0,0,1,.42.22l4.71,7a.43.43,0,0,1,.09.26A.53.53,0,0,1,9.84,135.41Z" fill="#004785"/><path d="M131.84.5q3,0,6,.14" fill="none" stroke="#004785" stroke-miterlimit="10"/><path d="M150.28,1.83a127.06,127.06,0,0,1,108,113.44" fill="none" stroke="#004785" stroke-miterlimit="10" stroke-dasharray="12.5 12.5"/><path d="M258.7,121.5q.14,3,.14,6" fill="none" stroke="#004785" stroke-miterlimit="10"/></svg>