<svg xmlns="http://www.w3.org/2000/svg" width="57.01" height="57.01" viewBox="0 0 57.01 57.01"><path d="M54.69,24.13l-8.25-1.4c-.17-.52-.35-1-.57-1.55,0,0,0,0,0,0-.18-.42-.37-.83-.58-1.24l4.8-6.9a2.17,2.17,0,0,0-.25-2.78L46.75,7.15A2.19,2.19,0,0,0,44,6.91L38.16,11,36,11.21,35.43,11A2.21,2.21,0,0,1,34,9.34l-1.26-7A2.19,2.19,0,0,0,30.63.5H26.28a2.18,2.18,0,0,0-2.15,1.81l-1.19,7A2.23,2.23,0,0,1,21.55,11l-.49.2A2.19,2.19,0,0,1,18.9,11L13,6.93a2.18,2.18,0,0,0-2.78.24L7.15,10.26a2.18,2.18,0,0,0-.24,2.8L11,18.86A2.18,2.18,0,0,1,11.22,21c-.06.16-.13.31-.19.47A2.2,2.2,0,0,1,9.38,22.9L2.29,24.17A2.19,2.19,0,0,0,.5,26.32v4.35a2.18,2.18,0,0,0,1.81,2.15l7,1.19A2.22,2.22,0,0,1,11,35.42c.07.18.14.36.22.54A2.21,2.21,0,0,1,11,38.1L6.93,44a2.2,2.2,0,0,0,.24,2.79l3.09,3.08a2.18,2.18,0,0,0,2.8.24L18.83,46A2.22,2.22,0,0,1,21,45.8l.51.21a2.21,2.21,0,0,1,1.4,1.65l1.26,7.05a2.19,2.19,0,0,0,2.15,1.8h4.35a2.18,2.18,0,0,0,2.15-1.82l1.18-7A2.22,2.22,0,0,1,35.41,46l.56-.23a2.22,2.22,0,0,1,2.15.18L44,50.08a2.18,2.18,0,0,0,2.79-.25l3.08-3.08A2.19,2.19,0,0,0,50.1,44L46,38.17A2.21,2.21,0,0,1,45.8,36c.08-.18.16-.37.23-.56A2.21,2.21,0,0,1,47.68,34l7-1.26a2.19,2.19,0,0,0,1.8-2.15V26.28A2.18,2.18,0,0,0,54.69,24.13Z" fill="none" stroke="#3ab6af" stroke-miterlimit="10"/><circle cx="28.5" cy="28.5" r="14.29" transform="translate(-0.2 56.8) rotate(-89.59)" fill="none" stroke="#3ab6af" stroke-miterlimit="10"/></svg>