<svg xmlns="http://www.w3.org/2000/svg" width="243.65" height="243.65" viewBox="0 0 243.65 243.65"><circle cx="121.83" cy="121.83" r="121.33" fill="none" stroke="#004785" stroke-miterlimit="10"/><path d="M121.9,100.81H90.08c-13.64.24-24.67,8-24.61,17.17v28.24c0,9.14,4.55,16.08,23.67,25.13A153.08,153.08,0,0,0,121.9,183Z" fill="#fff" stroke="#004785" stroke-linejoin="round"/><path d="M121.84,100.81h31.82c13.64.24,24.67,8,24.61,17.17v28.24c0,9.14-4.55,16.08-23.67,25.13A153.08,153.08,0,0,1,121.84,183Z" fill="#fff" stroke="#004785" stroke-linejoin="round"/><polygon points="16.39 114.02 16.32 111.03 227.34 110.58 227.34 114.02 121.86 154.72 16.39 114.02" fill="#fff"/><path d="M226.84,111.09v2.59l-105,40.51-105-40.52-.05-2.14,210-.44m1-1-212,.45.09,3.83,106,40.9,106-40.9v-4.28Z" fill="#004785"/><polygon points="17.2 110.53 121.87 69.72 226.45 110.08 121.86 150.44 17.2 110.53" fill="#fff"/><path d="M121.87,70.26l103.19,39.82L121.86,149.9,18.59,110.52,121.87,70.26m0-1.07L15.81,110.53,121.87,151l106-40.89-106-40.89Z" fill="#004785"/><path d="M199.52,182.76c-2.66-2.37-3.27-7.67-4.79-22a7.73,7.73,0,0,0-2.95-5.09v-4.33a6.23,6.23,0,0,0-1.38-11.12V126a2,2,0,0,0-1.27-1.85L121.62,98.11a2,2,0,0,0-1.44,3.71l66.25,25.57v12.83A6.25,6.25,0,0,0,185,151.39v4.32A7.73,7.73,0,0,0,182,160.8c-1.52,14.29-2.13,19.59-4.79,22-.9,3.3,4,7.1,11.08,7.14h.15C195.5,189.86,200.42,186.05,199.52,182.76Z" fill="#fff" stroke="#004785" stroke-miterlimit="10"/><path d="M133.54,99.26c0,3.25-5.19,5.88-11.6,5.88s-11.61-2.63-11.61-5.88,5.19-5.87,11.61-5.87S133.54,96,133.54,99.26Z" fill="#fff" stroke="#004785" stroke-miterlimit="10"/><line x1="26.94" y1="111.06" x2="118.12" y2="144.99" fill="none" stroke="#004785" stroke-linejoin="round"/><line x1="183.84" y1="161.95" x2="181.72" y2="182.09" fill="none" stroke="#004785" stroke-linejoin="round"/><line x1="118.12" y1="156.65" x2="118.12" y2="177.85" fill="none" stroke="#004785" stroke-linejoin="round"/></svg>