<svg xmlns="http://www.w3.org/2000/svg" width="427" height="120.57" viewBox="0 0 427 120.57"><circle cx="60.15" cy="60.28" r="59.65" fill="#fff" stroke="#004785" stroke-miterlimit="10"/><circle cx="60.15" cy="60.28" r="39.56" fill="#36bdb2" stroke="#004785" stroke-miterlimit="10"/><circle cx="60.15" cy="60.28" r="17.86" fill="#e6e6e6" stroke="#004785" stroke-miterlimit="10"/><circle cx="366.85" cy="60.28" r="59.65" fill="#fff" stroke="#004785" stroke-miterlimit="10"/><line x1="330.5" y1="12.54" x2="414.6" y2="96.64" fill="#fff" stroke="#004785" stroke-miterlimit="10"/><line x1="319.11" y1="23.93" x2="403.21" y2="108.03" fill="#fff" stroke="#004785" stroke-miterlimit="10"/><path d="M267,39.52,229.86,76.64,197.13,43.92,234.26,6.79a21.66,21.66,0,0,1,30.53,0L267,9A21.66,21.66,0,0,1,267,39.52Z" fill="#36bdb2" stroke="#004785" stroke-miterlimit="10"/><path d="M229.86,76.64l-37.13,37.13a21.64,21.64,0,0,1-30.53,0L160,111.58a21.64,21.64,0,0,1,0-30.53l37.12-37.13Z" fill="#fff" stroke="#004785" stroke-miterlimit="10"/><line x1="262.4" y1="39.12" x2="257.74" y2="43.78" fill="none" stroke="#004785" stroke-linecap="round" stroke-miterlimit="10"/><line x1="254.47" y1="47.05" x2="231.71" y2="69.81" fill="none" stroke="#004785" stroke-linecap="round" stroke-miterlimit="10"/><path d="M390.22,107.15a51.64,51.64,0,0,1-11.38,4.11" fill="none" stroke="#004785" stroke-linecap="round" stroke-miterlimit="10"/><path d="M417.41,46.63a52.48,52.48,0,0,1-5.56,40.43" fill="none" stroke="#004785" stroke-linecap="round" stroke-miterlimit="10"/><line x1="60.15" y1="60.28" x2="96.36" y2="24.08" fill="none" stroke="#004785" stroke-miterlimit="10"/><polygon points="104.03 29.27 93.78 26.66 91.16 16.4 106.23 1.33 108.85 11.58 119.1 14.2 104.03 29.27" fill="#e6e6e6" stroke="#004785" stroke-miterlimit="10"/><line x1="96.83" y1="23.6" x2="107.11" y2="13.32" fill="none" stroke="#004785" stroke-miterlimit="10"/></svg>