<svg xmlns="http://www.w3.org/2000/svg" width="338.07" height="338.07" viewBox="0 0 338.07 338.07"><path d="M169,332.07A162.25,162.25,0,0,1,77.26,303.8" fill="none" stroke="#4cbeed" stroke-miterlimit="10" stroke-width="12"/><path d="M165.32,6c1.24,0,2.47,0,3.71,0a163,163,0,0,1,163,163" fill="none" stroke="#4cbeed" stroke-miterlimit="10" stroke-width="12"/><path d="M77.26,303.8A163,163,0,0,1,165.32,6" fill="none" stroke="#4cbeed" stroke-miterlimit="10" stroke-width="12"/><circle cx="169.03" cy="169.03" r="121.33" fill="none" stroke="#004785" stroke-miterlimit="10"/><path d="M169.11,148H137.28c-13.63.25-24.66,8-24.6,17.18v28.24c0,9.14,4.55,16.08,23.67,25.13a153.08,153.08,0,0,0,32.76,11.66Z" fill="#fff" stroke="#004785" stroke-linejoin="round"/><path d="M169,148h31.83c13.64.25,24.67,8,24.61,17.18v28.24c0,9.14-4.55,16.07-23.67,25.13A153,153,0,0,1,169,230.22Z" fill="#fff" stroke="#004785" stroke-linejoin="round"/><polygon points="63.6 161.22 63.53 158.24 274.55 157.79 274.55 161.23 169.07 201.93 63.6 161.22" fill="#fff"/><path d="M274.05,158.29v2.6l-105,40.51-105-40.52,0-2.14,210-.45m1-1-212,.45.09,3.83,106,40.9,106-40.9v-4.28Z" fill="#004785"/><polygon points="64.41 157.73 169.07 116.93 273.66 157.29 169.07 197.65 64.41 157.73" fill="#fff"/><path d="M169.08,117.47l103.19,39.82-103.2,39.82L65.8,157.73l103.28-40.26m0-1.08L63,157.74l106,40.44,106-40.89-106-40.9Z" fill="#004785"/><path d="M246.73,230c-2.66-2.38-3.28-7.67-4.79-22a7.7,7.7,0,0,0-2.95-5.09v-4.33a6.24,6.24,0,0,0-1.38-11.12V173.23a2,2,0,0,0-1.27-1.85l-67.51-26.06a2,2,0,0,0-1.44,3.71l66.25,25.57v12.83a6.23,6.23,0,0,0-1.48,11.16v4.33a7.7,7.7,0,0,0-3,5.09c-1.51,14.29-2.12,19.58-4.79,22-.89,3.3,4,7.1,11.09,7.14h.15C242.71,237.07,247.62,233.26,246.73,230Z" fill="#fff" stroke="#004785" stroke-miterlimit="10"/><path d="M180.75,146.47c0,3.24-5.19,5.88-11.6,5.88s-11.61-2.64-11.61-5.88,5.19-5.87,11.61-5.87S180.75,143.22,180.75,146.47Z" fill="#fff" stroke="#004785" stroke-miterlimit="10"/><line x1="74.15" y1="158.27" x2="165.32" y2="192.19" fill="none" stroke="#004785" stroke-linejoin="round"/><line x1="231.05" y1="209.15" x2="228.93" y2="229.3" fill="none" stroke="#004785" stroke-linejoin="round"/><line x1="165.32" y1="203.85" x2="165.32" y2="225.06" fill="none" stroke="#004785" stroke-linejoin="round"/><path d="M165.32,6c1.24,0,2.47,0,3.71,0a163,163,0,0,1,106,286.89" fill="none" stroke="#36bdb2" stroke-miterlimit="10" stroke-width="12"/><path d="M275.05,292.89a162.37,162.37,0,0,1-106,39.18" fill="none" stroke="#fd0" stroke-miterlimit="10" stroke-width="12"/><path d="M332.07,169a162.66,162.66,0,0,1-57,123.86" fill="none" stroke="#36bdb2" stroke-miterlimit="10"/></svg>