<svg xmlns="http://www.w3.org/2000/svg" width="338" height="338" viewBox="0 0 338 338"><circle cx="169" cy="169" r="121.33" fill="none" stroke="#004785" stroke-miterlimit="10"/><path d="M169.08,148H137.25c-13.63.25-24.66,8-24.61,17.18V193.4c0,9.14,4.56,16.07,23.67,25.12a152.67,152.67,0,0,0,32.77,11.67Z" fill="#fff" stroke="#004785" stroke-linejoin="round"/><path d="M169,148h31.83c13.63.25,24.66,8,24.61,17.17v28.24c0,9.15-4.56,16.08-23.67,25.13-11.4,5.4-22.31,9.41-32.77,11.66Z" fill="#fff" stroke="#004785" stroke-linejoin="round"/><polygon points="63.57 161.19 63.5 158.2 274.51 157.76 274.51 161.19 169.04 201.9 63.57 161.19" fill="#fff"/><path d="M274,158.26v2.59L169,201.36l-105-40.51,0-2.15,210-.44m1-1-212,.45.09,3.83,106,40.9,106-40.9v-4.28Z" fill="#004785"/><polygon points="64.38 157.7 169.04 116.9 273.62 157.26 169.04 197.61 64.38 157.7" fill="#fff"/><path d="M169,117.43l103.19,39.83L169,197.08,65.77,157.7,169,117.43m0-1.07L63,157.71l106,40.44,106-40.89-106-40.9Z" fill="#004785"/><path d="M246.69,229.93c-2.66-2.37-3.27-7.67-4.78-22a7.75,7.75,0,0,0-2.95-5.1v-4.32a6.24,6.24,0,0,0-1.38-11.12V173.2a2,2,0,0,0-1.27-1.86l-67.52-26.05a2,2,0,0,0-1.43,3.71l66.24,25.56V187.4a6.24,6.24,0,0,0-1.48,11.16v4.32a7.75,7.75,0,0,0-3,5.1c-1.52,14.28-2.13,19.58-4.79,22-.9,3.3,4,7.11,11.08,7.14h.16C242.68,237,247.59,233.23,246.69,229.93Z" fill="#fff" stroke="#004785" stroke-miterlimit="10"/><path d="M180.72,146.44c0,3.24-5.2,5.87-11.61,5.87s-11.6-2.63-11.6-5.87,5.19-5.88,11.6-5.88S180.72,143.19,180.72,146.44Z" fill="#fff" stroke="#004785" stroke-miterlimit="10"/><line x1="74.12" y1="158.24" x2="165.29" y2="192.16" fill="none" stroke="#004785" stroke-linejoin="round"/><line x1="231.02" y1="209.12" x2="228.9" y2="229.26" fill="none" stroke="#004785" stroke-linejoin="round"/><line x1="165.29" y1="203.82" x2="165.29" y2="225.02" fill="none" stroke="#004785" stroke-linejoin="round"/><circle cx="169" cy="169" r="163" fill="none" stroke="#e6e6e6" stroke-miterlimit="10" stroke-width="12"/></svg>