<svg xmlns="http://www.w3.org/2000/svg" width="166.78" height="223.82" viewBox="0 0 166.78 223.82"><path d="M148.35,132.17a18.57,18.57,0,0,0-3.61.36,18,18,0,1,0,3.61-.36Z" fill="#e6e6e6" stroke="#004785" stroke-miterlimit="10"/><path d="M35.1,56.57V15.75a7.11,7.11,0,0,1,7.1-7.1h9.9v-5H42.2a12.12,12.12,0,0,0-12.11,12.1V56.57a3.64,3.64,0,0,1,5,0Z" fill="#e6e6e6" stroke="#004785" stroke-miterlimit="10"/><path d="M117.34,56.57V15.75a12.12,12.12,0,0,0-12.11-12.1h-9.9v5h9.9a7.12,7.12,0,0,1,7.11,7.1V56.57a3.63,3.63,0,0,1,5,0Z" fill="#e6e6e6" stroke="#004785" stroke-miterlimit="10"/><path d="M118.47,82.39V59.2a3.64,3.64,0,0,0-7.27,0V82.39a37.49,37.49,0,1,1-75,0V59.2a3.64,3.64,0,0,0-6.14-2.63A3.59,3.59,0,0,0,29,59.2V82.39A44.81,44.81,0,0,0,70.08,127v19.47H38.93a38.43,38.43,0,1,0,38.42,38.42V153.74h40.74v-7.27H77.35V127A44.81,44.81,0,0,0,118.47,82.39ZM70.08,184.89a31.16,31.16,0,1,1-31.15-31.15H70.08Z" fill="#e6e6e6" stroke="#004785" stroke-miterlimit="10"/><path d="M139.61,146.47H118.09v7.27h21.53a9.39,9.39,0,0,1-.73-3.64A9.52,9.52,0,0,1,139.61,146.47Z" fill="#e6e6e6" stroke="#004785" stroke-miterlimit="10"/><path d="M148.35,140.64a9.46,9.46,0,1,0,9.46,9.46A9.47,9.47,0,0,0,148.35,140.64Z" fill="#e6e6e6" stroke="#004785" stroke-miterlimit="10"/><path d="M60.67.51l-10.44.78a2,2,0,0,0-1.85,2V9.18a2,2,0,0,0,1.85,2L60.67,12a3.47,3.47,0,0,0,3.72-3.45V4A3.47,3.47,0,0,0,60.67.51Z" fill="#e6e6e6" stroke="#004785" stroke-miterlimit="10"/><path d="M97.2,1.29,86.77.51A3.47,3.47,0,0,0,83,4V8.51A3.47,3.47,0,0,0,86.77,12l10.43-.78a2,2,0,0,0,1.85-2V3.29A2,2,0,0,0,97.2,1.29Z" fill="#e6e6e6" stroke="#004785" stroke-miterlimit="10"/><line x1="77.35" y1="138.8" x2="77.35" y2="161.44" fill="none" stroke="#004785" stroke-miterlimit="10"/><line x1="70.08" y1="141.27" x2="70.08" y2="159.56" fill="none" stroke="#004785" stroke-miterlimit="10"/></svg>