<svg xmlns="http://www.w3.org/2000/svg" width="316.21" height="150.76" viewBox="0 0 316.21 150.76"><polygon points="49.81 105.65 49.81 136.42 205.41 136.42 205.41 108.22 226.32 108.22 226.32 136.42 232.6 136.42 232.6 105.65 49.81 105.65" fill="#e6e6e6" stroke="#004785" stroke-miterlimit="10"/><polyline points="95.41 114.85 240.09 114.85 240.09 107.28 0.94 107.28 0.94 114.85 62.12 114.85" fill="#e6e6e6" stroke="#004785" stroke-miterlimit="10"/><path d="M230.67,126.24A22.42,22.42,0,0,1,243,111.33l.31-.15h0a22.24,22.24,0,0,1,8.72-1.78c.37,0,.73,0,1.09,0,.8,0,1.68.13,2.62.27a22.57,22.57,0,0,1,17.24,14s2.78,8.57.29,14.67l-43-1h.43A22.29,22.29,0,0,1,230.67,126.24Z" fill="#e6e6e6"/><path d="M235.45,139.65a18.35,18.35,0,1,1,16.64,10.61,18.27,18.27,0,0,1-16.64-10.61Zm3-7.75a13.65,13.65,0,1,0,13.65-13.64A13.66,13.66,0,0,0,238.44,131.9Z" fill="#e6e6e6" stroke="#004785" stroke-miterlimit="10"/><path d="M238,131.9A14.12,14.12,0,1,1,252.09,146,14.13,14.13,0,0,1,238,131.9Zm4.87,0a9.25,9.25,0,1,0,9.25-9.25A9.26,9.26,0,0,0,242.84,131.9Z" fill="#e6e6e6" stroke="#004785" stroke-miterlimit="10"/><path d="M242.52,131.9a9.57,9.57,0,1,0,9.57-9.57A9.56,9.56,0,0,0,242.52,131.9Z" fill="#e6e6e6" stroke="#004785" stroke-miterlimit="10"/><path d="M256.34,133c0,.13-.08.27-.13.4h0C256.27,133.28,256.31,133.14,256.34,133Z" fill="#ccc"/><path d="M61.34,139.65A18.35,18.35,0,1,1,78,150.26a18.27,18.27,0,0,1-16.64-10.61Zm3-7.75A13.65,13.65,0,1,0,78,118.26,13.66,13.66,0,0,0,64.33,131.9Z" fill="#e6e6e6" stroke="#004785" stroke-miterlimit="10"/><path d="M63.86,131.9A14.12,14.12,0,1,1,78,146,14.13,14.13,0,0,1,63.86,131.9Zm4.87,0A9.25,9.25,0,1,0,78,122.65,9.26,9.26,0,0,0,68.73,131.9Z" fill="#e6e6e6" stroke="#004785" stroke-miterlimit="10"/><path d="M68.41,131.9A9.57,9.57,0,1,0,78,122.33,9.57,9.57,0,0,0,68.41,131.9Z" fill="#e6e6e6" stroke="#004785" stroke-miterlimit="10"/><path d="M252.09,109.39a22.35,22.35,0,0,0-13.26,4.37V89.94h0V41.29A5.32,5.32,0,0,1,244.12,36H300c2.93,0,4.41,1.93,5.3,5.34l10.12,48.64v35H273.48A22.54,22.54,0,0,0,252.09,109.39Z" fill="#e6e6e6" stroke="#004785" stroke-miterlimit="10"/><path d="M312.06,123.8V89.2l-7.87-39.61a3.92,3.92,0,0,0-3.85-3.16l-61.33,0" fill="#e6e6e6" stroke="#004785" stroke-miterlimit="10"/><rect x="262.23" y="96.49" width="12.45" height="6.56" fill="none" stroke="#004785" stroke-miterlimit="10"/><line x1="262.23" y1="105.39" x2="262.23" y2="45.99" fill="none" stroke="#004785" stroke-miterlimit="10"/><line x1="260.46" y1="47.68" x2="260.46" y2="105.39" fill="none"/><rect x="205.41" y="107.28" width="20.91" height="29.21" fill="#e6e6e6" stroke="#004785" stroke-miterlimit="10"/><polygon points="276.88 138.35 311.05 138.57 311.05 116.18 274.75 116.18 276.88 138.35" fill="#e6e6e6" stroke="#004785" stroke-miterlimit="10"/><path d="M8.08,136.42H54.67V114.85H4.5v18.33A3.42,3.42,0,0,0,8.08,136.42Z" fill="#e6e6e6" stroke="#004785" stroke-miterlimit="10"/><path d="M230.78,137.43h-6.11a28.29,28.29,0,0,1,14.16-30.61v0c.69-.37,1.41-.7,2.14-1l.31-.13,1.07-.42a28.55,28.55,0,0,1,10.08-1.9s8.31.33,12.82,3.32c.09,0,10.88,4.44,14.38,18.31,0,0,1.76,8.46-.21,13.53l-6.1,0c2.51-6.09-.28-14.7-.28-14.7a22.57,22.57,0,0,0-17.24-14c-.94-.14-1.82-.22-2.62-.27-.36,0-.72,0-1.09,0a22.24,22.24,0,0,0-8.72,1.78h0l-.31.15a22.32,22.32,0,0,0-12.25,26.1Z" fill="#e6e6e6" stroke="#004785" stroke-miterlimit="10"/><path d="M266.92,56.19V72.66c0,3.48,2.27,6.3,5.07,6.3h4.53a7.16,7.16,0,0,1,3.64,1l5.55,3.27a8.71,8.71,0,0,0,4.45,1.19L301,84.28c2.63,0,4.8-2.49,5.05-5.69a5,5,0,0,0-.08-1.22l-3.8-21.18c-.91-2.92-2.26-6.3-5.06-6.3H272C269.19,49.89,266.92,52.71,266.92,56.19Z" fill="none" stroke="#004785" stroke-miterlimit="10"/><path d="M309.05,138.65h4.68c1.09,0,2-1.22,2-2.72v-17c0-1.51-.89-2.73-2-2.73h-4.68Z" fill="#e6e6e6" stroke="#004785" stroke-miterlimit="10"/><rect x="286.72" y="120.63" width="15.45" height="7.29" fill="#e6e6e6" stroke="#004785" stroke-miterlimit="10"/><rect x="0.5" y="88.6" width="234.02" height="18.68" fill="#e6e6e6" stroke="#004785" stroke-miterlimit="10"/><path d="M3,132.64H4.5V107.28H.5v22.9A2.46,2.46,0,0,0,3,132.64Z" fill="#e6e6e6" stroke="#004785" stroke-miterlimit="10"/><path d="M57.12,136.36l-6.1,0a30.66,30.66,0,0,1,.15-13.19,28.26,28.26,0,0,1,13.77-18.08v0c.69-.38,1.41-.71,2.14-1l.31-.13c.35-.15.7-.3,1.06-.43a28.51,28.51,0,0,1,10.06-2s8.32.27,12.85,3.22c.09.05,10.91,4.36,14.51,18.2,0,0,1.83,8.44-.1,13.53l-6.1,0c2.46-6.11-.39-14.69-.39-14.69a22.55,22.55,0,0,0-17.34-13.9c-.94-.13-1.83-.21-2.63-.26-.36,0-.72,0-1.09,0a22.15,22.15,0,0,0-8.7,1.84h0c-.11,0-.21.11-.32.15a22.43,22.43,0,0,0-12.24,15A24.72,24.72,0,0,0,57.12,136.36Z" fill="#e6e6e6" stroke="#004785" stroke-miterlimit="10"/><path d="M.5,5.38V88.6h234V5.38A4.88,4.88,0,0,0,229.64.5H5.38A4.89,4.89,0,0,0,.5,5.38Z" fill="#e6e6e6" stroke="#004785" stroke-miterlimit="10"/><rect x="0.5" y="88.6" width="234.02" height="7.72" fill="#e6e6e6" stroke="#004785" stroke-miterlimit="10"/><line x1="276.18" y1="65.3" x2="291.41" y2="50.07" fill="none" stroke="#004785" stroke-linecap="round" stroke-miterlimit="10"/><line x1="289.07" y1="84.15" x2="304.3" y2="68.92" fill="none" stroke="#004785" stroke-miterlimit="10"/><line x1="271.49" y1="78.85" x2="286.72" y2="63.62" fill="none" stroke="#004785" stroke-linecap="round" stroke-miterlimit="10"/><line x1="289.89" y1="60.46" x2="293.52" y2="56.83" fill="none" stroke="#004785" stroke-linecap="round" stroke-miterlimit="10"/><line x1="34.47" y1="7.71" x2="78.52" y2="7.71" fill="none" stroke="#004785" stroke-linecap="round" stroke-miterlimit="10"/><line x1="9.8" y1="7.71" x2="28.76" y2="7.71" fill="none" stroke="#004785" stroke-linecap="round" stroke-miterlimit="10"/></svg>