<svg xmlns="http://www.w3.org/2000/svg" width="214.72" height="214.72" viewBox="0 0 214.72 214.72"><circle cx="107.36" cy="107.36" r="106.86" fill="none" stroke="#004785" stroke-miterlimit="10"/><path d="M206.18,67.45a.85.85,0,0,0,.08-.8,101.88,101.88,0,0,0-11-19.55.84.84,0,0,0-.7-.36H99.92a.85.85,0,0,0-.85.85v165a.86.86,0,0,0,.78.85c3,.24,5.34.37,8.21.37A107.52,107.52,0,0,0,119,213.3a.86.86,0,0,0,.76-.85V67.83h85.72A.86.86,0,0,0,206.18,67.45Z" fill="#004785"/><path d="M211.88,85.88a.85.85,0,0,0-.83-.67H135a.85.85,0,0,0-.85.85V209.67a.84.84,0,0,0,.33.67.82.82,0,0,0,.52.18l.21,0a100.61,100.61,0,0,0,19.14-7.25.85.85,0,0,0,.48-.77V106.3h58.52a.83.83,0,0,0,.6-.26.86.86,0,0,0,.25-.61A100.92,100.92,0,0,0,211.88,85.88Z" fill="#004785"/><path d="M83.14,85.21H3.8a.87.87,0,0,0-.84.67A100.91,100.91,0,0,0,.63,105.43a.81.81,0,0,0,.24.61.83.83,0,0,0,.61.26H63.3v97.13a.86.86,0,0,0,.5.78A100.89,100.89,0,0,0,82.94,211l.2,0a.87.87,0,0,0,.53-.18.88.88,0,0,0,.32-.67V86.06A.85.85,0,0,0,83.14,85.21Z" fill="#004785"/><path d="M83.14,46.74H20.27a.86.86,0,0,0-.71.36,101.88,101.88,0,0,0-11,19.55.86.86,0,0,0,.79,1.18H83.14A.86.86,0,0,0,84,67V47.59A.85.85,0,0,0,83.14,46.74Z" fill="#004785"/></svg>