<svg xmlns="http://www.w3.org/2000/svg" width="336.41" height="347.04" viewBox="0 0 336.41 347.04"><line x1="7.81" y1="263.94" x2="328.61" y2="263.94" fill="#72d1c9" stroke="#004785" stroke-miterlimit="10"/><line x1="159.33" y1="284.58" x2="278.28" y2="284.58" fill="#72d1c9" stroke="#004785" stroke-linecap="round" stroke-miterlimit="10"/><line x1="123.46" y1="284.58" x2="152.4" y2="284.58" fill="#72d1c9" stroke="#004785" stroke-linecap="round" stroke-miterlimit="10"/><line x1="136.42" y1="346.54" x2="165.36" y2="346.54" fill="#72d1c9" stroke="#004785" stroke-linecap="round" stroke-miterlimit="10"/><line x1="170.37" y1="346.54" x2="183.31" y2="346.54" fill="#72d1c9" stroke="#004785" stroke-linecap="round" stroke-miterlimit="10"/><line x1="85.8" y1="305.23" x2="185.08" y2="305.23" fill="#72d1c9" stroke="#004785" stroke-linecap="round" stroke-miterlimit="10"/><line x1="169.93" y1="325.89" x2="251.2" y2="325.89" fill="#72d1c9" stroke="#004785" stroke-linecap="round" stroke-miterlimit="10"/><line x1="33.45" y1="47.33" x2="302.96" y2="47.33" fill="#72d1c9" stroke="#004785" stroke-miterlimit="10"/><line x1="237.41" y1="80.19" x2="274.16" y2="80.19" fill="#72d1c9" stroke="#004785" stroke-linecap="round" stroke-miterlimit="10"/><line x1="237.41" y1="95.5" x2="274.16" y2="95.5" fill="#72d1c9" stroke="#004785" stroke-linecap="round" stroke-miterlimit="10"/><line x1="237.41" y1="110.82" x2="274.16" y2="110.82" fill="#72d1c9" stroke="#004785" stroke-linecap="round" stroke-miterlimit="10"/><rect x="116.85" y="221.13" width="102.72" height="40.78" fill="#72d1c9" stroke="#004785" stroke-miterlimit="10"/><rect x="0.5" y="0.5" width="335.41" height="224.04" rx="8.04" fill="#72d1c9" stroke="#004785" stroke-miterlimit="10"/><line x1="0.5" y1="193.34" x2="335.91" y2="193.34" fill="#72d1c9" stroke="#004785" stroke-miterlimit="10"/><rect x="7.81" y="7.89" width="320.8" height="177.73" rx="5.28" fill="#72d1c9" stroke="#004785" stroke-miterlimit="10"/><circle cx="168.21" cy="208.94" r="8.87" fill="#72d1c9" stroke="#004785" stroke-miterlimit="10"/><rect x="75.88" y="259.36" width="184.65" height="9.17" rx="4.58" fill="#72d1c9" stroke="#004785" stroke-miterlimit="10"/><line x1="116.85" y1="224.54" x2="116.85" y2="259.36" fill="#72d1c9" stroke="#004785" stroke-miterlimit="10"/><line x1="219.57" y1="224.54" x2="219.57" y2="259.36" fill="#72d1c9" stroke="#004785" stroke-miterlimit="10"/></svg>